g Bracken01_VGradient
v 1.790478E-14 -7.704814E-16 6.012098E-15
v 0.6203428 2.739708E-08 0.784388
v 0.166369 0.7262154 1.143419
v -0.4539738 0.7262154 0.3590307
v -0.6203428 -2.739708E-08 -0.784388
v -1.074317 0.7262153 -0.4253573
v -0.4258568 1.192347 1.611788
v -1.0462 1.192347 0.8273996
v -1.666542 1.192347 0.04301159
v -1.078236 1.033299 2.127729
v -1.698578 1.033299 1.343341
v -2.318921 1.033299 0.5589533
v -1.557005 0.3060625 2.50637
v -2.177348 0.3060624 1.721982
v -2.79769 0.3060624 0.9375938
v 0.1009142 0.05862905 0.04464685
v -0.2105295 0.7330619 -0.007522208
v -0.3096021 0.6238125 0.04519739
v 0.02417797 0.001890878 0.07798332
v -0.7662585 1.143018 0.03427398
v -0.6604213 1.353295 -0.05239998
v -0.3636993 0.5357806 -0.06580498
v -0.01872739 -0.04650591 0.002387114
v -0.2947005 0.5960909 -0.1802334
v 0.03415672 -0.0166727 -0.07297508
v -0.7435683 1.100808 -0.3089811
v -0.8196975 0.9807429 -0.130632
v -0.2022453 0.7176507 -0.1328446
v 0.1064616 0.04830902 -0.03927451
v -0.6478072 1.32983 -0.2432237
v -0.9512755 1.579921 -0.07854973
v -1.040189 1.329078 0.02098543
v -1.272874 1.737644 -0.1052691
v -1.335149 1.458165 0.003717775
v -1.081132 1.137719 -0.1601497
v -1.357941 1.246486 -0.1869257
v -1.014979 1.282181 -0.3603821
v -1.308337 1.408287 -0.4018959
v -0.9372608 1.553849 -0.2905611
v -1.257968 1.709915 -0.3307594
v -1.613602 1.820037 -0.1312891
v -1.643183 1.526425 -0.01670263
v -1.961285 1.828661 -0.1548235
v -1.956099 1.533936 -0.03775563
v -1.644522 1.304841 -0.2104183
v -1.935074 1.311604 -0.2301518
v -1.615685 1.47527 -0.4326959
v -1.928572 1.482728 -0.4541772
v -1.598314 1.791599 -0.3625497
v -1.945982 1.800193 -0.3863221
v 0.01191874 -0.03155889 0.003444641
v 0.7574033 0.6507732 -0.265493
v 0.8422801 1.014166 0.2425689
v 0.07487652 0.5050992 0.5428227
v -0.8040559 -0.1526046 0.1874783
v -0.8335072 1.118605 0.6732683
v 1.001811 1.286248 0.8819102
v 0.2328545 0.8165355 1.188428
v -0.6770819 1.469396 1.325138
v 1.176502 1.089062 1.538511
v 0.4075459 0.6193496 1.845029
v -0.5023905 1.27221 1.981739
v 1.321717 0.4520405 1.966488
v 0.5527608 -0.01767211 2.273006
v -0.3571756 0.6351881 2.409716
v -0.002256779 0.002700151 0.01005474
v -0.544251 0.002700151 0.8504904
v -0.1545369 1.413008 1.038096
v -0.06578389 1.013246 -0.02714932
v 0.5397374 0.00270015 -0.8303809
v 0.9066226 1.389428 -0.657241
v -0.5062054 2.321099 0.8300434
v -0.488679 1.850325 -0.2749241
v 0.4125007 2.155495 -0.9447379
v -1.106143 2.768193 0.5309817
v -1.149237 2.24011 -0.6011751
v -0.3086774 2.487973 -1.298178
v -1.810983 2.612277 0.2563745
v -1.883754 2.057085 -0.8870918
v -1.072873 2.277839 -1.595404
v 1.790478E-14 -7.704814E-16 6.012098E-15
v 0.2959536 0.3307358 -0.8492661
v 1.009114 0.5595291 -0.4463245
v 0.4705657 0.5867485 0.3209728
v -0.2959536 -0.3307358 0.8492661
v -0.06798213 0.6139681 1.08827
v 1.640571 0.7887357 0.07762004
v 0.9418045 1.172327 0.6423918
v 0.2430382 1.555919 1.207164
v 1.916253 0.9222776 0.3757262
v 1.177577 1.464701 0.8033885
v 0.4389002 2.007124 1.231051
v 2.162702 1.077075 0.6910177
v 1.41339 1.756833 0.9646222
v 2.379449 1.25861 1.017412
v 1.649196 2.048764 1.126115
v 0.6640774 2.436591 1.238227
v 0.9189434 2.838918 1.234819
v 2.567577 1.471701 1.347337
v 1.884941 2.34055 1.28788
v 1.202305 3.209399 1.228422
v 0.005107441 -0.01568943 -0.002914162
v -0.415657 -0.01568944 -0.7403577
v -0.4484026 1.625087 -0.721674
v 0.2814848 0.6754996 -0.1606073
v 0.05784828 1.99534 -1.010526
v 0.7877357 1.045753 -0.4494598
v 0.6720386 1.931781 -1.360966
v 1.401926 0.9821935 -0.7998994
v 1.22466 1.451951 -1.676277
v 1.954548 0.5023633 -1.11521
v 0.4258719 -0.01568943 0.7345294
v 0.2814848 0.6754996 -0.1606073
v 0.2814848 0.6754996 -0.1606073
v 0.3931264 1.625087 0.753213
v 0.7877357 1.045753 -0.4494598
v 0.8993772 1.99534 0.4643606
v 1.401926 0.9821935 -0.7998994
v 1.513567 1.931781 0.1139209
v 1.954548 0.5023633 -1.11521
v 2.066189 1.451951 -0.2013895
v 0.004735793 0.03127695 0.01221278
v -0.9276615 0.03127694 0.3737718
v -1.056102 0.7627994 0.04254543
v -0.1237051 0.2102137 -0.3190137
v 0.9371331 0.03127695 -0.3493463
v 0.8086923 0.7627994 -0.6805727
v -1.272326 1.163662 -0.5150568
v -0.3399285 0.6110766 -0.8766159
v 0.5924688 1.163662 -1.238175
v -1.517201 1.128442 -1.146548
v -0.5848041 0.5758559 -1.508107
v 0.3475933 1.128442 -1.869666
v -1.737412 0.6510124 -1.714431
v -0.8050143 0.6510124 -2.07599
v 0.1273831 0.6510124 -2.437549
vt 0.5650107 0.4576572
vt 0.4902653 0.4576572
vt 0.4902653 0.5186897
vt 0.5650107 0.5186897
vt 0.6397562 0.4576572
vt 0.6397562 0.5186897
vt 0.4902653 0.5797222
vt 0.5650107 0.5797222
vt 0.6397562 0.5797222
vt 0.4902653 0.6407549
vt 0.5650107 0.6407549
vt 0.6397562 0.6407549
vt 0.4902653 0.7017874
vt 0.5650107 0.7017874
vt 0.6397562 0.7017874
vt 0.4902653 0.4576572
vt 0.4902653 0.5186897
vt 0.527638 0.5186897
vt 0.527638 0.4576572
vt 0.527638 0.5797222
vt 0.4902653 0.5797222
vt 0.5650107 0.5186897
vt 0.5650107 0.4576572
vt 0.6023835 0.5186897
vt 0.6023835 0.4576572
vt 0.6023835 0.5797222
vt 0.5650107 0.5797222
vt 0.6397562 0.5186897
vt 0.6397562 0.4576572
vt 0.6397562 0.5797222
vt 0.4902653 0.6102386
vt 0.527638 0.6102386
vt 0.4902653 0.6407549
vt 0.527638 0.6407549
vt 0.5650107 0.6102386
vt 0.5650107 0.6407549
vt 0.6023835 0.6102386
vt 0.6023835 0.6407549
vt 0.6397562 0.6102386
vt 0.6397562 0.6407549
vt 0.4902653 0.6712712
vt 0.527638 0.6712712
vt 0.4902653 0.7017874
vt 0.527638 0.7017874
vt 0.5650107 0.6712712
vt 0.5650107 0.7017874
vt 0.6023835 0.6712712
vt 0.6023835 0.7017874
vt 0.6397562 0.6712712
vt 0.6397562 0.7017874
vt 0.5650107 0.4576572
vt 0.4902653 0.4576572
vt 0.4902653 0.5186897
vt 0.5650107 0.5186897
vt 0.6397562 0.4576572
vt 0.6397562 0.5186897
vt 0.4902653 0.5797222
vt 0.5650107 0.5797222
vt 0.6397562 0.5797222
vt 0.4902653 0.6407549
vt 0.5650107 0.6407549
vt 0.6397562 0.6407549
vt 0.4902653 0.7017874
vt 0.5650107 0.7017874
vt 0.6397562 0.7017874
vt 0.5650107 0.4576572
vt 0.4902653 0.4576572
vt 0.4902653 0.5186897
vt 0.5650107 0.5186897
vt 0.6397562 0.4576572
vt 0.6397562 0.5186897
vt 0.4902653 0.5797222
vt 0.5650107 0.5797222
vt 0.6397562 0.5797222
vt 0.4902653 0.6407549
vt 0.5650107 0.6407549
vt 0.6397562 0.6407549
vt 0.4902653 0.7017874
vt 0.5650107 0.7017874
vt 0.6397562 0.7017874
vt 0.5650107 0.4576572
vt 0.4902653 0.4576572
vt 0.4902653 0.5186897
vt 0.5650107 0.5186897
vt 0.6397562 0.4576572
vt 0.6397562 0.5186897
vt 0.4902653 0.5797222
vt 0.5650107 0.5797222
vt 0.6397562 0.5797222
vt 0.4902653 0.6102386
vt 0.5650107 0.6102386
vt 0.6397562 0.6102386
vt 0.4902653 0.6407549
vt 0.5650107 0.6407549
vt 0.4902653 0.6712712
vt 0.5650107 0.6712712
vt 0.6397562 0.6407549
vt 0.6397562 0.6712712
vt 0.4902653 0.7017874
vt 0.5650107 0.7017874
vt 0.6397562 0.7017874
vt 0.5650107 0.4576572
vt 0.4902653 0.4576572
vt 0.4902653 0.5186897
vt 0.5650107 0.5186897
vt 0.4902653 0.5797222
vt 0.5650107 0.5797222
vt 0.4902653 0.6407549
vt 0.5650107 0.6407549
vt 0.4902653 0.7017874
vt 0.5650107 0.7017874
vt 0.6397562 0.4576572
vt 0.5650107 0.5186897
vt 0.5650107 0.5186897
vt 0.6397562 0.5186897
vt 0.5650107 0.5797222
vt 0.6397562 0.5797222
vt 0.5650107 0.6407549
vt 0.6397562 0.6407549
vt 0.5650107 0.7017874
vt 0.6397562 0.7017874
vt 0.5650107 0.4576572
vt 0.4902653 0.4576572
vt 0.4902653 0.5186897
vt 0.5650107 0.5186897
vt 0.6397562 0.4576572
vt 0.6397562 0.5186897
vt 0.4902653 0.5797222
vt 0.5650107 0.5797222
vt 0.6397562 0.5797222
vt 0.4902653 0.6407549
vt 0.5650107 0.6407549
vt 0.6397562 0.6407549
vt 0.4902653 0.7017874
vt 0.5650107 0.7017874
vt 0.6397562 0.7017874
vn 0.6133757 0.6232596 -0.4850956
vn 0.6133757 0.6232595 -0.4850956
vn 0.5204177 0.7481767 -0.4115787
vn 0.5204177 0.7481767 -0.4115787
vn 0.6133757 0.6232596 -0.4850956
vn 0.5204177 0.7481767 -0.4115787
vn 0.1420191 0.9834711 -0.1123175
vn 0.1420191 0.9834711 -0.1123175
vn 0.1420191 0.9834711 -0.1123175
vn -0.3970119 0.8624367 0.3139817
vn -0.3970119 0.8624367 0.3139817
vn -0.3970119 0.8624367 0.3139817
vn -0.6007775 0.6428964 0.4751322
vn -0.6007775 0.6428964 0.4751322
vn -0.6007775 0.6428964 0.4751322
vn -0.2725737 -0.1976131 -0.9416223
vn -0.261413 -0.2216674 -0.939429
vn 0.2296154 0.1188145 -0.966002
vn 0.2658394 0.09090327 -0.9597219
vn 0.174573 0.1515591 -0.9729101
vn -0.2059985 -0.278102 -0.9382024
vn 0.7876515 0.615996 -0.01240852
vn 0.8600159 0.5102579 0.003104979
vn 0.1164615 0.2800685 0.9528894
vn 0.1522755 0.2482384 0.9566555
vn 0.06108144 0.3188064 0.9458497
vn 0.6144769 0.7878709 -0.04095655
vn -0.3807943 -0.07376178 0.9217131
vn -0.392196 -0.05087265 0.9184738
vn -0.3257387 -0.1278781 0.9367718
vn -0.1268568 -0.3257834 -0.9368952
vn 0.1428934 0.159779 -0.9767559
vn -0.05471848 -0.3513802 -0.9346325
vn 0.1161817 0.1647342 -0.9794714
vn 0.4465398 0.892603 -0.06214545
vn 0.2895366 0.9539531 -0.07837015
vn 0.02700912 0.3310654 0.9432212
vn -0.003320279 0.3388685 0.9408279
vn -0.2478349 -0.1734747 0.9531444
vn -0.1775638 -0.1971084 0.9641677
vn 0.01828198 -0.3645818 -0.9309919
vn 0.08639322 0.1679073 -0.9820098
vn 0.0536757 -0.3677633 -0.9283692
vn 0.07022557 0.1689885 -0.9831131
vn 0.1183347 0.9886128 -0.09295952
vn 0.02989657 0.9946046 -0.09933694
vn -0.03755393 0.3436918 0.9383313
vn -0.05606504 0.3452142 0.9368479
vn -0.1064779 -0.2092271 0.9720528
vn -0.07192614 -0.212209 0.9745737
vn -0.3300782 0.6308455 -0.7021983
vn -0.6480809 0.6254545 -0.4345087
vn -0.6216941 0.7120367 -0.3263438
vn -0.2156999 0.7851588 -0.5805164
vn 0.04496625 0.5272184 -0.8485392
vn 0.2579646 0.6662366 -0.6997021
vn -0.5049174 0.8597816 0.07638054
vn 0.023679 0.9964128 -0.08124525
vn 0.5434346 0.8121448 -0.2123669
vn -0.2057424 0.7483314 0.630611
vn 0.2032689 0.8029516 0.5603127
vn 0.5742437 0.7179938 0.3933562
vn -0.008587834 0.5562998 0.8309372
vn 0.2551319 0.5786144 0.7746697
vn 0.5001729 0.5585672 0.661687
vn 0.823851 -0.1129239 0.5554436
vn 0.9203255 -0.1096653 0.3754658
vn 0.979066 0.1447004 0.1431493
vn 0.8390596 0.1844963 0.5118009
vn 0.6930138 -0.1114725 0.7122539
vn 0.5681211 0.1953222 0.7994296
vn 0.7976438 0.561056 -0.2213157
vn 0.6327245 0.7241639 0.2743107
vn 0.278972 0.6706693 0.6872972
vn 0.3120401 0.8611397 -0.4013346
vn 0.1422321 0.9882712 -0.0555882
vn -0.05015764 0.9532877 0.2978701
vn -0.04586019 0.9028146 -0.4275777
vn -0.1576349 0.9644535 -0.2120865
vn -0.2595212 0.9655928 0.01670874
vn -0.6761035 0.700131 -0.229566
vn -0.5208237 0.8468616 -0.1075552
vn -0.4011569 0.863801 -0.3048295
vn -0.5591178 0.7110844 -0.4263171
vn -0.79046 0.5110227 -0.3376816
vn -0.681399 0.5144668 -0.5205953
vn -0.1366905 0.7929501 -0.5937558
vn -0.2931317 0.6449674 -0.7057556
vn -0.4318983 0.4596227 -0.7760224
vn 0.0711557 0.6824664 -0.7274451
vn -0.08421978 0.5440751 -0.8347989
vn -0.2348888 0.3759692 -0.8963673
vn 0.2269819 0.5759828 -0.7853172
vn 0.07549841 0.4437506 -0.8929644
vn 0.3698062 0.4609926 -0.8066778
vn 0.2235393 0.3339333 -0.9157066
vn -0.07984987 0.2885008 -0.9541442
vn 0.06626119 0.190404 -0.9794672
vn 0.4357808 0.4006538 -0.8059601
vn 0.2929549 0.2763715 -0.9153121
vn 0.1361249 0.1388779 -0.9809092
vn -0.8909571 0.1914113 0.4117731
vn -0.7387132 0.2070651 0.6414256
vn -0.3724857 0.4234053 0.8258222
vn -0.7809048 0.4934489 0.3830088
vn 0.2507706 0.6280226 0.736683
vn -0.1983017 0.9735885 0.1131454
vn 0.5792179 0.6959739 0.4244137
vn 0.3367746 0.9217699 -0.192154
vn 0.7076885 0.6723025 0.2172242
vn 0.5229807 0.7984045 -0.298398
vn -0.9753426 0.161179 0.1507586
vn -0.7809048 0.4934489 0.3830088
vn -0.7809048 0.4934489 0.3830088
vn -0.9033509 0.387575 -0.1836921
vn -0.1983017 0.9735885 0.1131454
vn -0.5066034 0.6280226 -0.5907119
vn 0.3367746 0.9217699 -0.192154
vn -0.07066087 0.6959738 -0.714582
vn 0.5229807 0.7984045 -0.298398
vn 0.1730712 0.6723025 -0.7197609
vn 0.2044632 0.6960058 0.6883101
vn 0.3704714 0.6998664 0.6106864
vn 0.4788709 0.7392837 0.4734367
vn 0.2041377 0.7651685 0.6106102
vn 0.03158526 0.6687599 0.7428073
vn -0.08806636 0.7189221 0.6894891
vn 0.5245562 0.8496499 0.05418313
vn 0.09834272 0.9622948 0.2536085
vn -0.3508945 0.8496499 0.3936598
vn 0.2943 0.9097744 -0.2927423
vn -0.04888405 0.9855955 -0.1619012
vn -0.3855566 0.9226485 -0.00810839
vn 0.1467824 0.9210755 -0.3606589
vn -0.07548514 0.9619937 -0.2624314
vn -0.2931688 0.9444939 -0.1482675
g Bracken01_VGradient_0
f 3/3/3 2/2/2 1/1/1
f 4/4/4 3/3/3 1/1/1
f 4/4/4 1/1/1 5/5/5
f 6/6/6 4/4/4 5/5/5
f 7/7/7 3/3/3 4/4/4
f 8/8/8 7/7/7 4/4/4
f 8/8/8 4/4/4 6/6/6
f 9/9/9 8/8/8 6/6/6
f 10/10/10 7/7/7 8/8/8
f 11/11/11 10/10/10 8/8/8
f 11/11/11 8/8/8 9/9/9
f 12/12/12 11/11/11 9/9/9
f 13/13/13 10/10/10 11/11/11
f 14/14/14 13/13/13 11/11/11
f 14/14/14 11/11/11 12/12/12
f 15/15/15 14/14/14 12/12/12
f 18/18/18 17/17/17 16/16/16
f 19/19/19 18/18/18 16/16/16
f 18/18/18 20/20/20 17/17/17
f 20/20/20 21/21/21 17/17/17
f 22/22/22 18/18/18 19/19/19
f 23/23/23 22/22/22 19/19/19
f 24/24/24 22/22/22 23/23/23
f 25/25/25 24/24/24 23/23/23
f 24/24/24 26/26/26 22/22/22
f 26/26/26 27/27/27 22/22/22
f 27/27/27 20/20/20 18/18/18
f 22/22/22 27/27/27 18/18/18
f 28/28/28 24/24/24 25/25/25
f 29/29/29 28/28/28 25/25/25
f 30/30/30 26/26/26 24/24/24
f 28/28/28 30/30/30 24/24/24
f 21/21/21 20/20/20 31/31/31
f 20/20/20 32/32/32 31/31/31
f 20/20/20 27/27/27 32/32/32
f 31/31/31 32/32/32 33/33/33
f 32/32/32 34/34/34 33/33/33
f 32/32/32 35/35/35 34/34/34
f 27/27/27 26/26/26 35/35/35
f 27/27/27 35/35/35 32/32/32
f 35/35/35 36/36/36 34/34/34
f 35/35/35 37/37/37 36/36/36
f 26/26/26 37/37/37 35/35/35
f 26/26/26 30/30/30 37/37/37
f 37/37/37 38/38/38 36/36/36
f 37/37/37 39/39/39 38/38/38
f 30/30/30 39/39/39 37/37/37
f 39/39/39 40/40/40 38/38/38
f 33/33/33 34/34/34 41/41/41
f 34/34/34 42/42/42 41/41/41
f 34/34/34 36/36/36 42/42/42
f 41/41/41 42/42/42 43/43/43
f 42/42/42 44/44/44 43/43/43
f 42/42/42 45/45/45 44/44/44
f 36/36/36 38/38/38 45/45/45
f 36/36/36 45/45/45 42/42/42
f 45/45/45 46/46/46 44/44/44
f 45/45/45 47/47/47 46/46/46
f 38/38/38 47/47/47 45/45/45
f 38/38/38 40/40/40 47/47/47
f 47/47/47 48/48/48 46/46/46
f 47/47/47 49/49/49 48/48/48
f 40/40/40 49/49/49 47/47/47
f 49/49/49 50/50/50 48/48/48
f 53/53/53 52/52/52 51/51/51
f 54/54/54 53/53/53 51/51/51
f 54/54/54 51/51/51 55/55/55
f 56/56/56 54/54/54 55/55/55
f 57/57/57 53/53/53 54/54/54
f 58/58/58 57/57/57 54/54/54
f 58/58/58 54/54/54 56/56/56
f 59/59/59 58/58/58 56/56/56
f 60/60/60 57/57/57 58/58/58
f 61/61/61 60/60/60 58/58/58
f 61/61/61 58/58/58 59/59/59
f 62/62/62 61/61/61 59/59/59
f 63/63/63 60/60/60 61/61/61
f 64/64/64 63/63/63 61/61/61
f 64/64/64 61/61/61 62/62/62
f 65/65/65 64/64/64 62/62/62
f 68/68/68 67/67/67 66/66/66
f 69/69/69 68/68/68 66/66/66
f 69/69/69 66/66/66 70/70/70
f 71/71/71 69/69/69 70/70/70
f 72/72/72 68/68/68 69/69/69
f 73/73/73 72/72/72 69/69/69
f 73/73/73 69/69/69 71/71/71
f 74/74/74 73/73/73 71/71/71
f 75/75/75 72/72/72 73/73/73
f 76/76/76 75/75/75 73/73/73
f 76/76/76 73/73/73 74/74/74
f 77/77/77 76/76/76 74/74/74
f 78/78/78 75/75/75 76/76/76
f 79/79/79 78/78/78 76/76/76
f 79/79/79 76/76/76 77/77/77
f 80/80/80 79/79/79 77/77/77
f 83/83/83 82/82/82 81/81/81
f 84/84/84 83/83/83 81/81/81
f 84/84/84 81/81/81 85/85/85
f 86/86/86 84/84/84 85/85/85
f 87/87/87 83/83/83 84/84/84
f 88/88/88 87/87/87 84/84/84
f 88/88/88 84/84/84 86/86/86
f 89/89/89 88/88/88 86/86/86
f 90/90/90 87/87/87 88/88/88
f 91/91/91 90/90/90 88/88/88
f 91/91/91 88/88/88 89/89/89
f 92/92/92 91/91/91 89/89/89
f 93/93/93 90/90/90 91/91/91
f 94/94/94 93/93/93 91/91/91
f 94/94/94 91/91/91 92/92/92
f 95/95/95 93/93/93 94/94/94
f 96/96/96 95/95/95 94/94/94
f 96/96/96 94/94/94 97/97/97
f 97/97/97 94/94/94 92/92/92
f 98/98/98 96/96/96 97/97/97
f 99/99/99 95/95/95 96/96/96
f 100/100/100 99/99/99 96/96/96
f 100/100/100 96/96/96 98/98/98
f 101/101/101 100/100/100 98/98/98
f 104/104/104 103/103/103 102/102/102
f 105/105/105 104/104/104 102/102/102
f 106/106/106 104/104/104 105/105/105
f 107/107/107 106/106/106 105/105/105
f 108/108/108 106/106/106 107/107/107
f 109/109/109 108/108/108 107/107/107
f 110/110/110 108/108/108 109/109/109
f 111/111/111 110/110/110 109/109/109
f 113/113/113 102/102/102 112/112/112
f 115/115/115 114/114/114 112/112/112
f 116/116/116 114/114/114 115/115/115
f 117/117/117 116/116/116 115/115/115
f 118/118/118 116/116/116 117/117/117
f 119/119/119 118/118/118 117/117/117
f 120/120/120 118/118/118 119/119/119
f 121/121/121 120/120/120 119/119/119
f 124/124/124 123/123/123 122/122/122
f 125/125/125 124/124/124 122/122/122
f 125/125/125 122/122/122 126/126/126
f 127/127/127 125/125/125 126/126/126
f 128/128/128 124/124/124 125/125/125
f 129/129/129 128/128/128 125/125/125
f 129/129/129 125/125/125 127/127/127
f 130/130/130 129/129/129 127/127/127
f 131/131/131 128/128/128 129/129/129
f 132/132/132 131/131/131 129/129/129
f 132/132/132 129/129/129 130/130/130
f 133/133/133 132/132/132 130/130/130
f 134/134/134 131/131/131 132/132/132
f 135/135/135 134/134/134 132/132/132
f 135/135/135 132/132/132 133/133/133
f 136/136/136 135/135/135 133/133/133
