g Cattail05_VGradient
v 0.008980426 0.004181666 -0.001025698
v 0.0222005 0.004181657 0.1127236
v -0.06123435 0.6801786 0.121531
v -0.1613908 0.5405288 0.03082102
v -0.3644839 1.438594 0.1405222
v -0.5166963 1.2669 0.06101726
v -0.8350587 2.071248 0.2062489
v -1.032089 1.871359 0.1450906
v -1.278495 2.438888 0.3498251
v -0.004087926 0.004181675 -0.1134695
v -0.1613908 0.5405288 0.03082102
v -0.1613908 0.5405288 0.03082102
v -0.1084366 0.6673396 -0.1006589
v -0.5166963 1.2669 0.06101726
v -0.5149179 1.362126 -0.05825071
v -1.032089 1.871359 0.1450906
v -1.075689 1.93812 0.04319289
v -1.50515 2.220202 0.3030774
v -1.032089 1.871359 0.1450906
v -1.50515 2.220202 0.3030774
v -1.57727 2.268801 0.2160015
v -0.005796788 0.002781143 0.006935226
v -0.0938061 0.002781138 -0.06633158
v -0.03945174 0.4523734 -0.130242
v 0.09563451 0.359495 -0.1336075
v 0.1670807 0.9567804 -0.3530992
v 0.3321419 0.8425904 -0.4004745
v 0.4625719 1.377546 -0.7251819
v 0.08120251 0.002781149 0.0793612
v 0.09563451 0.359495 -0.1336075
v 0.09563451 0.359495 -0.1336075
v 0.1479433 0.4438344 -0.001869485
v 0.3321419 0.8425904 -0.4004745
v 0.413094 0.9059228 -0.3128688
v 0.6474414 1.244604 -0.8167483
v 0.3321419 0.8425904 -0.4004745
v 0.7492814 1.289005 -0.7730134
v 0.6847277 1.622056 -1.134934
v 0.8811165 1.476613 -1.257365
v 0.9933919 1.508935 -1.24403
v 0.04645102 0.05397503 0.09957924
v 0.1332647 0.5558224 0.007838518
v 0.02972396 0.5713732 0.05357058
v -0.02035183 0.09196237 0.167008
v 0.01382411 1.152918 0.1418757
v 0.06122654 1.171092 0.08959797
v -0.09376904 0.08457357 0.1689808
v -0.005522509 0.5698128 0.03709776
v -0.03799934 0.5649655 0.005781848
v -0.1233147 0.06880972 0.1103413
v -0.09864088 1.15412 0.09917787
v -0.04602415 1.146782 0.1446451
v -0.1207248 0.05299752 0.02660874
v -0.05761027 0.5383035 -0.1103043
v -0.09997435 1.170357 0.03764196
v 0.03520336 1.491242 0.2252217
v -0.01337644 1.447716 0.2790691
v -0.01193056 1.793651 0.4030625
v -0.05818468 1.72262 0.4500882
v -0.09196465 1.431206 0.2788451
v -0.1487024 1.694152 0.44414
v -0.1612929 1.449981 0.2246329
v -0.2311094 1.725856 0.3876503
v -0.1622086 1.491305 0.1573684
v -0.2339986 1.794072 0.3261903
v -0.07683013 2.06146 0.6146645
v -0.1181748 1.965281 0.6478604
v -0.1556763 2.279796 0.849139
v -0.1906755 2.164708 0.8638564
v -0.2140957 1.925691 0.63429
v -0.2856759 2.117086 0.8421173
v -0.305657 1.969358 0.5811352
v -0.3818043 2.169474 0.7966874
v -0.3128967 2.062437 0.5326998
v -0.3952353 2.28137 0.7659751
v -5.403005E-15 1.203493E-15 -2.701503E-15
v 0.09941166 -0.004521949 -0.06839943
v 0.1703579 0.5857785 -0.004311483
v 0.1257572 0.541244 0.1469933
v -0.09941166 0.004521949 0.06839943
v -0.02846538 0.5948223 0.1324874
v 0.3213253 1.303565 0.1676508
v 0.2767246 1.259031 0.3189556
v 0.122502 1.312609 0.3044497
v 0.5692606 2.021195 0.4805565
v 0.5246599 1.97666 0.6318613
v 0.3704373 2.030239 0.6173553
v 0.8253226 2.481524 0.822284
v 0.7807219 2.43699 0.9735887
v 0.6264993 2.490568 0.9590828
v -5.403005E-15 1.203493E-15 -2.701503E-15
v 0.0532494 -0.006961096 -0.1080876
v -0.1453464 0.5822078 -0.2554023
v -0.09931481 0.5983488 -0.09917481
v -0.0532494 0.006961096 0.1080876
v -0.2518452 0.59613 -0.03922718
v -0.2986124 1.360584 -0.3962743
v -0.2525808 1.376725 -0.2400468
v -0.4051112 1.374506 -0.1800992
v -0.3195793 2.231694 -0.4797565
v -0.2735476 2.247835 -0.323529
v -0.4260781 2.245616 -0.2635814
v -0.2007341 2.883397 -0.4759353
v -0.1547025 2.899538 -0.3197077
v -0.3072329 2.897319 -0.2597601
v 0.05289935 1.775222E-05 -0.001035068
v 0.04159749 0.002241104 -0.1005467
v 0.0348972 0.7923834 -0.08847243
v 0.1380899 0.757475 0.0001349234
v 0.06420121 -0.0022056 0.09847661
v 0.05750092 0.7879367 0.1105509
v 0.1399288 1.782685 -0.08622196
v 0.2431214 1.747777 0.002385397
v 0.1625325 1.778239 0.1128014
v 0.4146225 2.81702 -0.1026101
v 0.5178152 2.782112 -0.01400274
v 0.4372262 2.812573 0.09641325
v 0.7605491 3.524761 -0.1317646
v 0.8637418 3.489852 -0.04315722
v 0.7831528 3.520314 0.06725878
v 0.0004676598 9.866816E-16 -0.05800449
v -0.1314899 0.002261177 -0.0440943
v -0.118849 0.6938762 -0.03660339
v 0.002010093 0.6630056 -0.1511475
v 0.1324252 -0.002261177 -0.0719147
v 0.1450661 0.6893538 -0.06442378
v -0.1160998 1.560692 -0.1514286
v 0.004759325 1.529821 -0.2659726
v 0.1478154 1.556169 -0.179249
v -0.1322744 2.466049 -0.4520384
v -0.01141533 2.435179 -0.5665825
v 0.1316407 2.461527 -0.4798588
v -0.1615772 3.085538 -0.8307172
v -0.04071812 3.054667 -0.9452613
v 0.1023379 3.081016 -0.8585376
vt 0.2013813 0.5126702
vt 0.1835592 0.5126702
vt 0.1835592 0.5575735
vt 0.2013813 0.5575735
vt 0.1835592 0.6024765
vt 0.2013813 0.6024765
vt 0.1835592 0.6473799
vt 0.2013813 0.6473799
vt 0.1835592 0.692283
vt 0.2192034 0.5126702
vt 0.2013813 0.5575735
vt 0.2013813 0.5575735
vt 0.2192034 0.5575735
vt 0.2013813 0.6024765
vt 0.2192034 0.6024765
vt 0.2013813 0.6473799
vt 0.2192034 0.6473799
vt 0.2013813 0.692283
vt 0.2013813 0.6473799
vt 0.2013813 0.692283
vt 0.2192034 0.692283
vt 0.2013813 0.5126702
vt 0.1835592 0.5126702
vt 0.1835592 0.5575735
vt 0.2013813 0.5575735
vt 0.1835592 0.6024765
vt 0.2013813 0.6024765
vt 0.1835592 0.6473799
vt 0.2192034 0.5126702
vt 0.2013813 0.5575735
vt 0.2013813 0.5575735
vt 0.2192034 0.5575735
vt 0.2013813 0.6024765
vt 0.2192034 0.6024765
vt 0.2013813 0.6473799
vt 0.2013813 0.6024765
vt 0.2192034 0.6473799
vt 0.1835592 0.692283
vt 0.2013813 0.692283
vt 0.2192034 0.692283
vt 0.1835592 0.5126702
vt 0.1835592 0.5575735
vt 0.1924702 0.5575735
vt 0.1924702 0.5126702
vt 0.1924702 0.6024765
vt 0.1835592 0.6024765
vt 0.2013813 0.5126702
vt 0.2013813 0.5575735
vt 0.2102923 0.5575735
vt 0.2102923 0.5126702
vt 0.2102923 0.6024765
vt 0.2013813 0.6024765
vt 0.2192034 0.5126702
vt 0.2192034 0.5575735
vt 0.2192034 0.6024765
vt 0.1835592 0.6249282
vt 0.1924702 0.6249282
vt 0.1835592 0.6473799
vt 0.1924702 0.6473799
vt 0.2013813 0.6249282
vt 0.2013813 0.6473799
vt 0.2102923 0.6249282
vt 0.2102923 0.6473799
vt 0.2192034 0.6249282
vt 0.2192034 0.6473799
vt 0.1835592 0.6698315
vt 0.1924702 0.6698315
vt 0.1835592 0.692283
vt 0.1924702 0.692283
vt 0.2013813 0.6698315
vt 0.2013813 0.692283
vt 0.2102923 0.6698315
vt 0.2102923 0.692283
vt 0.2192034 0.6698315
vt 0.2192034 0.692283
vt 0.2013813 0.5126702
vt 0.1835592 0.5126702
vt 0.1835592 0.5575735
vt 0.2013813 0.5575735
vt 0.2192034 0.5126702
vt 0.2192034 0.5575735
vt 0.1835592 0.6024765
vt 0.2013813 0.6024765
vt 0.2192034 0.6024765
vt 0.1835592 0.6473799
vt 0.2013813 0.6473799
vt 0.2192034 0.6473799
vt 0.1835592 0.692283
vt 0.2013813 0.692283
vt 0.2192034 0.692283
vt 0.2013813 0.5126702
vt 0.1835592 0.5126702
vt 0.1835592 0.5575735
vt 0.2013813 0.5575735
vt 0.2192034 0.5126702
vt 0.2192034 0.5575735
vt 0.1835592 0.6024765
vt 0.2013813 0.6024765
vt 0.2192034 0.6024765
vt 0.1835592 0.6473799
vt 0.2013813 0.6473799
vt 0.2192034 0.6473799
vt 0.1835592 0.692283
vt 0.2013813 0.692283
vt 0.2192034 0.692283
vt 0.2013813 0.5126702
vt 0.1835592 0.5126702
vt 0.1835592 0.5575735
vt 0.2013813 0.5575735
vt 0.2192034 0.5126702
vt 0.2192034 0.5575735
vt 0.1835592 0.6024765
vt 0.2013813 0.6024765
vt 0.2192034 0.6024765
vt 0.1835592 0.6473799
vt 0.2013813 0.6473799
vt 0.2192034 0.6473799
vt 0.1835592 0.692283
vt 0.2013813 0.692283
vt 0.2192034 0.692283
vt 0.2013813 0.5126702
vt 0.1835592 0.5126702
vt 0.1835592 0.5575735
vt 0.2013813 0.5575735
vt 0.2192034 0.5126702
vt 0.2192034 0.5575735
vt 0.1835592 0.6024765
vt 0.2013813 0.6024765
vt 0.2192034 0.6024765
vt 0.1835592 0.6473799
vt 0.2013813 0.6473799
vt 0.2192034 0.6473799
vt 0.1835592 0.692283
vt 0.2013813 0.692283
vt 0.2192034 0.692283
vn 0.9642539 0.2235374 -0.1422864
vn 0.8434297 0.2134176 -0.4930309
vn 0.642707 0.2178053 -0.7344989
vn 0.9249545 0.3148618 -0.2128881
vn 0.2638204 0.2189967 -0.9393824
vn 0.7479616 0.5291799 -0.4006523
vn 0.03926241 0.2756784 -0.9604478
vn 0.4933183 0.6886134 -0.5314591
vn -0.0671175 0.3137491 -0.9471309
vn 0.9522787 0.2028711 0.2280541
vn 0.9249545 0.3148618 -0.2128881
vn 0.9249545 0.3148618 -0.2128881
vn 0.8813473 0.3009623 0.3642098
vn 0.7479616 0.5291799 -0.4006523
vn 0.7662288 0.5096061 0.3914012
vn 0.4933183 0.6886134 -0.5314591
vn 0.6707024 0.7144951 0.1991358
vn 0.3546957 0.7462406 -0.563308
vn 0.4933183 0.6886134 -0.5314591
vn 0.3546957 0.7462406 -0.563308
vn 0.5948 0.7964366 0.1090947
vn -0.5776274 0.3239548 0.7492661
vn -0.2537543 0.3077107 0.9170185
vn 0.0457501 0.3149375 0.9480092
vn -0.4815244 0.4414265 0.7571504
vn 0.443693 0.3188154 0.8375521
vn -0.1889316 0.6691732 0.7186877
vn 0.6050793 0.3946674 0.6914599
vn -0.8245037 0.2970163 0.4816378
vn -0.4815244 0.4414265 0.7571504
vn -0.4815244 0.4414265 0.7571504
vn -0.8424259 0.424775 0.331489
vn -0.1889316 0.6691732 0.7186877
vn -0.7231779 0.6583942 0.2086402
vn 0.07302178 0.7926434 0.6052967
vn -0.1889316 0.6691732 0.7186877
vn -0.4927025 0.8345221 0.2466113
vn 0.6620363 0.4445165 0.6034178
vn 0.1764217 0.8308327 0.5278185
vn -0.3781344 0.8924786 0.24596
vn -0.5763192 -0.08793564 -0.8124799
vn -0.5838737 -0.00436384 -0.8118328
vn -0.2128133 -0.02850204 -0.9766771
vn -0.1982305 -0.1920713 -0.961152
vn -0.3513061 0.2374112 -0.9056599
vn -0.6915333 0.139954 -0.7086568
vn 0.5442328 -0.2832293 -0.7896784
vn 0.5053648 -0.04850282 -0.8615417
vn 0.9262075 -0.03730751 -0.3751638
vn 0.9299555 -0.2187555 -0.2955143
vn 0.8900557 0.2373358 -0.3891948
vn 0.3712663 0.3152779 -0.873362
vn 0.9874442 -0.1542352 -0.0341409
vn 0.9973474 -0.02744521 -0.06741676
vn 0.9902152 0.1380268 -0.02055545
vn -0.7977281 0.1982971 -0.5694805
vn -0.4888016 0.3624911 -0.7935195
vn -0.8280907 0.1991407 -0.5240313
vn -0.524668 0.4186513 -0.741252
vn 0.283818 0.5008416 -0.8176827
vn 0.2611292 0.6057504 -0.7515837
vn 0.8860859 0.3521582 -0.3013907
vn 0.8816174 0.4064325 -0.2399238
vn 0.9808666 0.1737076 0.08789994
vn 0.9757529 0.1703049 0.1374865
vn -0.8485224 0.2005301 -0.4896911
vn -0.5600197 0.4698515 -0.6823617
vn -0.8565279 0.2019058 -0.4749674
vn -0.5771847 0.4938958 -0.6503266
vn 0.2325458 0.7064474 -0.6684717
vn 0.2159152 0.7541685 -0.6201697
vn 0.872687 0.4561515 -0.1741935
vn 0.8662838 0.4795964 -0.1397843
vn 0.9707202 0.1686202 0.1710829
vn 0.9682597 0.1687641 0.1843687
vn -0.5377892 0.2454553 -0.8065572
vn -0.7955972 0.2552449 -0.5494316
vn -0.8868117 0.2563779 -0.3844936
vn -0.5350658 0.2703239 -0.8003934
vn -0.2086301 0.2031 -0.9566733
vn -0.02485257 0.204086 -0.9786375
vn -0.9311427 0.316356 -0.1813617
vn -0.508527 0.3948145 -0.7651941
vn 0.1813809 0.2657505 -0.946825
vn -0.879056 0.4604152 -0.123606
vn -0.4406025 0.5870137 -0.6791792
vn 0.2256117 0.410167 -0.8836642
vn -0.8403106 0.5345191 -0.09037338
vn -0.3948919 0.6790522 -0.6188283
vn 0.2474009 0.4850423 -0.838765
vn -0.8617192 -0.2998252 -0.4093224
vn -0.9677882 -0.242952 -0.06603243
vn -0.9746603 -0.1916122 0.1154213
vn -0.8684586 -0.2767135 -0.4113504
vn -0.6416162 -0.3170215 -0.6984454
vn -0.50569 -0.2799491 -0.8160307
vn -0.9553685 -0.06490059 0.2881997
vn -0.890501 -0.1564108 -0.4272513
vn -0.3586247 -0.165892 -0.918623
vn -0.9579287 0.08811739 0.2731447
vn -0.8944085 0.05093192 -0.4443415
vn -0.3655939 -0.01275042 -0.9306871
vn -0.9496596 0.171644 0.2620785
vn -0.8802556 0.1631368 -0.4455743
vn -0.3657402 0.07213752 -0.9279172
vn -0.992743 0.0502833 0.1092378
vn -0.882427 0.05038746 0.4677431
vn -0.7744911 0.05923342 0.6298055
vn -0.9910095 0.07405739 0.1114254
vn -0.9633843 0.04310449 -0.2646369
vn -0.8947532 0.06550891 -0.4417298
vn -0.6231072 0.1198647 0.7728971
vn -0.9768764 0.180699 0.1142816
vn -0.7810274 0.139867 -0.6086324
vn -0.5844692 0.2398314 0.7751623
vn -0.9299556 0.3501744 0.1120733
vn -0.7442215 0.2604862 -0.6150457
vn -0.5589417 0.3049613 0.771092
vn -0.8912537 0.4401273 0.1093383
vn -0.7185645 0.3259088 -0.6143685
vn 0.1017478 0.06273512 0.9928302
vn 0.4184904 0.06224927 0.9060854
vn 0.5661891 0.07825482 0.8205523
vn 0.1038049 0.09344218 0.9901985
vn -0.2259683 0.05645493 0.9724974
vn -0.3835617 0.08594991 0.919507
vn 0.7003321 0.1646441 0.6945699
vn 0.1059684 0.2234969 0.9689271
vn -0.534174 0.1857982 0.8247042
vn 0.693284 0.3220117 0.6447213
vn 0.1021829 0.4222317 0.9007103
vn -0.5323436 0.3430137 0.7739199
vn 0.68133 0.4049562 0.609754
vn 0.09823939 0.5224086 0.8470172
vn -0.5251376 0.4256298 0.7369327
g Cattail05_VGradient_0
f 3/3/3 2/2/2 1/1/1
f 4/4/4 3/3/3 1/1/1
f 5/5/5 3/3/3 4/4/4
f 6/6/6 5/5/5 4/4/4
f 7/7/7 5/5/5 6/6/6
f 8/8/8 7/7/7 6/6/6
f 9/9/9 7/7/7 8/8/8
f 11/11/11 1/1/1 10/10/10
f 13/13/13 12/12/12 10/10/10
f 14/14/14 12/12/12 13/13/13
f 15/15/15 14/14/14 13/13/13
f 16/16/16 14/14/14 15/15/15
f 17/17/17 8/8/8 15/15/15
f 18/18/18 8/8/8 17/17/17
f 20/20/20 9/9/9 19/19/19
f 21/21/21 20/20/20 17/17/17
f 24/24/24 23/23/23 22/22/22
f 25/25/25 24/24/24 22/22/22
f 26/26/26 24/24/24 25/25/25
f 27/27/27 26/26/26 25/25/25
f 28/28/28 26/26/26 27/27/27
f 30/30/30 22/22/22 29/29/29
f 32/32/32 31/31/31 29/29/29
f 33/33/33 31/31/31 32/32/32
f 34/34/34 27/27/27 32/32/32
f 35/35/35 27/27/27 34/34/34
f 35/35/35 28/28/28 36/36/36
f 37/37/37 35/35/35 34/34/34
f 38/38/38 28/28/28 35/35/35
f 39/39/39 38/38/38 35/35/35
f 39/39/39 35/35/35 37/37/37
f 40/40/40 39/39/39 37/37/37
f 43/43/43 42/42/42 41/41/41
f 44/44/44 43/43/43 41/41/41
f 43/43/43 45/45/45 42/42/42
f 45/45/45 46/46/46 42/42/42
f 44/44/44 47/47/47 43/43/43
f 47/47/47 48/48/48 43/43/43
f 48/48/48 47/47/47 49/49/49
f 47/47/47 50/50/50 49/49/49
f 49/49/49 51/51/51 48/48/48
f 51/51/51 52/52/52 48/48/48
f 52/52/52 45/45/45 43/43/43
f 48/48/48 52/52/52 43/43/43
f 50/50/50 53/53/53 49/49/49
f 53/53/53 54/54/54 49/49/49
f 55/55/55 51/51/51 49/49/49
f 54/54/54 55/55/55 49/49/49
f 46/46/46 45/45/45 56/56/56
f 45/45/45 57/57/57 56/56/56
f 45/45/45 52/52/52 57/57/57
f 56/56/56 57/57/57 58/58/58
f 57/57/57 59/59/59 58/58/58
f 57/57/57 60/60/60 59/59/59
f 52/52/52 51/51/51 60/60/60
f 52/52/52 60/60/60 57/57/57
f 60/60/60 61/61/61 59/59/59
f 60/60/60 62/62/62 61/61/61
f 51/51/51 62/62/62 60/60/60
f 51/51/51 55/55/55 62/62/62
f 62/62/62 63/63/63 61/61/61
f 62/62/62 64/64/64 63/63/63
f 55/55/55 64/64/64 62/62/62
f 64/64/64 65/65/65 63/63/63
f 58/58/58 59/59/59 66/66/66
f 59/59/59 67/67/67 66/66/66
f 59/59/59 61/61/61 67/67/67
f 66/66/66 67/67/67 68/68/68
f 67/67/67 69/69/69 68/68/68
f 67/67/67 70/70/70 69/69/69
f 61/61/61 63/63/63 70/70/70
f 61/61/61 70/70/70 67/67/67
f 70/70/70 71/71/71 69/69/69
f 70/70/70 72/72/72 71/71/71
f 63/63/63 72/72/72 70/70/70
f 63/63/63 65/65/65 72/72/72
f 72/72/72 73/73/73 71/71/71
f 72/72/72 74/74/74 73/73/73
f 65/65/65 74/74/74 72/72/72
f 74/74/74 75/75/75 73/73/73
f 78/78/78 77/77/77 76/76/76
f 79/79/79 78/78/78 76/76/76
f 79/79/79 76/76/76 80/80/80
f 81/81/81 79/79/79 80/80/80
f 82/82/82 78/78/78 79/79/79
f 83/83/83 82/82/82 79/79/79
f 83/83/83 79/79/79 81/81/81
f 84/84/84 83/83/83 81/81/81
f 85/85/85 82/82/82 83/83/83
f 86/86/86 85/85/85 83/83/83
f 86/86/86 83/83/83 84/84/84
f 87/87/87 86/86/86 84/84/84
f 88/88/88 85/85/85 86/86/86
f 89/89/89 88/88/88 86/86/86
f 89/89/89 86/86/86 87/87/87
f 90/90/90 89/89/89 87/87/87
f 93/93/93 92/92/92 91/91/91
f 94/94/94 93/93/93 91/91/91
f 94/94/94 91/91/91 95/95/95
f 96/96/96 94/94/94 95/95/95
f 97/97/97 93/93/93 94/94/94
f 98/98/98 97/97/97 94/94/94
f 98/98/98 94/94/94 96/96/96
f 99/99/99 98/98/98 96/96/96
f 100/100/100 97/97/97 98/98/98
f 101/101/101 100/100/100 98/98/98
f 101/101/101 98/98/98 99/99/99
f 102/102/102 101/101/101 99/99/99
f 103/103/103 100/100/100 101/101/101
f 104/104/104 103/103/103 101/101/101
f 104/104/104 101/101/101 102/102/102
f 105/105/105 104/104/104 102/102/102
f 108/108/108 107/107/107 106/106/106
f 109/109/109 108/108/108 106/106/106
f 109/109/109 106/106/106 110/110/110
f 111/111/111 109/109/109 110/110/110
f 112/112/112 108/108/108 109/109/109
f 113/113/113 112/112/112 109/109/109
f 113/113/113 109/109/109 111/111/111
f 114/114/114 113/113/113 111/111/111
f 115/115/115 112/112/112 113/113/113
f 116/116/116 115/115/115 113/113/113
f 116/116/116 113/113/113 114/114/114
f 117/117/117 116/116/116 114/114/114
f 118/118/118 115/115/115 116/116/116
f 119/119/119 118/118/118 116/116/116
f 119/119/119 116/116/116 117/117/117
f 120/120/120 119/119/119 117/117/117
f 123/123/123 122/122/122 121/121/121
f 124/124/124 123/123/123 121/121/121
f 124/124/124 121/121/121 125/125/125
f 126/126/126 124/124/124 125/125/125
f 127/127/127 123/123/123 124/124/124
f 128/128/128 127/127/127 124/124/124
f 128/128/128 124/124/124 126/126/126
f 129/129/129 128/128/128 126/126/126
f 130/130/130 127/127/127 128/128/128
f 131/131/131 130/130/130 128/128/128
f 131/131/131 128/128/128 129/129/129
f 132/132/132 131/131/131 129/129/129
f 133/133/133 130/130/130 131/131/131
f 134/134/134 133/133/133 131/131/131
f 134/134/134 131/131/131 132/132/132
f 135/135/135 134/134/134 132/132/132
