g Daisy05_VGradient
v 0.1099247 -0.02660404 -0.2516838
v 0.3233067 0.1449239 -0.5014897
v 0.3676843 0.1449239 -0.06653816
v 0.1312759 -0.02660404 -0.04241768
v 0.4120619 0.1449239 0.3684134
v 0.1526271 -0.02660404 0.1668484
v 0.6461892 0.2232986 -0.0949537
v 0.5960869 0.2232986 -0.586014
v 0.6962916 0.2232986 0.3961066
v 0.8901396 0.2005697 -0.559323
v 0.9345172 0.2005697 -0.1243715
v 0.9788948 0.2005697 0.3105801
v 1.176112 0.07951231 -0.3604656
v 1.266315 0.02605331 -0.1582244
v 1.218814 0.07951231 0.0580666
v 0.1312759 -0.02660404 -0.04241768
v 0.3290045 -0.02660404 -0.1141922
v 0.6382682 0.1449239 0.07292612
v -0.0664527 -0.02660404 0.0293568
v -0.1836744 0.1449239 0.3712871
v 0.2272969 0.1449239 0.2221066
v 0.8044026 0.2232986 0.3653091
v 0.340416 0.2232986 0.533734
v -0.1235706 0.2232986 0.7021587
v 0.8684963 0.2005697 0.7071721
v 0.457525 0.2005697 0.8563526
v 0.04655368 0.2005697 1.005533
v 0.7620531 0.07951231 1.078796
v 0.3665959 0.07951231 1.222345
v 0.59229 0.02605331 1.227611
v 0.6382682 0.1449239 0.07292612
v 0.2272969 0.1449239 0.2221066
v -0.1836744 0.1449239 0.3712871
v -0.127343 0.1798943 -0.2954163
v 0.3381318 0.1798943 -0.5411265
v 0.230159 -0.02660404 -0.160635
v -0.5928177 0.1798943 -0.0497061
v 0.006207435 -0.02660404 -0.04241768
v -0.2177442 -0.02660404 0.07579967
v -0.8101953 0.2742478 -0.3160588
v -0.2846743 0.2742478 -0.5934656
v 0.2408468 0.2742478 -0.8708724
v -0.9130296 0.2468849 -0.6563171
v -0.4475548 0.2468849 -0.9020273
v 0.01792001 0.2468849 -1.147738
v -0.820048 0.1011469 -1.065208
v -0.6349921 0.03678888 -1.25711
v -0.3721448 0.1011469 -1.301643
v -0.2857285 0.1798943 0.09278902
v -0.4699379 0.1798943 -0.3049527
v -0.08242031 -0.02660404 -0.2337812
v 0.006207435 -0.02660404 -0.04241768
v 0.09483518 -0.02660404 0.1489458
v -0.1015192 0.1798943 0.4905307
v -0.837621 0.2742478 -0.1969788
v -0.6296487 0.2742478 0.2520716
v -0.4216763 0.2742478 0.7011219
v -1.169909 0.2468849 0.0192304
v -0.9856991 0.2468849 0.4169721
v -0.8014898 0.2468849 0.8147138
v -1.399033 0.1011469 0.3759924
v -1.39543 0.03678888 0.6067341
v -1.221778 0.1011469 0.7587195
v 0.01991263 0.003407808 -0.03662384
v 0.09016226 0.3434593 -0.2216121
v 0.108895 0.254658 -0.2773808
v 0.0595503 -0.01861766 -0.04377985
v 0.1697058 0.4482852 -0.6024439
v 0.2056506 0.6241063 -0.5540887
v 0.2468243 0.452951 -0.9779996
v 0.2705499 0.6609293 -1.012946
v 0.2037552 0.2070707 -0.2727761
v 0.1036444 -0.02660404 -0.03380986
v 0.2817135 0.2469343 -0.2127077
v 0.141519 -0.01861768 -0.009127761
v 0.4606054 0.4223947 -0.5075756
v 0.3143294 0.3359957 -0.5749283
v 0.5933749 0.4110064 -0.8770346
v 0.4083271 0.3311153 -0.9082131
v 0.4853299 0.1292431 -1.30011
v 0.6807207 0.257609 -1.227783
v 0.294162 0.310962 -1.333276
v 0.267262 0.335081 -0.1558397
v 0.164004 0.003407773 0.02429048
v 0.4350849 0.6008693 -0.4823237
v 0.6265575 0.6104397 -0.91726
v 0.003411581 -0.001247387 0.01329549
v 0.003367184 0.2834119 0.139068
v -0.03762525 0.2236247 0.1820162
v -0.03207425 -0.008931895 0.01385333
v -0.08123828 0.4040047 0.4216944
v -0.0626134 0.5420633 0.3747258
v -0.1857684 0.4477911 0.7030095
v -0.1614335 0.6128229 0.7217825
v -0.1186315 0.2077551 0.1663168
v -0.06556752 -0.006082509 0.0001169435
v -0.1603555 0.2510638 0.1076832
v -0.08895894 0.006610883 -0.02458784
v -0.2924949 0.4412967 0.3077768
v -0.2110177 0.3483902 0.3827851
v -0.4414608 0.484556 0.5769491
v -0.3249166 0.3859324 0.6290789
v -0.4776582 0.2741026 0.928188
v -0.5858434 0.4091368 0.8414032
v -0.2982537 0.3726588 0.9763091
v -0.1225713 0.311211 0.06329615
v -0.09658504 0.02607499 -0.05427956
v -0.2302532 0.5695316 0.2873271
v -0.4267841 0.6454839 0.5987151
v 0.1999559 0.1908552 -0.03537055
v 0.1546743 0.5839707 -0.04373635
v 0.2924967 0.3428482 0.1911062
v 0.1503584 0.1594208 0.07516515
v 0.08147797 0.2814753 0.5245691
v 0.1007609 0.1279864 0.1857009
v 0.006207435 -0.02660404 -0.04241768
v -0.07290678 -0.02660404 0.05457259
v 0.08532166 -0.02660403 -0.139408
v 0.1765838 0.7154793 0.01154328
v 0.3635658 0.4345619 0.2490768
v 0.1926756 0.8441523 0.07844102
v 0.434635 0.5262756 0.3070473
v 0.2017068 0.3333943 0.5852306
v 0.3277532 0.3881487 0.6342739
v 0.2185198 0.9399029 0.1854685
v 0.5057041 0.6179894 0.3650179
v 0.2536977 1.026619 0.2953465
v 0.5767732 0.7097031 0.4229884
v 0.7614694 0.9480509 0.5736437
v 0.4392998 1.090459 0.5471991
v 0.4440473 0.4758255 0.6431875
v 0.5510077 0.5725367 0.6492507
v 0.6496821 0.8755515 0.6292803
v 0.5767732 0.7097031 0.4229884
v 0.7614694 0.9480509 0.5736437
v -0.2397372 0.1702711 0.1095117
v -0.4269618 0.2916756 0.3373673
v -0.4131267 0.2852239 0.05346784
v -0.2360726 0.2058931 0.02525484
v -0.6088682 0.2957239 0.04957635
v -0.6239097 0.2900797 0.3615238
v -0.7921947 0.2351119 0.0155516
v -0.8060298 0.2415636 0.2994511
v -0.9646612 0.06721803 -0.06427173
v -0.408257 0.4792072 -0.0974851
v -0.2324079 0.241515 -0.05900197
v -0.1097615 0.100517 -0.02302253
v -0.1053716 0.1271674 -0.1104985
v -0.602792 0.501803 -0.1294246
v -0.787325 0.4290952 -0.1354013
v -0.9339067 0.258367 -0.08132616
v -0.1141513 0.07386661 0.06445348
v 0.01047319 0.009712524 -0.1361711
v 0.005459756 -0.008445757 -0.04657924
v 0.0004463269 -0.02660404 0.04301265
v -0.942906 0.1681409 0.1278922
v -0.9646612 0.06721803 -0.06427173
vt 0.8024216 0.8081224
vt 0.7832856 0.8376523
vt 0.8201656 0.8376523
vt 0.8201656 0.8081224
vt 0.8570455 0.8376523
vt 0.8379093 0.8081224
vt 0.8201656 0.8671821
vt 0.778528 0.8671821
vt 0.861803 0.8671821
vt 0.7832856 0.896712
vt 0.8201656 0.896712
vt 0.8570455 0.896712
vt 0.8024216 0.9262419
vt 0.8201656 0.9350835
vt 0.8379093 0.9262419
vt 0.8201656 0.8081224
vt 0.8024216 0.8081224
vt 0.7832856 0.8376523
vt 0.8379093 0.8081224
vt 0.8570455 0.8376523
vt 0.8201656 0.8376523
vt 0.778528 0.8671821
vt 0.8201656 0.8671821
vt 0.861803 0.8671821
vt 0.7832856 0.896712
vt 0.8201656 0.896712
vt 0.8570455 0.896712
vt 0.8024216 0.9262419
vt 0.8379093 0.9262419
vt 0.8201656 0.9350835
vt 0.7832856 0.8376523
vt 0.8201656 0.8376523
vt 0.8570455 0.8376523
vt 0.8201656 0.8376523
vt 0.8570455 0.8376523
vt 0.8379093 0.8081224
vt 0.7832856 0.8376523
vt 0.8201656 0.8081224
vt 0.8024216 0.8081224
vt 0.778528 0.8671821
vt 0.8201656 0.8671821
vt 0.861803 0.8671821
vt 0.7832856 0.896712
vt 0.8201656 0.896712
vt 0.8570455 0.896712
vt 0.8024216 0.9262419
vt 0.8201656 0.9350835
vt 0.8379093 0.9262419
vt 0.8201656 0.8376523
vt 0.8570455 0.8376523
vt 0.8379093 0.8081224
vt 0.8201656 0.8081224
vt 0.8024216 0.8081224
vt 0.7832856 0.8376523
vt 0.861803 0.8671821
vt 0.8201656 0.8671821
vt 0.778528 0.8671821
vt 0.8570455 0.896712
vt 0.8201656 0.896712
vt 0.7832856 0.896712
vt 0.8379093 0.9262419
vt 0.8201656 0.9350835
vt 0.8024216 0.9262419
vt 0.8024216 0.8081224
vt 0.7832856 0.8376523
vt 0.8017255 0.8376523
vt 0.8112936 0.8081224
vt 0.7993468 0.8671821
vt 0.778528 0.8671821
vt 0.8017255 0.896712
vt 0.7832856 0.896712
vt 0.8201656 0.8376523
vt 0.8201656 0.8081224
vt 0.8386055 0.8376523
vt 0.8290374 0.8081224
vt 0.8409842 0.8671821
vt 0.8201656 0.8671821
vt 0.8386055 0.896712
vt 0.8201656 0.896712
vt 0.8201656 0.9350835
vt 0.8379093 0.9262419
vt 0.8024216 0.9262419
vt 0.8570455 0.8376523
vt 0.8379093 0.8081224
vt 0.861803 0.8671821
vt 0.8570455 0.896712
vt 0.8024216 0.8081224
vt 0.7832856 0.8376523
vt 0.8017255 0.8376523
vt 0.8112936 0.8081224
vt 0.7993468 0.8671821
vt 0.778528 0.8671821
vt 0.8017255 0.896712
vt 0.7832856 0.896712
vt 0.8201656 0.8376523
vt 0.8201656 0.8081224
vt 0.8386055 0.8376523
vt 0.8290374 0.8081224
vt 0.8409842 0.8671821
vt 0.8201656 0.8671821
vt 0.8386055 0.896712
vt 0.8201656 0.896712
vt 0.8201656 0.9350835
vt 0.8379093 0.9262419
vt 0.8024216 0.9262419
vt 0.8570455 0.8376523
vt 0.8379093 0.8081224
vt 0.861803 0.8671821
vt 0.8570455 0.896712
vt 0.8059171 0.8081224
vt 0.7832856 0.8376523
vt 0.8201656 0.8376523
vt 0.8201656 0.8081224
vt 0.8570455 0.8376523
vt 0.8344138 0.8081224
vt 0.8201656 0.7781744
vt 0.8344138 0.7781744
vt 0.8059171 0.7781744
vt 0.7809067 0.8524173
vt 0.8201656 0.8524173
vt 0.778528 0.8671821
vt 0.8201656 0.8671821
vt 0.8594243 0.8524173
vt 0.861803 0.8671821
vt 0.7809067 0.8819472
vt 0.8201656 0.8819472
vt 0.7832856 0.896712
vt 0.8201656 0.896712
vt 0.8201656 0.9350835
vt 0.8024216 0.9262419
vt 0.8594243 0.8819472
vt 0.8570455 0.896712
vt 0.8379093 0.9262419
vt 0.8201656 0.896712
vt 0.8201656 0.9350835
vt 0.8059171 0.8081224
vt 0.7832856 0.8376523
vt 0.8201656 0.8376523
vt 0.8201656 0.8081224
vt 0.8201656 0.8671821
vt 0.778528 0.8671821
vt 0.8201656 0.896712
vt 0.7832856 0.896712
vt 0.8201656 0.9350835
vt 0.8570455 0.8376523
vt 0.8344138 0.8081224
vt 0.8201656 0.7818134
vt 0.8344138 0.7818134
vt 0.861803 0.8671821
vt 0.8570455 0.896712
vt 0.8379093 0.9262419
vt 0.8059171 0.7818134
vt 0.8344138 0.7568017
vt 0.8201656 0.7568017
vt 0.8059171 0.7568017
vt 0.8024216 0.9262419
vt 0.8201656 0.9350835
vn -0.5822483 0.8108377 0.05940609
vn -0.431906 0.9008415 0.04406685
vn -0.431906 0.9008415 0.04406687
vn -0.5822483 0.8108377 0.05940612
vn -0.431906 0.9008415 0.04406689
vn -0.5822483 0.8108377 0.05940615
vn -0.09669825 0.9952648 0.009866009
vn -0.09669825 0.9952648 0.009866004
vn -0.09669825 0.9952648 0.009866016
vn 0.249864 0.9679453 -0.02549335
vn 0.2938961 0.9553668 -0.02998591
vn 0.249864 0.9679453 -0.02549334
vn 0.437896 0.8979148 -0.04467807
vn 0.4612269 0.8860334 -0.04705853
vn 0.437896 0.8979148 -0.04467807
vn -0.1775874 0.8538841 -0.4892284
vn -0.1775874 0.8538841 -0.4892284
vn -0.1296516 0.9249967 -0.3571718
vn -0.1775875 0.8538841 -0.4892285
vn -0.1296516 0.9249967 -0.3571719
vn -0.1296516 0.9249967 -0.3571718
vn -0.02829124 0.9965568 -0.07793836
vn -0.02829123 0.9965568 -0.07793836
vn -0.02829123 0.9965568 -0.07793837
vn 0.07365782 0.9764216 0.202917
vn 0.08690111 0.9670241 0.2394003
vn 0.07365785 0.9764216 0.202917
vn 0.1305293 0.9239357 0.3595898
vn 0.1305293 0.9239357 0.3595898
vn 0.1379039 0.9146879 0.3799059
vn -0.1296516 0.9249967 -0.3571718
vn -0.1296516 0.9249967 -0.3571718
vn -0.1296516 0.9249967 -0.3571719
vn 0.2026701 0.9008415 0.3839394
vn 0.2026702 0.9008415 0.3839394
vn 0.2732177 0.8108377 0.517585
vn 0.2026701 0.9008415 0.3839394
vn 0.2732176 0.8108377 0.517585
vn 0.2732176 0.8108377 0.517585
vn 0.04537525 0.9952648 0.08595913
vn 0.04537525 0.9952648 0.08595912
vn 0.04537524 0.9952648 0.08595912
vn -0.1172476 0.9679453 -0.2221146
vn -0.1379096 0.9553668 -0.2612566
vn -0.1172476 0.9679453 -0.2221146
vn -0.2054809 0.8979148 -0.3892642
vn -0.2164289 0.8860334 -0.4100041
vn -0.2054809 0.8979148 -0.3892642
vn 0.359455 0.9181924 -0.1664773
vn 0.359455 0.9181924 -0.1664773
vn 0.4901403 0.8415654 -0.2270027
vn 0.4901403 0.8415654 -0.2270027
vn 0.4901403 0.8415654 -0.2270027
vn 0.359455 0.9181924 -0.1664773
vn 0.07900862 0.9962021 -0.0365919
vn 0.07900861 0.9962021 -0.0365919
vn 0.07900862 0.9962021 -0.0365919
vn -0.2052694 0.9740772 0.0950681
vn -0.2419715 0.9637898 0.1120662
vn -0.2052694 0.9740772 0.0950681
vn -0.3626378 0.9166713 0.1679514
vn -0.3827967 0.9066619 0.1772878
vn -0.3626378 0.9166713 0.1679514
vn 0.7480526 0.2405356 0.6185142
vn 0.9026784 0.06781958 0.4249379
vn 0.6591189 0.4471673 0.6046518
vn 0.4669864 0.4814512 0.7417064
vn 0.8742679 0.384485 0.2963563
vn 0.9753649 -0.1328485 0.1761099
vn 0.8899826 0.455932 0.007546769
vn 0.9794912 -0.1195497 0.1621871
vn -0.1647168 0.8302255 0.5325356
vn -0.2420909 0.7200274 0.6503479
vn -0.8378926 0.545761 0.008984714
vn -0.8071604 0.5591452 0.1893377
vn -0.8177588 0.5194229 -0.2479327
vn 0.01009936 0.9810271 0.193607
vn -0.6818649 0.6113856 -0.4015814
vn 0.1577648 0.9629979 -0.218507
vn 0.2034695 0.894786 -0.3974396
vn -0.7487016 0.5184012 -0.413166
vn 0.9393951 0.3426344 -0.01177
vn -0.9330031 0.2026363 -0.2973947
vn -0.9315473 0.3481518 -0.1049278
vn -0.9065927 0.0187711 -0.4215889
vn -0.9440767 0.04710426 -0.3263443
vn -0.5395215 0.385922 -0.7483187
vn -0.7657897 0.2779663 -0.5799145
vn -0.3992179 0.5608077 -0.7253411
vn -0.1857592 0.5302913 -0.827215
vn -0.6700824 0.5839813 -0.4582089
vn -0.9313992 0.1252077 -0.3417873
vn -0.7112966 0.679692 -0.179097
vn -0.9337838 0.1401894 -0.3292337
vn 0.476455 0.7086199 -0.520431
vn 0.5374361 0.5724826 -0.6192141
vn 0.9480649 0.2935098 0.1225767
vn 0.9518726 0.300424 -0.06069496
vn 0.8801533 0.2941544 0.3725631
vn 0.2991756 0.9278607 -0.2226394
vn 0.7529051 0.4316466 0.496805
vn 0.08800931 0.98364 0.1571837
vn -0.00335056 0.9449401 0.327226
vn 0.7879287 0.3251613 0.5229135
vn -0.7931801 0.5861149 -0.1653314
vn 0.8915317 -0.03710246 0.4514362
vn 0.9623506 0.08751855 0.2573363
vn 0.794525 -0.1962911 0.5746301
vn 0.8533378 -0.1869323 0.4866937
vn -0.9219439 0.3689354 -0.1179239
vn -0.9278324 0.04688779 0.3700385
vn -0.8873197 0.4487571 0.1062107
vn -0.8079957 0.5572895 -0.1912367
vn -0.6493486 0.7401432 -0.1747408
vn -0.6648949 0.7040119 -0.2495638
vn -0.6530575 0.6954857 -0.2996925
vn -0.6034529 0.7532289 -0.2617076
vn -0.6979355 0.6327086 -0.3355083
vn -0.7848904 0.002272492 0.6196305
vn -0.8121206 0.4722783 0.3426563
vn -0.7505494 -0.1108197 0.6514557
vn -0.8288091 0.3630982 0.425717
vn -0.5963789 0.8018327 -0.03737153
vn -0.6733847 0.7349792 0.07974148
vn -0.6903655 -0.223814 0.6879702
vn -0.8298139 0.2494278 0.4991939
vn -0.5622309 -0.3478588 0.7502604
vn -0.8955557 0.1037013 0.4326962
vn -0.9612654 -0.02848983 0.2741478
vn -0.4701486 -0.422529 0.7748739
vn -0.7378194 0.6528955 0.1713182
vn -0.8407463 0.5324724 -0.09807606
vn -0.8302616 0.3839876 -0.4040038
vn -0.8955557 0.1037013 0.4326962
vn -0.9612654 -0.02848983 0.2741478
vn 0.631726 0.7443565 0.2164617
vn 0.3261563 0.9421028 0.07787334
vn 0.3055895 0.8625596 0.4032444
vn 0.6196705 0.7193291 0.3139652
vn -0.1609595 0.8951569 0.4156757
vn -0.1327435 0.9911125 -0.008666444
vn -0.3978073 0.8081332 0.4343616
vn -0.4027305 0.9095106 -0.1029495
vn -0.4843548 0.7340059 0.4760627
vn 0.2513853 0.6883002 0.6804765
vn 0.6010422 0.6865686 0.4091112
vn 0.6847436 0.6862776 0.2452537
vn 0.6982342 0.6737028 0.2420609
vn -0.1586116 0.6296146 0.7605444
vn -0.2728928 0.4625057 0.8435745
vn -0.2375072 0.2981088 0.9245114
vn 0.6710124 0.6986125 0.2483606
vn 0.7065299 0.6760425 0.2092416
vn 0.6934995 0.6886358 0.2117525
vn 0.6802371 0.7009986 0.2141926
vn -0.5122516 0.8380984 -0.1875885
vn -0.4843548 0.7340059 0.4760627
g Daisy05_VGradient_0
f 3/3/3 2/2/2 1/1/1
f 1/1/1 4/4/4 3/3/3
f 4/4/4 5/5/5 3/3/3
f 4/4/4 6/6/6 5/5/5
f 2/2/2 3/3/3 7/7/7
f 7/7/7 8/8/8 2/2/2
f 3/3/3 9/9/9 7/7/7
f 3/3/3 5/5/5 9/9/9
f 10/10/10 8/8/8 7/7/7
f 7/7/7 11/11/11 10/10/10
f 7/7/7 12/12/12 11/11/11
f 7/7/7 9/9/9 12/12/12
f 13/13/13 10/10/10 11/11/11
f 11/11/11 14/14/14 13/13/13
f 11/11/11 15/15/15 14/14/14
f 11/11/11 12/12/12 15/15/15
f 18/18/18 17/17/17 16/16/16
f 16/16/16 19/19/19 18/18/18
f 19/19/19 20/20/20 18/18/18
f 22/22/22 18/18/18 21/21/21
f 21/21/21 20/20/20 22/22/22
f 20/20/20 23/23/23 22/22/22
f 20/20/20 24/24/24 23/23/23
f 25/25/25 22/22/22 23/23/23
f 23/23/23 24/24/24 25/25/25
f 24/24/24 26/26/26 25/25/25
f 24/24/24 27/27/27 26/26/26
f 28/28/28 25/25/25 26/26/26
f 26/26/26 27/27/27 28/28/28
f 27/27/27 29/29/29 28/28/28
f 29/29/29 30/30/30 28/28/28
f 33/33/33 32/32/32 31/31/31
f 36/36/36 35/35/35 34/34/34
f 34/34/34 37/37/37 36/36/36
f 37/37/37 38/38/38 36/36/36
f 37/37/37 39/39/39 38/38/38
f 40/40/40 34/34/34 35/35/35
f 40/40/40 37/37/37 34/34/34
f 41/41/41 40/40/40 35/35/35
f 35/35/35 42/42/42 41/41/41
f 43/43/43 41/41/41 42/42/42
f 43/43/43 40/40/40 41/41/41
f 44/44/44 43/43/43 42/42/42
f 42/42/42 45/45/45 44/44/44
f 46/46/46 44/44/44 45/45/45
f 46/46/46 43/43/43 44/44/44
f 47/47/47 46/46/46 45/45/45
f 45/45/45 48/48/48 47/47/47
f 51/51/51 50/50/50 49/49/49
f 49/49/49 52/52/52 51/51/51
f 49/49/49 53/53/53 52/52/52
f 49/49/49 54/54/54 53/53/53
f 49/49/49 50/50/50 55/55/55
f 55/55/55 56/56/56 49/49/49
f 56/56/56 54/54/54 49/49/49
f 56/56/56 57/57/57 54/54/54
f 56/56/56 55/55/55 58/58/58
f 58/58/58 59/59/59 56/56/56
f 59/59/59 57/57/57 56/56/56
f 59/59/59 60/60/60 57/57/57
f 59/59/59 58/58/58 61/61/61
f 61/61/61 62/62/62 59/59/59
f 62/62/62 60/60/60 59/59/59
f 62/62/62 63/63/63 60/60/60
f 66/66/66 65/65/65 64/64/64
f 67/67/67 66/66/66 64/64/64
f 66/66/66 68/68/68 65/65/65
f 68/68/68 69/69/69 65/65/65
f 68/68/68 70/70/70 69/69/69
f 70/70/70 71/71/71 69/69/69
f 72/72/72 66/66/66 67/67/67
f 73/73/73 72/72/72 67/67/67
f 74/74/74 72/72/72 73/73/73
f 75/75/75 74/74/74 73/73/73
f 74/74/74 76/76/76 72/72/72
f 76/76/76 77/77/77 72/72/72
f 77/77/77 68/68/68 66/66/66
f 72/72/72 77/77/77 66/66/66
f 76/76/76 78/78/78 77/77/77
f 78/78/78 79/79/79 77/77/77
f 79/79/79 70/70/70 68/68/68
f 77/77/77 79/79/79 68/68/68
f 79/79/79 80/80/80 70/70/70
f 79/79/79 78/78/78 80/80/80
f 81/81/81 80/80/80 78/78/78
f 70/70/70 82/82/82 71/71/71
f 82/82/82 70/70/70 80/80/80
f 83/83/83 74/74/74 75/75/75
f 84/84/84 83/83/83 75/75/75
f 85/85/85 76/76/76 74/74/74
f 83/83/83 85/85/85 74/74/74
f 86/86/86 78/78/78 76/76/76
f 85/85/85 86/86/86 76/76/76
f 86/86/86 81/81/81 78/78/78
f 89/89/89 88/88/88 87/87/87
f 90/90/90 89/89/89 87/87/87
f 89/89/89 91/91/91 88/88/88
f 91/91/91 92/92/92 88/88/88
f 91/91/91 93/93/93 92/92/92
f 93/93/93 94/94/94 92/92/92
f 95/95/95 89/89/89 90/90/90
f 96/96/96 95/95/95 90/90/90
f 97/97/97 95/95/95 96/96/96
f 98/98/98 97/97/97 96/96/96
f 97/97/97 99/99/99 95/95/95
f 99/99/99 100/100/100 95/95/95
f 100/100/100 91/91/91 89/89/89
f 95/95/95 100/100/100 89/89/89
f 99/99/99 101/101/101 100/100/100
f 101/101/101 102/102/102 100/100/100
f 102/102/102 93/93/93 91/91/91
f 100/100/100 102/102/102 91/91/91
f 102/102/102 103/103/103 93/93/93
f 102/102/102 101/101/101 103/103/103
f 104/104/104 103/103/103 101/101/101
f 93/93/93 105/105/105 94/94/94
f 105/105/105 93/93/93 103/103/103
f 106/106/106 97/97/97 98/98/98
f 107/107/107 106/106/106 98/98/98
f 108/108/108 99/99/99 97/97/97
f 106/106/106 108/108/108 97/97/97
f 109/109/109 101/101/101 99/99/99
f 108/108/108 109/109/109 99/99/99
f 109/109/109 104/104/104 101/101/101
f 112/112/112 111/111/111 110/110/110
f 113/113/113 112/112/112 110/110/110
f 114/114/114 112/112/112 113/113/113
f 115/115/115 114/114/114 113/113/113
f 113/113/113 116/116/116 115/115/115
f 116/116/116 117/117/117 115/115/115
f 118/118/118 116/116/116 113/113/113
f 110/110/110 118/118/118 113/113/113
f 111/111/111 112/112/112 119/119/119
f 112/112/112 120/120/120 119/119/119
f 112/112/112 114/114/114 120/120/120
f 119/119/119 120/120/120 121/121/121
f 120/120/120 122/122/122 121/121/121
f 120/120/120 123/123/123 122/122/122
f 114/114/114 123/123/123 120/120/120
f 123/123/123 124/124/124 122/122/122
f 121/121/121 122/122/122 125/125/125
f 122/122/122 126/126/126 125/125/125
f 122/122/122 124/124/124 126/126/126
f 125/125/125 126/126/126 127/127/127
f 126/126/126 128/128/128 127/127/127
f 128/128/128 129/129/129 127/127/127
f 129/129/129 130/130/130 127/127/127
f 126/126/126 131/131/131 128/128/128
f 124/124/124 131/131/131 126/126/126
f 131/131/131 132/132/132 128/128/128
f 132/132/132 133/133/133 128/128/128
f 133/133/133 135/135/135 134/134/134
f 138/138/138 137/137/137 136/136/136
f 139/139/139 138/138/138 136/136/136
f 138/138/138 140/140/140 137/137/137
f 140/140/140 141/141/141 137/137/137
f 140/140/140 142/142/142 141/141/141
f 142/142/142 143/143/143 141/141/141
f 142/142/142 144/144/144 143/143/143
f 145/145/145 138/138/138 139/139/139
f 146/146/146 145/145/145 139/139/139
f 139/139/139 147/147/147 146/146/146
f 147/147/147 148/148/148 146/146/146
f 149/149/149 140/140/140 138/138/138
f 145/145/145 149/149/149 138/138/138
f 150/150/150 142/142/142 140/140/140
f 149/149/149 150/150/150 140/140/140
f 151/151/151 144/144/144 142/142/142
f 150/150/150 151/151/151 142/142/142
f 152/152/152 147/147/147 139/139/139
f 136/136/136 152/152/152 139/139/139
f 153/153/153 148/148/148 147/147/147
f 154/154/154 153/153/153 147/147/147
f 154/154/154 147/147/147 152/152/152
f 155/155/155 154/154/154 152/152/152
f 157/157/157 156/156/156 143/143/143
