g Dandylion02
v 0.0323924 0.4640751 -0.02263921
v 0.03272748 -0.04417992 -0.05887166
v 0.06831592 -0.04861953 -0.01222106
v 0.06434269 0.4542982 0.01899348
v 0.03711544 1.072571 0.0753865
v 0.03610505 -0.04841593 0.03669437
v 0.07271697 1.066268 0.108459
v 0.04835868 1.516955 0.01590758
v 0.03524508 0.4466285 0.06204187
v -0.02135319 -0.04378805 0.02170363
v -0.01556024 0.4514306 0.04832343
v -0.02370495 -0.04111451 -0.0383241
v 0.05220256 1.055188 0.152464
v 0.08283901 1.510249 0.04834761
v -0.0177487 0.4623891 -0.004771004
v 0.03272748 -0.04417992 -0.05887166
v 0.0323924 0.4640751 -0.02263921
v 0.002685087 1.054389 0.1474566
v -0.007056639 1.065305 0.0990108
v 0.03711544 1.072571 0.0753865
v 0.06304464 1.505874 0.09183278
v 0.1032606 1.758105 0.05343524
v 0.0685092 1.762253 0.02112762
v 0.01515109 1.509856 0.08704106
v 0.00584667 1.516827 0.03931338
v 0.04835868 1.516955 0.01590758
v 0.02661964 1.764603 0.04461094
v 0.0685092 1.762253 0.02112762
v 0.09227004 1.822508 -0.07451851
v -0.05048408 1.832603 0.005863911
v 0.0362087 1.761823 0.09184968
v -0.01745091 1.826579 0.1670244
v 0.08372013 1.757824 0.09679431
v 0.1447309 1.812887 0.1840631
v 0.2113525 1.810446 0.0358705
v 0.09227004 1.822508 -0.07451851
v 0.01305614 3.202063E-19 0.01009299
v -0.06936113 1.236829E-08 -0.3185863
v 0.2307443 0.5384579 -0.3938386
v 0.3131616 0.3090749 -0.06515929
v 0.09547341 -1.236829E-08 0.3387723
v 0.6222431 0.7368422 -0.492008
v 0.3955789 0.5384579 0.26352
v 0.7046604 0.5074592 -0.1633287
v 1.053507 0.6691519 -0.6001486
v 0.7870777 0.7368422 0.1653506
v 1.135924 0.4397689 -0.2714694
v 1.370004 0.3596422 -0.6795111
v 1.218341 0.6691519 0.05720998
v 1.452421 0.1302592 -0.3508318
v 1.534838 0.3596421 -0.02215248
v -0.02611228 3.8806E-18 -0.02018598
v -0.2355087 0.01939237 0.2316298
v -0.2004535 0.4845268 0.2653227
v -0.07176835 0.3375247 -0.04768472
v 0.1832841 -0.01939237 -0.2720018
v -0.3320805 0.810898 0.1748117
v 0.2183394 0.4457421 -0.2383089
v -0.2033954 0.6638959 -0.1381957
v -0.5777888 1.011187 -0.001247687
v 0.08671237 0.7721133 -0.3288199
v -0.4491037 0.8641853 -0.3142551
v -0.8495353 1.013627 -0.1997692
v -0.1589959 0.9724027 -0.5048794
v -0.7208502 0.8666244 -0.5127767
v -0.4307424 0.9748418 -0.7034009
v 0.4191801 1.827394 0.1593484
v 0.5035809 1.724928 -0.2343113
v 0.5666083 1.708425 0.2032738
v 0.3757807 1.838757 -0.1419638
v 0.1221324 1.745448 -0.4574736
v 0.2106405 1.827353 0.3814134
v 0.2637536 1.708366 0.5257711
v 0.0863075 1.891451 0.05571348
v 0.1131231 1.852887 -0.2956288
v -0.2904988 1.754533 -0.2981675
v -0.09280338 1.838666 0.3570118
v -0.1769274 1.724795 0.4903335
v -0.1710063 1.859143 -0.1859338
v -0.4235929 1.745341 0.1236464
v -0.2626522 1.852814 0.1045185
vt 0.8512245 0.09311008
vt 0.8512245 0.07280159
vt 0.8543342 0.07280159
vt 0.8543342 0.09311008
vt 0.8512245 0.1119168
vt 0.8574439 0.07280159
vt 0.8543342 0.1119168
vt 0.8512245 0.1203361
vt 0.8574439 0.09311008
vt 0.8605536 0.07280159
vt 0.8605536 0.09311008
vt 0.8636633 0.07280159
vt 0.8574439 0.1119168
vt 0.8543342 0.1203361
vt 0.8636633 0.09311008
vt 0.8667729 0.07280159
vt 0.8667729 0.09311008
vt 0.8605536 0.1119168
vt 0.8636633 0.1119168
vt 0.8667729 0.1119168
vt 0.8574439 0.1203361
vt 0.8543342 0.1304418
vt 0.8512245 0.1304418
vt 0.8605536 0.1203361
vt 0.8636633 0.1203361
vt 0.8667729 0.1203361
vt 0.8636633 0.1304418
vt 0.8667729 0.1304418
vt 0.8667729 0.1328969
vt 0.8636633 0.1328969
vt 0.8605536 0.1304418
vt 0.8605536 0.1328969
vt 0.8574439 0.1304418
vt 0.8574439 0.1328969
vt 0.8543342 0.1328969
vt 0.8512245 0.1328969
vt 0.2155074 0.1442451
vt 0.185588 0.1443769
vt 0.1861218 0.1912357
vt 0.2160412 0.1911041
vt 0.2454268 0.1441134
vt 0.1866555 0.2380943
vt 0.2459605 0.1909723
vt 0.2165749 0.2379627
vt 0.1871892 0.2849534
vt 0.2464942 0.2378309
vt 0.2171086 0.2848216
vt 0.1877229 0.3318119
vt 0.247028 0.2846899
vt 0.2176423 0.3316803
vt 0.2475617 0.3315487
vt 0.2155074 0.1442451
vt 0.185588 0.1443769
vt 0.1861218 0.1912357
vt 0.2160412 0.1911041
vt 0.2454268 0.1441134
vt 0.1866555 0.2380943
vt 0.2459605 0.1909723
vt 0.2165749 0.2379627
vt 0.1871892 0.2849534
vt 0.2464942 0.2378309
vt 0.2171086 0.2848216
vt 0.1877229 0.3318119
vt 0.247028 0.2846899
vt 0.2176423 0.3316803
vt 0.2475617 0.3315487
vt 0.3542687 0.1888967
vt 0.3254508 0.2273318
vt 0.3704219 0.1990306
vt 0.3233025 0.2083843
vt 0.2752852 0.2098173
vt 0.3583398 0.1525362
vt 0.3763342 0.1462256
vt 0.3185525 0.1664894
vt 0.2887594 0.1963242
vt 0.2577006 0.1596761
vt 0.3324504 0.1266828
vt 0.3387358 0.1086795
vt 0.2766512 0.161798
vt 0.2859388 0.1146656
vt 0.2960954 0.1308047
vn 0.2463376 0.1114905 -0.9627501
vn 0.2849025 0.06836122 -0.9561158
vn 0.9994903 0.009963869 -0.03033057
vn 0.9974403 0.006627273 -0.07119659
vn 0.1657303 0.009109513 -0.986129
vn 0.3525423 -0.04722685 0.9346033
vn 0.9879166 -0.02285906 -0.1532915
vn 0.1214954 -0.06186717 -0.990662
vn 0.3897269 -0.09616117 0.9158962
vn -0.7812057 -0.0248504 0.6237789
vn -0.7566628 -0.0567346 0.6513391
vn -0.8292571 0.04709482 -0.5568793
vn 0.4646413 -0.02000252 0.885273
vn 0.9782788 -0.06275266 -0.1975665
vn -0.8510824 0.07286622 -0.5199512
vn 0.2849025 0.06836122 -0.9561158
vn 0.2463376 0.1114905 -0.9627501
vn -0.7019486 0.01431595 0.7120838
vn -0.8905653 0.03405062 -0.453579
vn 0.1657303 0.009109513 -0.986129
vn 0.4985007 0.02353677 0.8665697
vn 0.7789209 -0.599155 -0.1851901
vn 0.05054048 -0.5098806 -0.8587593
vn -0.6673072 0.07922576 0.7405568
vn -0.9070824 0.0270221 -0.420085
vn 0.1214954 -0.06186717 -0.990662
vn -0.824444 -0.4290726 -0.3690377
vn 0.05054048 -0.5098806 -0.8587593
vn -0.02208349 -0.8405817 -0.5412346
vn -0.5727856 -0.781645 -0.2468761
vn -0.6247398 -0.4715726 0.6223499
vn -0.4455335 -0.8116299 0.3778317
vn 0.3736504 -0.5775189 0.7258493
vn 0.1749737 -0.8865201 0.4283296
vn 0.4140096 -0.901489 -0.1261495
vn -0.02208349 -0.8405817 -0.5412346
vn -0.7780105 0.6065868 0.1635607
vn -0.7178403 0.6027831 0.3483647
vn -0.4987773 0.7137473 0.4917173
vn -0.6317539 0.762218 0.1411052
vn -0.8087818 0.5874691 -0.02742386
vn 0.0088969 0.8210559 0.5707784
vn -0.6744423 0.7023044 -0.2278069
vn -0.1519122 0.9876596 0.03809243
vn 0.4996255 0.7641381 0.4080041
vn -0.2614706 0.821056 -0.5074447
vn 0.436789 0.8928715 -0.109526
vn 0.7063908 0.6512202 0.2773525
vn 0.2480007 0.7641381 -0.5954734
vn 0.6675327 0.7255219 -0.1673857
vn 0.4919489 0.6512202 -0.5778395
vn 0.7567493 0.02326094 0.6532912
vn 0.8478373 0.02850711 0.5294897
vn 0.9028245 0.226989 0.3652176
vn 0.7517639 0.2281423 0.61871
vn 0.6477631 0.01746463 0.7616416
vn 0.8023616 0.5946913 0.05057742
vn 0.5374575 0.2096861 0.8168055
vn 0.6029982 0.6576714 0.4515103
vn 0.4705611 0.8572259 -0.2091318
vn 0.2806374 0.5862932 0.7599361
vn 0.2494969 0.9576246 0.1438966
vn 0.2469852 0.9122221 -0.326878
vn -0.01870133 0.8814373 0.4719307
vn 0.0348127 0.9987674 -0.03538213
vn -0.1821457 0.948005 0.260978
vn 0.3795249 0.9145767 0.1396793
vn 0.5072039 0.8094606 -0.2958338
vn 0.5785913 0.7907686 0.1997926
vn 0.3344752 0.9263724 -0.1730908
vn 0.07516 0.8327022 -0.5485963
vn 0.1630551 0.9145344 0.3701889
vn 0.2355659 0.7907016 0.5650662
vn 0.03461083 0.9988662 0.03268583
vn 0.06182954 0.9410392 -0.3325992
vn -0.3922027 0.8429919 -0.36816
vn -0.1519278 0.9262775 0.3448594
vn -0.2635672 0.8093101 0.5249281
vn -0.2331044 0.9475328 -0.2187329
vn -0.5429506 0.8325814 0.1096034
vn -0.3282354 0.9409631 0.08276454
g Dandylion02_0
f 3/3/3 2/2/2 1/1/1
f 4/4/4 3/3/3 1/1/1
f 4/4/4 1/1/1 5/5/5
f 6/6/6 3/3/3 4/4/4
f 7/7/7 4/4/4 5/5/5
f 7/7/7 5/5/5 8/8/8
f 9/9/9 6/6/6 4/4/4
f 9/9/9 4/4/4 7/7/7
f 10/10/10 6/6/6 9/9/9
f 11/11/11 10/10/10 9/9/9
f 12/12/12 10/10/10 11/11/11
f 13/13/13 9/9/9 7/7/7
f 11/11/11 9/9/9 13/13/13
f 14/14/14 7/7/7 8/8/8
f 13/13/13 7/7/7 14/14/14
f 15/15/15 12/12/12 11/11/11
f 16/16/16 12/12/12 15/15/15
f 17/17/17 16/16/16 15/15/15
f 18/18/18 11/11/11 13/13/13
f 15/15/15 11/11/11 18/18/18
f 17/17/17 15/15/15 19/19/19
f 19/19/19 15/15/15 18/18/18
f 20/20/20 17/17/17 19/19/19
f 18/18/18 13/13/13 21/21/21
f 21/21/21 13/13/13 14/14/14
f 14/14/14 8/8/8 22/22/22
f 8/8/8 23/23/23 22/22/22
f 19/19/19 18/18/18 24/24/24
f 24/24/24 18/18/18 21/21/21
f 20/20/20 19/19/19 25/25/25
f 25/25/25 19/19/19 24/24/24
f 26/26/26 20/20/20 25/25/25
f 26/26/26 25/25/25 27/27/27
f 25/25/25 24/24/24 27/27/27
f 28/28/28 26/26/26 27/27/27
f 29/29/29 28/28/28 27/27/27
f 30/30/30 29/29/29 27/27/27
f 24/24/24 31/31/31 27/27/27
f 30/30/30 27/27/27 31/31/31
f 24/24/24 21/21/21 31/31/31
f 32/32/32 30/30/30 31/31/31
f 21/21/21 33/33/33 31/31/31
f 32/32/32 31/31/31 33/33/33
f 21/21/21 14/14/14 33/33/33
f 34/34/34 32/32/32 33/33/33
f 14/14/14 22/22/22 33/33/33
f 34/34/34 33/33/33 22/22/22
f 35/35/35 34/34/34 22/22/22
f 35/35/35 22/22/22 23/23/23
f 36/36/36 35/35/35 23/23/23
f 39/39/39 38/38/38 37/37/37
f 40/40/40 39/39/39 37/37/37
f 40/40/40 37/37/37 41/41/41
f 42/42/42 39/39/39 40/40/40
f 43/43/43 40/40/40 41/41/41
f 44/44/44 42/42/42 40/40/40
f 44/44/44 40/40/40 43/43/43
f 45/45/45 42/42/42 44/44/44
f 46/46/46 44/44/44 43/43/43
f 47/47/47 45/45/45 44/44/44
f 47/47/47 44/44/44 46/46/46
f 48/48/48 45/45/45 47/47/47
f 49/49/49 47/47/47 46/46/46
f 50/50/50 48/48/48 47/47/47
f 50/50/50 47/47/47 49/49/49
f 51/51/51 50/50/50 49/49/49
f 54/54/54 53/53/53 52/52/52
f 55/55/55 54/54/54 52/52/52
f 55/55/55 52/52/52 56/56/56
f 57/57/57 54/54/54 55/55/55
f 58/58/58 55/55/55 56/56/56
f 59/59/59 57/57/57 55/55/55
f 59/59/59 55/55/55 58/58/58
f 60/60/60 57/57/57 59/59/59
f 61/61/61 59/59/59 58/58/58
f 62/62/62 60/60/60 59/59/59
f 62/62/62 59/59/59 61/61/61
f 63/63/63 60/60/60 62/62/62
f 64/64/64 62/62/62 61/61/61
f 65/65/65 63/63/63 62/62/62
f 65/65/65 62/62/62 64/64/64
f 66/66/66 65/65/65 64/64/64
f 69/69/69 68/68/68 67/67/67
f 68/68/68 70/70/70 67/67/67
f 68/68/68 71/71/71 70/70/70
f 69/69/69 67/67/67 72/72/72
f 73/73/73 69/69/69 72/72/72
f 74/74/74 67/67/67 70/70/70
f 74/74/74 72/72/72 67/67/67
f 71/71/71 75/75/75 70/70/70
f 74/74/74 70/70/70 75/75/75
f 71/71/71 76/76/76 75/75/75
f 73/73/73 72/72/72 77/77/77
f 74/74/74 77/77/77 72/72/72
f 78/78/78 73/73/73 77/77/77
f 76/76/76 79/79/79 75/75/75
f 74/74/74 75/75/75 79/79/79
f 76/76/76 80/80/80 79/79/79
f 74/74/74 81/81/81 77/77/77
f 78/78/78 77/77/77 81/81/81
f 74/74/74 79/79/79 81/81/81
f 80/80/80 81/81/81 79/79/79
f 80/80/80 78/78/78 81/81/81
