g DefaultGrassPatch_LOD1
v 0.2819428 0 0.3677698
v 0.1693678 0 0.1027125
v 0.4382352 0 -0.0004321262
v 0.1427409 0.2 0.3086821
v 0.05310833 0.2 0.05336325
v 0.344918 0.2 -0.04004296
v 0.003539115 0.4 0.2495944
v -0.0631512 0.4 0.004014
v 0.2516007 0.4 -0.07965378
v -0.387248 0 0.1608206
v -0.1536301 0 0.08334024
v -0.1521339 0 -0.1627863
v -0.5302708 0.2 0.05690841
v -0.2562514 0.2 0.008781537
v -0.2143536 0.2 -0.2079915
v -0.6732936 0.4 -0.04700372
v -0.3588727 0.4 -0.06577717
v -0.2765734 0.4 -0.2531968
v -0.05240886 0 0.2991222
v -0.2898148 0 0.223956
v -0.4306163 0 0.4293494
v -0.0511966 0.2 0.3026429
v -0.2655377 0.2 0.2944618
v -0.3832744 0.2 0.5668403
v -0.04998434 0.4 0.3061635
v -0.2412606 0.4 0.3649675
v -0.3359326 0.4 0.7043311
v 0.2769305 0 0.3109239
v 0.120475 0 0.08504232
v -0.1143285 0 0.2277592
v 0.3192265 0.2 0.1119367
v 0.1620476 0.2 -0.1105415
v -0.07347932 0.2 0.03557875
v 0.3615226 0.4 -0.08705048
v 0.2036203 0.4 -0.3061253
v -0.0326301 0.4 -0.1566017
v 0.438327 0 0.2072785
v 0.2615888 0 0.08847277
v 0.2032129 0 -0.1163283
v 0.5629149 0.2 0.1167601
v 0.3906558 0.2 -0.005299963
v 0.3367592 0.2 -0.2133553
v 0.6875029 0.4 0.02624168
v 0.5197229 0.4 -0.09907269
v 0.4703054 0.4 -0.3103824
v -0.0864587 0 -0.481954
v 0.04568326 0 -0.2171966
v 0.2980461 0 -0.3716991
v -0.1038681 0.2 -0.4212403
v 0.0141293 0.2 -0.1071548
v 0.2523475 0.2 -0.2123293
v -0.1212775 0.4 -0.3605266
v -0.01742467 0.4 0.002886981
v 0.2066489 0.4 -0.05295941
v 0.1866351 0 -0.1804946
v 0.05585758 0 0.03690386
v -0.1867971 0 -0.03714733
v 0.191206 0.2 -0.168587
v 0.06921617 0.2 0.07170417
v -0.1646507 0.2 0.02054576
v 0.1957769 0.4 -0.1566795
v 0.08257476 0.4 0.1065045
v -0.1425044 0.4 0.07823885
vt 0 0
vt 0.5 0
vt 1 0
vt 0 0.5
vt 0.5 0.5
vt 1 0.5
vt 0 1
vt 0.5 1
vt 1 1
vt 0 0
vt 0.5 0
vt 1 0
vt 0 0.5
vt 0.5 0.5
vt 1 0.5
vt 0 1
vt 0.5 1
vt 1 1
vt 0 0
vt 0.5 0
vt 1 0
vt 0 0.5
vt 0.5 0.5
vt 1 0.5
vt 0 1
vt 0.5 1
vt 1 1
vt 0 0
vt 0.5 0
vt 1 0
vt 0 0.5
vt 0.5 0.5
vt 1 0.5
vt 0 1
vt 0.5 1
vt 1 1
vt 0 0
vt 0.5 0
vt 1 0
vt 0 0.5
vt 0.5 0.5
vt 1 0.5
vt 0 1
vt 0.5 1
vt 1 1
vt 0 0
vt 0.5 0
vt 1 0
vt 0 0.5
vt 0.5 0.5
vt 1 0.5
vt 0 1
vt 0.5 1
vt 1 1
vt 0 0
vt 0.5 0
vt 1 0
vt 0 0.5
vt 0.5 0.5
vt 1 0.5
vt 0 1
vt 0.5 1
vt 1 1
vn 0.8148979 0.4649242 -0.3461027
vn 0.8359852 0.5414251 0.08937421
vn 0.3089158 0.3578344 0.8812069
vn 0.8312995 0.4594804 -0.3127602
vn 0.7330766 0.5310049 0.4250089
vn 0.2720483 0.3309596 0.9035793
vn 0.8438389 0.4675286 -0.2633491
vn 0.54775 0.4587438 0.6996602
vn 0.2452914 0.2972074 0.9227676
vn 0.2556762 0.5833731 0.7709121
vn 0.4869717 0.5639288 0.6669655
vn 0.9119073 0.4013945 0.08548582
vn 0.1860517 0.5144799 0.8370754
vn 0.5472204 0.5240709 0.6526098
vn 0.8853275 0.400148 0.2368059
vn 0.1005219 0.4562269 0.8841677
vn 0.6101284 0.4768925 0.6327061
vn 0.857111 0.3517163 0.3763728
vn 0.3018129 0.01495094 -0.9532499
vn -0.1955869 0.2449684 -0.949598
vn -0.8151871 0.3753382 -0.4411249
vn 0.135131 0.1210861 -0.9834011
vn -0.5873697 0.331564 -0.7382832
vn -0.8736222 0.3610558 -0.3262252
vn -0.1216327 0.1881136 -0.9745864
vn -0.8018263 0.3522171 -0.4827189
vn -0.8903673 0.3815114 -0.2483849
vn 0.6606938 -0.5950317 -0.4576255
vn 0.3510078 -0.6928895 -0.6298395
vn -0.42504 -0.5833647 -0.6921176
vn 0.6578368 -0.5950581 -0.4616888
vn 0.1349886 -0.7069706 -0.6942409
vn -0.4317417 -0.5794498 -0.6912575
vn 0.6531925 -0.5967316 -0.4661019
vn -0.08794479 -0.6849841 -0.7232306
vn -0.43756 -0.5749534 -0.6913536
vn 0.4520665 -0.5859806 -0.6725048
vn 0.5810132 -0.6167392 -0.53109
vn 0.7687443 -0.6044245 -0.209053
vn 0.4601704 -0.5928079 -0.660925
vn 0.645021 -0.6234418 -0.4418916
vn 0.7733809 -0.6035975 -0.1937838
vn 0.4716176 -0.5977519 -0.6482819
vn 0.7005196 -0.6226637 -0.3486578
vn 0.7749973 -0.6054174 -0.1812432
vn -0.8750354 -0.2087481 0.4367352
vn -0.5896444 -0.4059073 0.6982543
vn 0.417612 -0.4507278 0.7889518
vn -0.8970514 -0.2419091 0.3698365
vn -0.4424407 -0.4848859 0.7544085
vn 0.3052377 -0.5114839 0.8032525
vn -0.9221498 -0.241783 0.3019622
vn -0.281398 -0.5488365 0.7871429
vn 0.1964488 -0.5832016 0.7882156
vn -0.8558229 0.05021084 -0.5148262
vn -0.6064008 0.1380025 -0.7830923
vn 0.249144 0.1971386 -0.9481897
vn -0.878285 0.0790045 -0.4715655
vn -0.4614872 0.181909 -0.8682964
vn 0.1805788 0.2224647 -0.9580715
vn -0.9023699 0.08966948 -0.4215305
vn -0.2982108 0.2212727 -0.9284982
vn 0.120221 0.2628415 -0.9573199
g DefaultGrassPatch_LOD1_0
f 2/2/2 4/4/4 1/1/1
f 2/2/2 5/5/5 4/4/4
f 3/3/3 5/5/5 2/2/2
f 3/3/3 6/6/6 5/5/5
f 5/5/5 7/7/7 4/4/4
f 5/5/5 8/8/8 7/7/7
f 6/6/6 8/8/8 5/5/5
f 6/6/6 9/9/9 8/8/8
f 11/11/11 13/13/13 10/10/10
f 11/11/11 14/14/14 13/13/13
f 12/12/12 14/14/14 11/11/11
f 12/12/12 15/15/15 14/14/14
f 14/14/14 16/16/16 13/13/13
f 14/14/14 17/17/17 16/16/16
f 15/15/15 17/17/17 14/14/14
f 15/15/15 18/18/18 17/17/17
f 20/20/20 22/22/22 19/19/19
f 20/20/20 23/23/23 22/22/22
f 21/21/21 23/23/23 20/20/20
f 21/21/21 24/24/24 23/23/23
f 23/23/23 25/25/25 22/22/22
f 23/23/23 26/26/26 25/25/25
f 24/24/24 26/26/26 23/23/23
f 24/24/24 27/27/27 26/26/26
f 29/29/29 31/31/31 28/28/28
f 29/29/29 32/32/32 31/31/31
f 30/30/30 32/32/32 29/29/29
f 30/30/30 33/33/33 32/32/32
f 32/32/32 34/34/34 31/31/31
f 32/32/32 35/35/35 34/34/34
f 33/33/33 35/35/35 32/32/32
f 33/33/33 36/36/36 35/35/35
f 38/38/38 40/40/40 37/37/37
f 38/38/38 41/41/41 40/40/40
f 39/39/39 41/41/41 38/38/38
f 39/39/39 42/42/42 41/41/41
f 41/41/41 43/43/43 40/40/40
f 41/41/41 44/44/44 43/43/43
f 42/42/42 44/44/44 41/41/41
f 42/42/42 45/45/45 44/44/44
f 47/47/47 49/49/49 46/46/46
f 47/47/47 50/50/50 49/49/49
f 48/48/48 50/50/50 47/47/47
f 48/48/48 51/51/51 50/50/50
f 50/50/50 52/52/52 49/49/49
f 50/50/50 53/53/53 52/52/52
f 51/51/51 53/53/53 50/50/50
f 51/51/51 54/54/54 53/53/53
f 56/56/56 58/58/58 55/55/55
f 56/56/56 59/59/59 58/58/58
f 57/57/57 59/59/59 56/56/56
f 57/57/57 60/60/60 59/59/59
f 59/59/59 61/61/61 58/58/58
f 59/59/59 62/62/62 61/61/61
f 60/60/60 62/62/62 59/59/59
f 60/60/60 63/63/63 62/62/62
