g Lotus07 (7)_VGradient
v 0.4743302 0.0518762 -0.1924266
v 0.5835673 0.0518762 0.1437706
v -0.0009328965 -0.05615928 0.001787134
v 0.1883438 0.0518762 -0.400208
v -0.1651549 0.0518762 -0.400208
v -0.4511414 0.0518762 -0.1924266
v -0.5603786 0.0518762 0.1437706
v -0.4511414 0.0518762 0.4799679
v -0.1651549 0.0518762 0.6877492
v 0.1883438 0.0518762 0.6877492
v 0.4743302 0.0518762 0.4799679
v 0.609484 0.1239229 -0.2906216
v 0.7506266 0.1239229 0.1437706
v 0.2399679 0.1239229 -0.5590907
v -0.2167791 0.1239229 -0.5590907
v -0.5862952 0.1239229 -0.2906216
v -0.7274377 0.1239229 0.1437706
v -0.5862952 0.1239229 0.5781628
v -0.2167791 0.1239229 0.8466319
v 0.2399679 0.1239229 0.8466319
v 0.609484 0.1239229 0.5781628
vt 0.7662522 0.4661815
vt 0.7752245 0.438567
vt 0.7272155 0.4502292
vt 0.7427621 0.4832479
vt 0.7137268 0.4832479
vt 0.6902368 0.4661815
vt 0.6812645 0.438567
vt 0.6902368 0.410953
vt 0.7137268 0.3938864
vt 0.7427621 0.3938864
vt 0.7662522 0.410953
vt 0.7773533 0.4742469
vt 0.7889462 0.438567
vt 0.7470024 0.4962978
vt 0.7094866 0.4962978
vt 0.6791357 0.4742469
vt 0.6675428 0.438567
vt 0.6791357 0.4028877
vt 0.7094866 0.3808364
vt 0.7470024 0.3808364
vt 0.7773533 0.4028877
vn -0.2457195 0.9521425 0.181787
vn -0.2908846 0.9567555 0.002279703
vn 0.002307247 0.9996554 0.02615021
vn -0.09686905 0.9480564 0.3029941
vn 0.0980252 0.9474344 0.3045637
vn 0.24912 0.9508156 0.1840893
vn 0.2947961 0.9555569 0.002476254
vn 0.2295163 0.9592607 -0.1647459
vn 0.08582072 0.9612175 -0.2620984
vn -0.08530435 0.9614534 -0.2614011
vn -0.2273456 0.9599883 -0.1635132
vn -0.3203769 0.9182472 0.2327674
vn -0.3960076 0.9182472 0
vn -0.1223731 0.9182472 0.3766256
vn 0.1223731 0.9182472 0.3766256
vn 0.3203769 0.9182472 0.2327674
vn 0.3960077 0.9182472 0
vn 0.3203769 0.9182472 -0.2327675
vn 0.1223731 0.9182472 -0.3766257
vn -0.1223731 0.9182472 -0.3766257
vn -0.3203769 0.9182472 -0.2327674
g Lotus07 (7)_VGradient_0
f 3/3/3 2/2/2 1/1/1
f 3/3/3 1/1/1 4/4/4
f 3/3/3 4/4/4 5/5/5
f 3/3/3 5/5/5 6/6/6
f 3/3/3 6/6/6 7/7/7
f 3/3/3 7/7/7 8/8/8
f 3/3/3 8/8/8 9/9/9
f 3/3/3 9/9/9 10/10/10
f 3/3/3 10/10/10 11/11/11
f 3/3/3 11/11/11 2/2/2
f 12/12/12 1/1/1 2/2/2
f 13/13/13 12/12/12 2/2/2
f 13/13/13 2/2/2 11/11/11
f 14/14/14 4/4/4 1/1/1
f 12/12/12 14/14/14 1/1/1
f 15/15/15 5/5/5 4/4/4
f 14/14/14 15/15/15 4/4/4
f 16/16/16 6/6/6 5/5/5
f 15/15/15 16/16/16 5/5/5
f 17/17/17 7/7/7 6/6/6
f 16/16/16 17/17/17 6/6/6
f 18/18/18 8/8/8 7/7/7
f 17/17/17 18/18/18 7/7/7
f 19/19/19 9/9/9 8/8/8
f 18/18/18 19/19/19 8/8/8
f 20/20/20 10/10/10 9/9/9
f 19/19/19 20/20/20 9/9/9
f 21/21/21 11/11/11 10/10/10
f 20/20/20 21/21/21 10/10/10
f 21/21/21 13/13/13 11/11/11
