g Lotus01_VGradient
v 0.007623044 -0.0009603146 -0.0234283
v -0.01654886 -0.003189925 -0.0200735
v -0.01286524 -0.4129953 -0.06632198
v 0.0114224 -0.4098686 -0.06831099
v 0.02464818 -1.07575 -0.1695442
v -0.001045598 -1.077986 -0.1672054
v -0.02288879 -0.4251806 -0.04519986
v -0.01171244 -1.085345 -0.1440409
v -0.008624693 -0.4342391 -0.02606673
v -0.02646234 -0.005961714 0.004860792
v -0.01220392 -0.006503892 0.02644028
v 0.003314501 -1.090469 -0.1232153
v 0.01566295 -0.4311124 -0.02805574
v 0.02900828 -1.088233 -0.1255541
v 0.0256865 -0.4189271 -0.04917787
v 0.01196799 -0.004274282 0.02308548
v 0.02188147 -0.001502493 -0.00184881
v 0.03967512 -1.080874 -0.1487186
v 0.0114224 -0.4098686 -0.06831099
v 0.02464818 -1.07575 -0.1695442
v 0.05487023 -2.089528 -0.2463917
v 0.02479809 -2.090935 -0.2434878
v 0.01228414 -2.093057 -0.2159323
v 0.02984233 -2.093771 -0.1912806
v 0.05991447 -2.092363 -0.1941845
v 0.07242842 -2.090242 -0.22174
v 0.05487023 -2.089528 -0.2463917
v 0.0666554 -2.985864 -0.2294234
v 0.03342865 -2.985085 -0.2261739
v 0.01960551 -2.979748 -0.1958755
v 0.03900911 -2.975189 -0.1688266
v 0.07223586 -2.975968 -0.1720761
v 0.086059 -2.981305 -0.2023745
v 0.0666554 -2.985864 -0.2294234
v 0.02320174 -4.505264 -0.06537431
v -0.01679764 -4.501188 -0.0615991
v -0.03335355 -4.497716 -0.02468031
v -0.009910088 -4.498321 0.008463274
v 0.03008929 -4.502397 0.004688063
v 0.0466452 -4.505869 -0.03223073
v 0.02320174 -4.505264 -0.06537431
v 0.01290574 -5.34365 -0.0648077
v -0.02779513 -5.338571 -0.06038524
v -0.04489682 -5.347775 -0.02335968
v -0.02129763 -5.362058 0.009243418
v 0.01940325 -5.367137 0.004820957
v 0.03650494 -5.357934 -0.0322046
v 0.01290574 -5.34365 -0.0648077
v -0.0426772 -5.651158 -0.09700786
v -0.06017474 -5.664751 -0.06029713
v -0.03654834 -5.683347 -0.02808668
v -0.01933586 -5.674408 -0.06449185
v 0.004575586 -5.688349 -0.03258698
v 0.02207312 -5.674756 -0.06929771
v -0.01933586 -5.674408 -0.06449185
v -0.001553276 -5.65616 -0.1015081
v -0.001553276 -5.65616 -0.1015081
v -0.01933586 -5.674408 -0.06449185
v -0.01933586 -5.674408 -0.06449185
v -0.01933586 -5.674408 -0.06449185
v -0.01933586 -5.674408 -0.06449185
v -0.01654886 -0.003189925 -0.0200735
v -0.003459445 -0.04114454 -0.01153846
v -0.02646234 -0.005961714 0.004860792
v 0.007623044 -0.0009603146 -0.0234283
v -0.003459445 -0.04114454 -0.01153846
v -0.01220392 -0.006503892 0.02644028
v -0.003459445 -0.04114454 -0.01153846
v -0.003459445 -0.04114454 -0.01153846
v 0.01196799 -0.004274282 0.02308548
v 0.02188147 -0.001502493 -0.00184881
v -0.003459445 -0.04114454 -0.01153846
v -0.003459445 -0.04114454 -0.01153846
v 0.007623044 -0.0009603146 -0.0234283
v 0.007623044 -0.0009603146 -0.0234283
v 0.6727939 0.1240674 0.0723985
v 0.5822327 0.1240674 0.5313746
v -0.001695052 3.639342E-05 -0.009637059
v 0.47628 0.1240674 -0.3521515
v 0.06775273 0.1240674 -0.5801117
v -0.3967444 0.1240674 -0.5244091
v -0.7397894 0.1240674 -0.2063202
v -0.8303505 0.1240674 0.252656
v -0.6338367 0.1240674 0.6772059
v -0.2253094 0.1240674 0.9051661
v 0.2391877 0.1240674 0.8494635
v 0.8923096 0.06965815 0.04607412
v 0.7752977 0.06965815 0.6391059
v 0.6383989 0.06965815 -0.5024765
v 0.1105509 0.06965815 -0.7970182
v -0.4896145 0.06965815 -0.7250463
v -0.9328544 0.06965815 -0.3140514
v -1.049866 0.06965815 0.2789803
v -0.7959555 0.06965815 0.8275309
v -0.2681075 0.06965815 1.122073
v 0.3320578 0.06965815 1.050101
vt 0.8716485 0.00322783
vt 0.8758435 0.00322783
vt 0.8758435 0.006422639
vt 0.8716485 0.006422639
vt 0.8716485 0.02049673
vt 0.8758435 0.02049673
vt 0.8800384 0.006422639
vt 0.8800384 0.02049673
vt 0.8842334 0.006422639
vt 0.8800384 0.00322783
vt 0.8842334 0.00322783
vt 0.8842334 0.02049673
vt 0.8884284 0.006422639
vt 0.8884284 0.02049673
vt 0.8926234 0.006422639
vt 0.8884284 0.00322783
vt 0.8926234 0.00322783
vt 0.8926234 0.02049673
vt 0.8968183 0.006422639
vt 0.8968183 0.02049673
vt 0.8716485 0.05085635
vt 0.8758435 0.05085635
vt 0.8800384 0.05085635
vt 0.8842334 0.05085635
vt 0.8884284 0.05085635
vt 0.8926234 0.05085635
vt 0.8968183 0.05085635
vt 0.8716485 0.07084084
vt 0.8758435 0.07084084
vt 0.8800384 0.07084084
vt 0.8842334 0.07084084
vt 0.8884284 0.07084084
vt 0.8926234 0.07084084
vt 0.8968183 0.07084084
vt 0.8716485 0.1173944
vt 0.8758435 0.1173944
vt 0.8800384 0.1173944
vt 0.8842334 0.1173944
vt 0.8884284 0.1173944
vt 0.8926234 0.1173944
vt 0.8968183 0.1173944
vt 0.8716485 0.1248975
vt 0.8758435 0.1248975
vt 0.8800384 0.1248975
vt 0.8842334 0.1248975
vt 0.8884284 0.1248975
vt 0.8926234 0.1248975
vt 0.8968183 0.1248975
vt 0.8758435 0.1323252
vt 0.8800384 0.1323252
vt 0.8842334 0.1323252
vt 0.8821359 0.1330698
vt 0.8884284 0.1323252
vt 0.8926234 0.1323252
vt 0.8905259 0.1330698
vt 0.8968183 0.1323252
vt 0.8716485 0.1323252
vt 0.873746 0.1330698
vt 0.877941 0.1330698
vt 0.8863309 0.1330698
vt 0.8947209 0.1330698
vt 0.8758435 0.00322783
vt 0.877941 0.00295043
vt 0.8800384 0.00322783
vt 0.8716485 0.00322783
vt 0.873746 0.00295043
vt 0.8842334 0.00322783
vt 0.8821359 0.00295043
vt 0.8863309 0.00295043
vt 0.8884284 0.00322783
vt 0.8926234 0.00322783
vt 0.8905259 0.00295043
vt 0.8947209 0.00295043
vt 0.8968183 0.00322783
vt 0.8968183 0.00322783
vt 0.4567973 0.4919822
vt 0.4676484 0.4585861
vt 0.4095872 0.47269
vt 0.428389 0.5126221
vt 0.3932742 0.5126221
vt 0.3648658 0.4919822
vt 0.3540148 0.4585861
vt 0.3648658 0.4251901
vt 0.3932742 0.4045501
vt 0.428389 0.4045501
vt 0.4567973 0.4251901
vt 0.4702228 0.5017363
vt 0.4842432 0.4585861
vt 0.433517 0.5284047
vt 0.3881461 0.5284047
vt 0.3514403 0.5017363
vt 0.33742 0.4585861
vt 0.3514403 0.4154359
vt 0.3881461 0.3887675
vt 0.433517 0.3887675
vt 0.4702228 0.4154359
vn 0.4113998 0.1046457 -0.9054278
vn -0.601995 0.0842066 -0.7940474
vn -0.593804 0.0978363 -0.7986393
vn 0.4140165 0.1247986 -0.9016739
vn 0.4157798 0.1129202 -0.902428
vn -0.5838897 0.07889873 -0.80799
vn -0.9951416 -0.02603339 0.09494945
vn -0.9952678 -0.03045335 0.0922742
vn -0.4139015 -0.1269146 0.9014312
vn -0.9949054 -0.02155699 0.09848194
vn -0.4113428 -0.1131097 0.9044353
vn -0.4158292 -0.1065445 0.9031801
vn 0.593573 -0.09860761 0.7987162
vn 0.5833453 -0.07257966 0.808975
vn 0.9951671 0.02671732 -0.09449071
vn 0.6021258 -0.089804 0.7933346
vn 0.9949164 0.01893916 -0.09890791
vn 0.9951748 0.03673846 -0.0909801
vn 0.4140165 0.1247986 -0.9016739
vn 0.4157798 0.1129202 -0.902428
vn 0.4147838 0.03465586 -0.9092598
vn -0.5818493 0.01248817 -0.8132008
vn -0.9953122 -0.01820162 0.09498588
vn -0.4149197 -0.02681533 0.9094627
vn 0.58151 -0.004644439 0.813526
vn 0.9951802 0.02602497 -0.09454647
vn 0.4147838 0.03465586 -0.9092598
vn 0.413715 -0.0606317 -0.9083852
vn -0.5833393 -0.04487149 -0.8109881
vn -0.9952573 0.01963491 0.0952752
vn -0.413624 0.0686658 0.9078547
vn 0.5835314 0.05288871 0.8103666
vn 0.9953194 -0.01162284 -0.09593793
vn 0.413715 -0.0606317 -0.9083852
vn 0.4122068 -0.05758912 -0.9092684
vn -0.5845581 -0.03078816 -0.8107675
vn -0.9949485 0.02932561 0.09600709
vn -0.4120171 0.06237586 0.9090386
vn 0.5848395 0.03526373 0.8103822
vn 0.9950477 -0.0242426 -0.09639686
vn 0.4122068 -0.05758912 -0.9092684
vn 0.4143654 0.04073383 -0.9091986
vn -0.5836044 0.06439564 -0.8094808
vn -0.9946107 0.02454843 0.1007328
vn -0.4140822 -0.03958333 0.9093783
vn 0.583554 -0.06358278 0.8095813
vn 0.9946972 -0.02283993 -0.1002785
vn 0.4143654 0.04073383 -0.9091986
vn -0.4543724 -0.4845389 -0.7475078
vn -0.7757303 -0.5954173 -0.2090951
vn -0.4530756 -0.8087031 0.3751291
vn -0.1536342 -0.9017378 -0.4040613
vn 0.3444217 -0.8870924 0.3073122
vn 0.6050309 -0.700434 -0.3785892
vn -0.1536342 -0.9017378 -0.4040613
vn 0.166066 -0.523985 -0.8353813
vn 0.166066 -0.523985 -0.8353813
vn -0.1536342 -0.9017378 -0.4040613
vn -0.1536342 -0.9017378 -0.4040613
vn -0.1536342 -0.9017378 -0.4040613
vn -0.1536342 -0.9017378 -0.4040613
vn 0.5424044 0.357972 0.7600353
vn -0.0359609 0.9845675 0.1712705
vn 0.8318951 0.5544696 -0.02267231
vn -0.381316 0.3574205 0.8525543
vn -0.0359609 0.9845675 0.1712705
vn 0.2758449 0.7409406 -0.6123043
vn -0.0359609 0.9845675 0.1712705
vn -0.0359609 0.9845675 0.1712705
vn -0.5140635 0.6915819 -0.5073983
vn -0.8493297 0.5070835 0.1466474
vn -0.0359609 0.9845675 0.1712705
vn -0.0359609 0.9845675 0.1712705
vn -0.381316 0.3574205 0.8525543
vn 0.4113998 0.1046457 -0.9054278
vn 0.02717318 0.9996303 -0.0008730348
vn 0.03438539 0.9991772 0.02150913
vn -0.009406722 0.9997351 0.02100975
vn 0.01240993 0.9998764 -0.009652379
vn 0.001912566 0.9999022 -0.01385046
vn -0.01184414 0.9997253 -0.02022604
vn -0.03335162 0.9993143 -0.01608224
vn -0.04755864 0.9988428 0.007150894
vn -0.03931701 0.9985337 0.03721124
vn -0.01092613 0.9984934 0.05377316
vn 0.02005334 0.998733 0.04615419
vn 0.2372672 0.9710277 -0.02845315
vn 0.2086776 0.9710277 0.1164431
vn 0.1752289 0.9710277 -0.1624813
vn 0.04625907 0.9710277 -0.2344471
vn -0.1003802 0.9710276 -0.2168621
vn -0.2086776 0.9710276 -0.1164431
vn -0.2372673 0.9710276 0.02845316
vn -0.1752289 0.9710277 0.1624813
vn -0.04625906 0.9710277 0.2344471
vn 0.1003802 0.9710277 0.2168621
g Lotus01_VGradient_0
f 3/3/3 2/2/2 1/1/1
f 4/4/4 3/3/3 1/1/1
f 3/3/3 4/4/4 5/5/5
f 6/6/6 3/3/3 5/5/5
f 7/7/7 3/3/3 6/6/6
f 3/3/3 7/7/7 2/2/2
f 8/8/8 7/7/7 6/6/6
f 9/9/9 7/7/7 8/8/8
f 7/7/7 9/9/9 10/10/10
f 7/7/7 10/10/10 2/2/2
f 9/9/9 11/11/11 10/10/10
f 12/12/12 9/9/9 8/8/8
f 13/13/13 9/9/9 12/12/12
f 9/9/9 13/13/13 11/11/11
f 14/14/14 13/13/13 12/12/12
f 15/15/15 13/13/13 14/14/14
f 13/13/13 15/15/15 16/16/16
f 13/13/13 16/16/16 11/11/11
f 15/15/15 17/17/17 16/16/16
f 18/18/18 15/15/15 14/14/14
f 19/19/19 15/15/15 18/18/18
f 15/15/15 19/19/19 17/17/17
f 20/20/20 19/19/19 18/18/18
f 6/6/6 5/5/5 21/21/21
f 22/22/22 6/6/6 21/21/21
f 8/8/8 6/6/6 22/22/22
f 23/23/23 8/8/8 22/22/22
f 12/12/12 8/8/8 23/23/23
f 24/24/24 12/12/12 23/23/23
f 14/14/14 12/12/12 24/24/24
f 25/25/25 14/14/14 24/24/24
f 18/18/18 14/14/14 25/25/25
f 26/26/26 18/18/18 25/25/25
f 20/20/20 18/18/18 26/26/26
f 27/27/27 20/20/20 26/26/26
f 22/22/22 21/21/21 28/28/28
f 29/29/29 22/22/22 28/28/28
f 23/23/23 22/22/22 29/29/29
f 30/30/30 23/23/23 29/29/29
f 24/24/24 23/23/23 30/30/30
f 31/31/31 24/24/24 30/30/30
f 25/25/25 24/24/24 31/31/31
f 32/32/32 25/25/25 31/31/31
f 26/26/26 25/25/25 32/32/32
f 33/33/33 26/26/26 32/32/32
f 27/27/27 26/26/26 33/33/33
f 34/34/34 27/27/27 33/33/33
f 29/29/29 28/28/28 35/35/35
f 36/36/36 29/29/29 35/35/35
f 30/30/30 29/29/29 36/36/36
f 37/37/37 30/30/30 36/36/36
f 31/31/31 30/30/30 37/37/37
f 38/38/38 31/31/31 37/37/37
f 32/32/32 31/31/31 38/38/38
f 39/39/39 32/32/32 38/38/38
f 33/33/33 32/32/32 39/39/39
f 40/40/40 33/33/33 39/39/39
f 34/34/34 33/33/33 40/40/40
f 41/41/41 34/34/34 40/40/40
f 36/36/36 35/35/35 42/42/42
f 43/43/43 36/36/36 42/42/42
f 37/37/37 36/36/36 43/43/43
f 44/44/44 37/37/37 43/43/43
f 38/38/38 37/37/37 44/44/44
f 45/45/45 38/38/38 44/44/44
f 39/39/39 38/38/38 45/45/45
f 46/46/46 39/39/39 45/45/45
f 40/40/40 39/39/39 46/46/46
f 47/47/47 40/40/40 46/46/46
f 41/41/41 40/40/40 47/47/47
f 48/48/48 41/41/41 47/47/47
f 44/44/44 43/43/43 49/49/49
f 43/43/43 42/42/42 49/49/49
f 50/50/50 44/44/44 49/49/49
f 46/46/46 45/45/45 51/51/51
f 44/44/44 50/50/50 51/51/51
f 45/45/45 44/44/44 51/51/51
f 52/52/52 51/51/51 50/50/50
f 53/53/53 46/46/46 51/51/51
f 48/48/48 47/47/47 54/54/54
f 46/46/46 53/53/53 54/54/54
f 47/47/47 46/46/46 54/54/54
f 55/55/55 54/54/54 53/53/53
f 56/56/56 48/48/48 54/54/54
f 42/42/42 57/57/57 49/49/49
f 58/58/58 49/49/49 57/57/57
f 59/59/59 50/50/50 49/49/49
f 60/60/60 53/53/53 51/51/51
f 61/61/61 56/56/56 54/54/54
f 64/64/64 63/63/63 62/62/62
f 66/66/66 65/65/65 62/62/62
f 68/68/68 64/64/64 67/67/67
f 70/70/70 69/69/69 67/67/67
f 72/72/72 70/70/70 71/71/71
f 74/74/74 73/73/73 71/71/71
f 19/19/19 75/75/75 17/17/17
f 78/78/78 77/77/77 76/76/76
f 78/78/78 76/76/76 79/79/79
f 78/78/78 79/79/79 80/80/80
f 78/78/78 80/80/80 81/81/81
f 78/78/78 81/81/81 82/82/82
f 78/78/78 82/82/82 83/83/83
f 78/78/78 83/83/83 84/84/84
f 78/78/78 84/84/84 85/85/85
f 78/78/78 85/85/85 86/86/86
f 78/78/78 86/86/86 77/77/77
f 87/87/87 76/76/76 77/77/77
f 88/88/88 87/87/87 77/77/77
f 88/88/88 77/77/77 86/86/86
f 89/89/89 79/79/79 76/76/76
f 87/87/87 89/89/89 76/76/76
f 90/90/90 80/80/80 79/79/79
f 89/89/89 90/90/90 79/79/79
f 91/91/91 81/81/81 80/80/80
f 90/90/90 91/91/91 80/80/80
f 92/92/92 82/82/82 81/81/81
f 91/91/91 92/92/92 81/81/81
f 93/93/93 83/83/83 82/82/82
f 92/92/92 93/93/93 82/82/82
f 94/94/94 84/84/84 83/83/83
f 93/93/93 94/94/94 83/83/83
f 95/95/95 85/85/85 84/84/84
f 94/94/94 95/95/95 84/84/84
f 96/96/96 86/86/86 85/85/85
f 95/95/95 96/96/96 85/85/85
f 96/96/96 88/88/88 86/86/86
