g Lotus05_VGradient
v 0.0005485988 0.9585803 0.3046638
v 0.001354846 1.002884 0.4709164
v -0.02035892 0.9923137 0.473861
v -0.02141243 0.9483799 0.3094135
v -0.02171377 0.9688537 0.4801601
v -0.02278399 0.9254879 0.3189004
v -0.001354846 0.9559638 0.4835145
v -0.002194532 0.9127964 0.3236375
v 0.02035892 0.966534 0.4805699
v 0.0197665 0.9229968 0.3188877
v 0.02171377 0.989994 0.4742709
v 0.02113806 0.9458887 0.3094009
v 0.001354846 1.002884 0.4709164
v 0.0005485988 0.9585803 0.3046638
v -0.01206167 0.8182648 0.1047511
v -0.03469027 0.8097839 0.1130865
v -0.03594312 0.7896088 0.1290298
v -0.01454668 0.7779118 0.1366385
v 0.00809369 0.786402 0.1282876
v 0.009325838 0.8065795 0.1123443
v -0.01206167 0.8182648 0.1047511
v -0.03663872 0.5990826 -0.04986783
v -0.05954916 0.5974054 -0.03621789
v -0.05957196 0.5889454 -0.0106467
v -0.03668432 0.5821626 0.001274546
v -0.01377388 0.5838398 -0.0123754
v -0.01375108 0.5922998 -0.03794659
v -0.03663872 0.5990826 -0.04986783
v -0.07464366 0.3156577 -0.07309761
v -0.09824135 0.3185364 -0.05802022
v -0.0973223 0.3178974 -0.02966715
v -0.07279148 0.3143773 -0.01639227
v -0.04918743 0.311495 -0.03148358
v -0.05012052 0.3121364 -0.05983561
v -0.07464366 0.3156577 -0.07309761
v -0.116739 0.03052304 -0.03029589
v -0.1410672 0.03762037 -0.01498182
v -0.1391553 0.04401868 0.01396692
v -0.1129151 0.04332014 0.0276032
v -0.08858541 0.0362227 0.01228995
v -0.09049744 0.02982392 -0.01666041
v -0.116739 0.03052304 -0.03029589
v -0.2226388 -0.3623182 0.1124312
v -0.1961924 -0.3690207 0.09561752
v -0.2205942 -0.3552178 0.1436238
v -0.1921032 -0.35482 0.1580027
v -0.1656569 -0.3615225 0.1411889
v -0.1677015 -0.3686229 0.1099964
v -0.1961924 -0.3690207 0.09561752
v -0.2746635 -0.8163731 0.2740853
v -0.2458277 -0.8227873 0.2556083
v -0.3052445 -1.569114 0.4360934
v -0.2735119 -1.573759 0.4154913
v -0.2646405 -2.344035 0.4887247
v -0.230011 -2.34691 0.4659974
v -0.2621195 -2.338157 0.5297502
v -0.3028859 -1.562224 0.4734854
v -0.224969 -2.335155 0.5480484
v -0.2687947 -1.559979 0.4902753
v -0.1903396 -2.33803 0.5253211
v -0.2370621 -1.564624 0.4696731
v -0.1928606 -2.343907 0.4842956
v -0.2394207 -1.571514 0.4322811
v -0.230011 -2.34691 0.4659974
v -0.2735119 -1.573759 0.4154913
v -0.2724674 -0.8084708 0.3078438
v -0.2414354 -0.8069829 0.3231253
v -0.2125996 -0.8133972 0.3046483
v -0.2147958 -0.8212994 0.2708898
v -0.2458277 -0.8227873 0.2556083
v 0.4477887 1.18986 0.4515352
v 0.5517316 0.930639 0.6389995
v -0.004440625 0.9878548 0.4875672
v 0.1756627 1.350067 0.3356758
v -0.1607036 1.350067 0.3356758
v -0.4328297 1.18986 0.4515352
v -0.5367725 0.930639 0.6389995
v -0.4328297 0.6714185 0.8264639
v -0.1607036 0.5112115 0.9423233
v 0.1756627 0.5112115 0.9423233
v 0.4477887 0.6714185 0.8264639
v 0.5763922 1.242647 0.365082
v 0.7106943 0.9077144 0.6073
v 0.2247848 1.449646 0.2153829
v -0.2098258 1.449646 0.2153829
v -0.5614331 1.242647 0.365082
v -0.6957352 0.9077144 0.6073
v -0.5614331 0.572782 0.8495181
v -0.2098258 0.3657824 0.9992172
v 0.2247848 0.3657824 0.9992172
v 0.5763922 0.572782 0.8495181
vt 0.8713291 0.008965254
vt 0.8713291 0.002985477
vt 0.8756234 0.002985477
vt 0.8756234 0.008965254
vt 0.8799176 0.002985477
vt 0.8799176 0.008965254
vt 0.884212 0.002985477
vt 0.884212 0.008965254
vt 0.8885062 0.002985477
vt 0.8885062 0.008965254
vt 0.8928005 0.002985477
vt 0.8928005 0.008965254
vt 0.8970947 0.002985477
vt 0.8970947 0.008965254
vt 0.8713291 0.01560986
vt 0.8756234 0.01560986
vt 0.8799176 0.01560986
vt 0.884212 0.01560986
vt 0.8885062 0.01560986
vt 0.8928005 0.01560986
vt 0.8970947 0.01560986
vt 0.8713291 0.02665079
vt 0.8756234 0.02665079
vt 0.8799176 0.02665079
vt 0.884212 0.02665079
vt 0.8885062 0.02665079
vt 0.8928005 0.02665079
vt 0.8970947 0.02665079
vt 0.8713291 0.0337503
vt 0.8756234 0.0337503
vt 0.8799176 0.0337503
vt 0.884212 0.0337503
vt 0.8885062 0.0337503
vt 0.8928005 0.0337503
vt 0.8970947 0.0337503
vt 0.8713291 0.04456663
vt 0.8756234 0.04456663
vt 0.8799176 0.04456663
vt 0.884212 0.04456663
vt 0.8885062 0.04456663
vt 0.8928005 0.04456663
vt 0.8970947 0.04456663
vt 0.8756234 0.06175339
vt 0.8713291 0.06175339
vt 0.8799176 0.06175339
vt 0.884212 0.06175339
vt 0.8885062 0.06175339
vt 0.8928005 0.06175339
vt 0.8970947 0.06175339
vt 0.8756234 0.07894003
vt 0.8713291 0.07894003
vt 0.8756234 0.1062425
vt 0.8713291 0.1062425
vt 0.8756234 0.1335449
vt 0.8713291 0.1335449
vt 0.8799176 0.1335449
vt 0.8799176 0.1062425
vt 0.884212 0.1335449
vt 0.884212 0.1062425
vt 0.8885062 0.1335449
vt 0.8885062 0.1062425
vt 0.8928005 0.1335449
vt 0.8928005 0.1062425
vt 0.8970947 0.1335449
vt 0.8970947 0.1062425
vt 0.8799176 0.07894003
vt 0.884212 0.07894003
vt 0.8885062 0.07894003
vt 0.8928005 0.07894003
vt 0.8970947 0.07894003
vt 0.4567973 0.4919822
vt 0.4676484 0.4585861
vt 0.4095872 0.47269
vt 0.428389 0.5126221
vt 0.3932742 0.5126221
vt 0.3648658 0.4919822
vt 0.3540148 0.4585861
vt 0.3648658 0.4251901
vt 0.3932742 0.4045501
vt 0.428389 0.4045501
vt 0.4567973 0.4251901
vt 0.4702228 0.5017363
vt 0.4842432 0.4585861
vt 0.433517 0.5284047
vt 0.3881461 0.5284047
vt 0.3514403 0.5017363
vt 0.33742 0.4585861
vt 0.3514403 0.4154359
vt 0.3881461 0.3887675
vt 0.433517 0.3887675
vt 0.4702228 0.4154359
vn 0.05311146 0.9043126 -0.423554
vn 0.05604785 0.9646945 -0.2573388
vn -0.8365903 0.5305803 -0.1363859
vn -0.8402738 0.5015539 -0.2058727
vn -0.892691 -0.4336877 0.1225475
vn -0.8946321 -0.3909113 0.2163834
vn -0.05601862 -0.96384 0.2605268
vn -0.05281943 -0.9011403 0.4302979
vn 0.8366842 -0.5296107 0.1395425
vn 0.8406862 -0.4985639 0.2113784
vn 0.8926491 0.4346539 -0.1193892
vn 0.894641 0.3939986 -0.2106717
vn 0.05604785 0.9646945 -0.2573388
vn 0.05311146 0.9043126 -0.423554
vn 0.03950372 0.7048556 -0.7082499
vn -0.8441358 0.421528 -0.3312838
vn -0.8836659 -0.2765662 0.3776847
vn -0.03875758 -0.6975175 0.715519
vn 0.8447635 -0.4151281 0.3377028
vn 0.8843907 0.2831029 -0.3710873
vn 0.03950372 0.7048556 -0.7082499
vn 0.001176286 0.3421199 -0.9396556
vn -0.8634447 0.2657626 -0.4287581
vn -0.8669836 -0.06365475 0.4942545
vn 0.0002510486 -0.3310836 0.9436014
vn 0.8647372 -0.255979 0.432093
vn 0.8681296 0.07372231 -0.490832
vn 0.001176286 0.3421199 -0.9396556
vn -0.04153451 -0.02796581 -0.9987456
vn -0.8779793 0.1106712 -0.4657299
vn -0.8362411 0.1451423 0.5288049
vn 0.04328255 0.04074637 0.9982317
vn 0.8793648 -0.09929552 0.4656799
vn 0.8381147 -0.1334781 -0.5289115
vn -0.04153451 -0.02796581 -0.9987456
vn -0.06579439 -0.2137169 -0.9746776
vn -0.884798 0.04865745 -0.4634275
vn -0.8192128 0.2674091 0.5073291
vn 0.0673079 0.2245701 0.9721306
vn 0.8863706 -0.03804618 0.4614103
vn 0.8211482 -0.2568012 -0.5096752
vn -0.06579439 -0.2137169 -0.9746776
vn -0.8924021 -0.01005618 -0.451129
vn -0.07658514 -0.3050502 -0.9492519
vn -0.8144064 0.300179 0.4966234
vn 0.07776709 0.3154931 0.9457359
vn 0.8936222 0.02073998 0.4483406
vn 0.816262 -0.289715 -0.4997814
vn -0.07658514 -0.3050502 -0.9492519
vn -0.8960276 -0.05626284 -0.4404193
vn -0.07148793 -0.265267 -0.9615212
vn -0.8953648 -0.0676159 -0.4401704
vn -0.06406263 -0.1373256 -0.9884521
vn -0.8949896 -0.0766861 -0.4394459
vn -0.06226464 -0.06856048 -0.9957021
vn -0.8307986 -0.003337203 0.5565631
vn -0.8336332 0.07404788 0.5473322
vn 0.06221899 0.07766805 0.9950358
vn 0.06422631 0.1461502 0.9871753
vn 0.8948165 0.08563623 0.4381439
vn 0.8954372 0.07640515 0.4385823
vn 0.8301257 0.01244891 -0.5574374
vn 0.8334858 -0.06523547 -0.5486763
vn -0.06226464 -0.06856048 -0.9957021
vn -0.06406263 -0.1373256 -0.9884521
vn -0.8271638 0.213906 0.5196579
vn 0.07214239 0.274798 0.9587916
vn 0.8965613 0.06601147 0.4379728
vn 0.8280405 -0.2042957 -0.5221229
vn -0.07148793 -0.265267 -0.9615212
vn 0.02330358 0.5971334 0.8018033
vn 0.04050786 0.583878 0.8108302
vn 0.002023162 0.5672671 0.8235314
vn 0.006133643 0.5976608 0.8017257
vn -0.005078929 0.5965016 0.8025957
vn -0.02019858 0.5954775 0.8031181
vn -0.03696068 0.5838124 0.8110468
vn -0.03804607 0.5614868 0.8266106
vn -0.01620137 0.543289 0.8393894
vn 0.0166612 0.5427562 0.839725
vn 0.04000141 0.5605199 0.8271743
vn 0.1933286 0.6828424 0.7045214
vn 0.2389672 0.5690252 0.7868322
vn 0.07384504 0.7531854 0.6536503
vn -0.07384505 0.7531854 0.6536503
vn -0.1933286 0.6828424 0.7045214
vn -0.2389672 0.5690252 0.7868323
vn -0.1933286 0.455208 0.8691431
vn -0.07384498 0.3848651 0.920014
vn 0.07384495 0.3848652 0.920014
vn 0.1933285 0.455208 0.8691431
g Lotus05_VGradient_0
f 3/3/3 2/2/2 1/1/1
f 4/4/4 3/3/3 1/1/1
f 5/5/5 3/3/3 4/4/4
f 6/6/6 5/5/5 4/4/4
f 7/7/7 5/5/5 6/6/6
f 8/8/8 7/7/7 6/6/6
f 9/9/9 7/7/7 8/8/8
f 10/10/10 9/9/9 8/8/8
f 11/11/11 9/9/9 10/10/10
f 12/12/12 11/11/11 10/10/10
f 13/13/13 11/11/11 12/12/12
f 14/14/14 13/13/13 12/12/12
f 4/4/4 1/1/1 15/15/15
f 16/16/16 4/4/4 15/15/15
f 6/6/6 4/4/4 16/16/16
f 17/17/17 6/6/6 16/16/16
f 8/8/8 6/6/6 17/17/17
f 18/18/18 8/8/8 17/17/17
f 10/10/10 8/8/8 18/18/18
f 19/19/19 10/10/10 18/18/18
f 12/12/12 10/10/10 19/19/19
f 20/20/20 12/12/12 19/19/19
f 14/14/14 12/12/12 20/20/20
f 21/21/21 14/14/14 20/20/20
f 16/16/16 15/15/15 22/22/22
f 23/23/23 16/16/16 22/22/22
f 17/17/17 16/16/16 23/23/23
f 24/24/24 17/17/17 23/23/23
f 18/18/18 17/17/17 24/24/24
f 25/25/25 18/18/18 24/24/24
f 19/19/19 18/18/18 25/25/25
f 26/26/26 19/19/19 25/25/25
f 20/20/20 19/19/19 26/26/26
f 27/27/27 20/20/20 26/26/26
f 21/21/21 20/20/20 27/27/27
f 28/28/28 21/21/21 27/27/27
f 23/23/23 22/22/22 29/29/29
f 30/30/30 23/23/23 29/29/29
f 24/24/24 23/23/23 30/30/30
f 31/31/31 24/24/24 30/30/30
f 25/25/25 24/24/24 31/31/31
f 32/32/32 25/25/25 31/31/31
f 26/26/26 25/25/25 32/32/32
f 33/33/33 26/26/26 32/32/32
f 27/27/27 26/26/26 33/33/33
f 34/34/34 27/27/27 33/33/33
f 28/28/28 27/27/27 34/34/34
f 35/35/35 28/28/28 34/34/34
f 30/30/30 29/29/29 36/36/36
f 37/37/37 30/30/30 36/36/36
f 31/31/31 30/30/30 37/37/37
f 38/38/38 31/31/31 37/37/37
f 32/32/32 31/31/31 38/38/38
f 39/39/39 32/32/32 38/38/38
f 33/33/33 32/32/32 39/39/39
f 40/40/40 33/33/33 39/39/39
f 34/34/34 33/33/33 40/40/40
f 41/41/41 34/34/34 40/40/40
f 35/35/35 34/34/34 41/41/41
f 42/42/42 35/35/35 41/41/41
f 43/43/43 37/37/37 36/36/36
f 44/44/44 43/43/43 36/36/36
f 45/45/45 38/38/38 37/37/37
f 43/43/43 45/45/45 37/37/37
f 46/46/46 39/39/39 38/38/38
f 45/45/45 46/46/46 38/38/38
f 47/47/47 40/40/40 39/39/39
f 46/46/46 47/47/47 39/39/39
f 48/48/48 41/41/41 40/40/40
f 47/47/47 48/48/48 40/40/40
f 49/49/49 42/42/42 41/41/41
f 48/48/48 49/49/49 41/41/41
f 50/50/50 43/43/43 44/44/44
f 51/51/51 50/50/50 44/44/44
f 52/52/52 50/50/50 51/51/51
f 53/53/53 52/52/52 51/51/51
f 54/54/54 52/52/52 53/53/53
f 55/55/55 54/54/54 53/53/53
f 54/54/54 56/56/56 52/52/52
f 56/56/56 57/57/57 52/52/52
f 52/52/52 57/57/57 50/50/50
f 56/56/56 58/58/58 57/57/57
f 58/58/58 59/59/59 57/57/57
f 58/58/58 60/60/60 59/59/59
f 60/60/60 61/61/61 59/59/59
f 60/60/60 62/62/62 61/61/61
f 62/62/62 63/63/63 61/61/61
f 62/62/62 64/64/64 63/63/63
f 64/64/64 65/65/65 63/63/63
f 57/57/57 66/66/66 50/50/50
f 57/57/57 59/59/59 66/66/66
f 59/59/59 67/67/67 66/66/66
f 59/59/59 61/61/61 67/67/67
f 61/61/61 68/68/68 67/67/67
f 61/61/61 63/63/63 68/68/68
f 63/63/63 69/69/69 68/68/68
f 63/63/63 65/65/65 69/69/69
f 65/65/65 70/70/70 69/69/69
f 66/66/66 67/67/67 45/45/45
f 66/66/66 45/45/45 43/43/43
f 50/50/50 66/66/66 43/43/43
f 67/67/67 46/46/46 45/45/45
f 67/67/67 68/68/68 46/46/46
f 68/68/68 47/47/47 46/46/46
f 68/68/68 69/69/69 47/47/47
f 69/69/69 48/48/48 47/47/47
f 69/69/69 70/70/70 48/48/48
f 70/70/70 49/49/49 48/48/48
f 73/73/73 72/72/72 71/71/71
f 73/73/73 71/71/71 74/74/74
f 73/73/73 74/74/74 75/75/75
f 73/73/73 75/75/75 76/76/76
f 73/73/73 76/76/76 77/77/77
f 73/73/73 77/77/77 78/78/78
f 73/73/73 78/78/78 79/79/79
f 73/73/73 79/79/79 80/80/80
f 73/73/73 80/80/80 81/81/81
f 73/73/73 81/81/81 72/72/72
f 82/82/82 71/71/71 72/72/72
f 83/83/83 82/82/82 72/72/72
f 83/83/83 72/72/72 81/81/81
f 84/84/84 74/74/74 71/71/71
f 82/82/82 84/84/84 71/71/71
f 85/85/85 75/75/75 74/74/74
f 84/84/84 85/85/85 74/74/74
f 86/86/86 76/76/76 75/75/75
f 85/85/85 86/86/86 75/75/75
f 87/87/87 77/77/77 76/76/76
f 86/86/86 87/87/87 76/76/76
f 88/88/88 78/78/78 77/77/77
f 87/87/87 88/88/88 77/77/77
f 89/89/89 79/79/79 78/78/78
f 88/88/88 89/89/89 78/78/78
f 90/90/90 80/80/80 79/79/79
f 89/89/89 90/90/90 79/79/79
f 91/91/91 81/81/81 80/80/80
f 90/90/90 91/91/91 80/80/80
f 91/91/91 83/83/83 81/81/81
