g Mushroom18_VGradient
v 0.2679459 1.189092 -0.1546987
v 0.3093973 1.189092 0
v 0.1370231 1.23547 0
v 0.1186655 1.23547 -0.06851155
v 0.1546987 1.189092 -0.2679459
v 0.06851155 1.23547 -0.1186655
v 0 1.189092 -0.3093973
v 9.834906E-16 1.23547 -0.1370231
v -0.1546987 1.189092 -0.2679459
v -0.06851155 1.23547 -0.1186655
v -0.2679459 1.189092 -0.1546987
v -0.1186655 1.23547 -0.06851155
v -0.3093973 1.189092 0
v -0.1370231 1.23547 0
v -0.2679459 1.189092 0.1546987
v -0.1186655 1.23547 0.06851155
v -0.1546987 1.189092 0.2679459
v -0.06851155 1.23547 0.1186655
v 0 1.189092 0.3093973
v 9.834906E-16 1.23547 0.1370231
v 0.1546987 1.189092 0.2679459
v 0.06851155 1.23547 0.1186655
v 0.2679459 1.189092 0.1546987
v 0.1186655 1.23547 0.06851155
v 9.834906E-16 1.240278 0
v -3.278302E-16 0.9588708 0.6003779
v -0.300189 0.9588708 0.5199425
v -0.5199425 0.9588708 0.300189
v -0.6003779 0.9588708 0
v -0.5199425 0.9588708 -0.300189
v -0.300189 0.9588708 -0.5199425
v -3.278302E-16 0.9588708 -0.6003779
v 0.300189 0.9588708 -0.5199425
v 0.5199425 0.9588708 -0.300189
v 0.6003779 0.9588708 0
v 0.5199425 0.9588708 0.300189
v 0.300189 0.9588708 0.5199425
v 0.4563994 0.8230031 -0.2279978
v 0.5092523 0.8230031 -0.03074782
v 0.2279978 0.8230031 -0.4563994
v 0.4563994 0.8230031 -0.2279978
v 0.2812546 0.8230031 0.4256515
v -0.03074782 0.8230031 0.5092523
v 0.4256515 0.8230031 0.2812546
v 0.2812546 0.8230031 0.4256515
v 0.5092523 0.8230031 -0.03074782
v 0.4256515 0.8230031 0.2812546
v -0.03074782 0.8230031 0.5092523
v -0.2279978 0.8230031 0.4563994
v -0.2279978 0.8230031 0.4563994
v -0.4563994 0.8230031 0.2279978
v -0.4563994 0.8230031 0.2279978
v -0.5092523 0.8230031 0.03074782
v -0.5092523 0.8230031 0.03074782
v -0.4256515 0.8230031 -0.2812546
v -0.4256515 0.8230031 -0.2812546
v -0.2812546 0.8230031 -0.4256515
v -0.2812546 0.8230031 -0.4256515
v 0.03074782 0.8230031 -0.5092523
v 0.03074782 0.8230031 -0.5092523
v 0.2279978 0.8230031 -0.4563994
v -0.2589096 0.1910489 0.06937461
v -0.06937461 0.1910489 0.2589096
v 0.01917712 0 -0.01614452
v -0.2970127 0.4829775 0.07958431
v -0.07958431 0.4829775 0.2970127
v -0.2243806 0.8256099 0.06012259
v -0.06012259 0.8256099 0.2243806
v 0.2279978 0.8230031 -0.4563994
v 0.03074782 0.8230031 -0.5092523
v 0.06012259 0.8256099 -0.2243806
v -0.164258 0.8256099 -0.164258
v -0.2812546 0.8230031 -0.4256515
v -0.4256515 0.8230031 -0.2812546
v 0.4563994 0.8230031 -0.2279978
v 0.2243806 0.8256099 -0.06012259
v 0.5092523 0.8230031 -0.03074782
v 0.4256515 0.8230031 0.2812546
v 0.164258 0.8256099 0.164258
v -0.1895349 0.1910489 -0.1895349
v -0.2589096 0.1910489 0.06937461
v 0.01917712 0 -0.01614452
v -0.2174284 0.4829775 -0.2174284
v -0.2970127 0.4829775 0.07958431
v -0.164258 0.8256099 -0.164258
v -0.2243806 0.8256099 0.06012259
v 0.06937461 0.1910489 -0.2589096
v -0.1895349 0.1910489 -0.1895349
v 0.01917712 0 -0.01614452
v 0.07958431 0.4829775 -0.2970127
v -0.2174284 0.4829775 -0.2174284
v 0.06012259 0.8256099 -0.2243806
v -0.164258 0.8256099 -0.164258
v 0.2812546 0.8230031 0.4256515
v 0.4256515 0.8230031 0.2812546
v 0.164258 0.8256099 0.164258
v -0.03074782 0.8230031 0.5092523
v -0.06012259 0.8256099 0.2243806
v -0.2279978 0.8230031 0.4563994
v -0.4563994 0.8230031 0.2279978
v -0.2243806 0.8256099 0.06012259
v -0.5092523 0.8230031 0.03074782
v -0.4256515 0.8230031 -0.2812546
v -0.164258 0.8256099 -0.164258
v 0.2243806 0.8256099 -0.06012259
v 0.06012259 0.8256099 -0.2243806
v 0.07958431 0.4829775 -0.2970127
v 0.2970127 0.4829775 -0.07958431
v 0.06937461 0.1910489 -0.2589096
v 0.2589096 0.1910489 -0.06937461
v 0.01917712 0 -0.01614452
v 0.164258 0.8256099 0.164258
v 0.2243806 0.8256099 -0.06012259
v 0.2970127 0.4829775 -0.07958431
v 0.2174284 0.4829775 0.2174284
v 0.2589096 0.1910489 -0.06937461
v 0.1895349 0.1910489 0.1895349
v 0.01917712 0 -0.01614452
v -0.06012259 0.8256099 0.2243806
v 0.164258 0.8256099 0.164258
v 0.2174284 0.4829775 0.2174284
v -0.07958431 0.4829775 0.2970127
v 0.1895349 0.1910489 0.1895349
v -0.06937461 0.1910489 0.2589096
v 0.01917712 0 -0.01614452
vt 0.1700859 0.5431519
vt 0.156395 0.5204391
vt 0.1832924 0.5131836
vt 0.1891632 0.5242081
vt 0.1929817 0.5567551
vt 0.2000961 0.5301743
vt 0.2195663 0.5568848
vt 0.2126274 0.5306015
vt 0.2422409 0.5437393
vt 0.2233505 0.5241776
vt 0.2554932 0.520874
vt 0.2291718 0.5133667
vt 0.2563705 0.4945679
vt 0.2297516 0.5010529
vt 0.2428665 0.4721069
vt 0.2233505 0.4904785
vt 0.2203255 0.4581146
vt 0.2126274 0.4845123
vt 0.1937447 0.4569855
vt 0.2003593 0.4838562
vt 0.1711998 0.4706421
vt 0.1896057 0.4902496
vt 0.1571503 0.4934998
vt 0.1836929 0.5009155
vt 0.2063675 0.507225
vt 0.1888504 0.4369965
vt 0.2257957 0.4373322
vt 0.2589188 0.4564972
vt 0.2761536 0.4897156
vt 0.2757187 0.5259933
vt 0.2576218 0.5581894
vt 0.2257042 0.5774231
vt 0.1879616 0.5780487
vt 0.1539955 0.5592041
vt 0.1361656 0.5254974
vt 0.1361656 0.4881134
vt 0.1552353 0.4545135
vt 0.1343422 0.5628433
vt 0.1220779 0.5397644
vt 0.1794662 0.5965881
vt 0.142746 0.5761337
vt 0.1447449 0.4376984
vt 0.1810226 0.4187164
vt 0.1222534 0.4732666
vt 0.1354523 0.4502411
vt 0.1166077 0.5271072
vt 0.1166077 0.4866028
vt 0.1948471 0.4186249
vt 0.2201004 0.418808
vt 0.2343788 0.4192657
vt 0.2703857 0.4399872
vt 0.2782898 0.4531708
vt 0.2899857 0.4758911
vt 0.295105 0.4884186
vt 0.294693 0.5276718
vt 0.2890091 0.5401688
vt 0.2766113 0.5621796
vt 0.2690048 0.5740433
vt 0.2345047 0.5948563
vt 0.2201004 0.5964508
vt 0.1942329 0.5968552
vt 0.3128891 0.4729156
vt 0.3640594 0.4729156
vt 0.3384857 0.4217529
vt 0.3128891 0.521637
vt 0.3640594 0.521637
vt 0.3128891 0.5703201
vt 0.3640594 0.5703201
vt 0.0489006 0.5280838
vt 0.06250381 0.5514679
vt 0.06694984 0.5332794
vt 0.1130066 0.5596924
vt 0.09949112 0.5726242
vt 0.1265221 0.5724945
vt 0.04872417 0.4855042
vt 0.06668472 0.4801483
vt 0.06223965 0.4620209
vt 0.09895515 0.4405365
vt 0.1126022 0.4533997
vt 0.3128891 0.4729156
vt 0.3640594 0.4729156
vt 0.3384857 0.4217529
vt 0.3128891 0.521637
vt 0.3640594 0.521637
vt 0.3128891 0.5703201
vt 0.3640594 0.5703201
vt 0.3128891 0.4729156
vt 0.3640594 0.4729156
vt 0.3384857 0.4217529
vt 0.3128891 0.521637
vt 0.3640594 0.521637
vt 0.3128891 0.5703201
vt 0.3640594 0.5703201
vt 0.09949112 0.5726242
vt 0.1265221 0.5724945
vt 0.1130066 0.5596924
vt 0.06250381 0.5514145
vt 0.06694984 0.5332794
vt 0.0489006 0.5280838
vt 0.04872417 0.4855042
vt 0.06668472 0.4801483
vt 0.06223965 0.4620209
vt 0.09895515 0.4405365
vt 0.1126022 0.4533997
vt 0.3128891 0.5703201
vt 0.3640594 0.5703201
vt 0.3640594 0.521637
vt 0.3128891 0.521637
vt 0.3640594 0.4729156
vt 0.3128891 0.4729156
vt 0.3384857 0.4217529
vt 0.3128891 0.5703201
vt 0.3640594 0.5703201
vt 0.3640594 0.521637
vt 0.3128891 0.521637
vt 0.3640594 0.4729156
vt 0.3128891 0.4729156
vt 0.3384857 0.4217529
vt 0.3128891 0.5703201
vt 0.3640594 0.5703201
vt 0.3640594 0.521637
vt 0.3128891 0.521637
vt 0.3640594 0.4729156
vt 0.3128891 0.4729156
vt 0.3384857 0.4217529
vn 0.3882923 0.8938524 -0.2241807
vn 0.4483613 0.8938524 0
vn 0.1482695 0.988947 0
vn 0.1284052 0.988947 -0.07413474
vn 0.2241807 0.8938524 -0.3882923
vn 0.07413476 0.988947 -0.1284052
vn 0 0.8938524 -0.4483613
vn 0 0.988947 -0.1482695
vn -0.2241807 0.8938524 -0.3882923
vn -0.07413474 0.988947 -0.1284052
vn -0.3882923 0.8938524 -0.2241807
vn -0.1284052 0.988947 -0.07413476
vn -0.4483613 0.8938524 0
vn -0.1482695 0.988947 0
vn -0.3882923 0.8938524 0.2241807
vn -0.1284052 0.988947 0.07413474
vn -0.2241807 0.8938524 0.3882923
vn -0.07413476 0.988947 0.1284052
vn 0 0.8938524 0.4483613
vn 0 0.988947 0.1482695
vn 0.2241807 0.8938524 0.3882923
vn 0.07413474 0.988947 0.1284052
vn 0.3882923 0.8938524 0.2241807
vn 0.1284052 0.988947 0.07413476
vn 0 1 0
vn -0.004020712 0.1604653 0.9870332
vn -0.4900346 0.1604653 0.8568063
vn -0.8568063 0.1604653 0.4900346
vn -0.9870332 0.1604653 0.004020723
vn -0.8527855 0.1604653 -0.4969987
vn -0.4969987 0.1604653 -0.8527855
vn 0.004020712 0.1604653 -0.9870332
vn 0.4900346 0.1604653 -0.8568063
vn 0.8568063 0.1604653 -0.4900346
vn 0.9870332 0.1604653 -0.004020738
vn 0.8527856 0.1604652 0.4969987
vn 0.4969987 0.1604653 0.8527856
vn 0.4009601 -0.8873492 -0.2276894
vn 0.4610862 -0.8873492 -0.00329524
vn 0.2276894 -0.8873492 -0.4009601
vn 0.4009601 -0.8873492 -0.2276894
vn 0.2333968 -0.8873492 0.3976648
vn -0.003295235 -0.8873492 0.4610863
vn 0.3976647 -0.8873493 0.2333968
vn 0.2333968 -0.8873492 0.3976648
vn 0.4610862 -0.8873492 -0.00329524
vn 0.3976647 -0.8873493 0.2333968
vn -0.003295235 -0.8873492 0.4610863
vn -0.2276894 -0.8873492 0.4009601
vn -0.2276894 -0.8873492 0.4009601
vn -0.4009601 -0.8873492 0.2276894
vn -0.4009601 -0.8873492 0.2276894
vn -0.4610863 -0.8873492 0.003295226
vn -0.4610863 -0.8873492 0.003295226
vn -0.3976648 -0.8873492 -0.2333969
vn -0.3976648 -0.8873492 -0.2333969
vn -0.2333969 -0.8873492 -0.3976648
vn -0.2333969 -0.8873492 -0.3976648
vn 0.003295235 -0.8873492 -0.4610863
vn 0.003295235 -0.8873492 -0.4610863
vn 0.2276894 -0.8873492 -0.4009601
vn -0.8069326 -0.5506334 0.213688
vn -0.2131246 -0.5489818 0.8082059
vn 0.02030195 -0.9996479 -0.01709143
vn -0.9651073 0.04116221 0.2585997
vn -0.2585997 0.04116221 0.9651073
vn -0.5195774 -0.8430048 0.1392203
vn -0.1392203 -0.8430048 0.5195774
vn 0.2276894 -0.8873492 -0.4009601
vn 0.003295235 -0.8873492 -0.4610863
vn 0.1392203 -0.8430048 -0.5195774
vn -0.3803571 -0.8430048 -0.3803571
vn -0.2333969 -0.8873492 -0.3976648
vn -0.3976648 -0.8873492 -0.2333969
vn 0.4009601 -0.8873492 -0.2276894
vn 0.5195774 -0.8430048 -0.1392203
vn 0.4610862 -0.8873492 -0.00329524
vn 0.3976647 -0.8873493 0.2333968
vn 0.3803571 -0.8430048 0.3803571
vn -0.5934238 -0.5342471 -0.60202
vn -0.8069326 -0.5506334 0.213688
vn 0.02030195 -0.9996479 -0.01709143
vn -0.7065076 0.04116223 -0.7065075
vn -0.9651073 0.04116221 0.2585997
vn -0.3803571 -0.8430048 -0.3803571
vn -0.5195774 -0.8430048 0.1392203
vn 0.2254774 -0.5147047 -0.8271874
vn -0.5934238 -0.5342471 -0.60202
vn 0.02030195 -0.9996479 -0.01709143
vn 0.2585997 0.04116221 -0.9651073
vn -0.7065076 0.04116223 -0.7065075
vn 0.1392203 -0.8430048 -0.5195774
vn -0.3803571 -0.8430048 -0.3803571
vn 0.2333968 -0.8873492 0.3976648
vn 0.3976647 -0.8873493 0.2333968
vn 0.3803571 -0.8430048 0.3803571
vn -0.003295235 -0.8873492 0.4610863
vn -0.1392203 -0.8430048 0.5195774
vn -0.2276894 -0.8873492 0.4009601
vn -0.4009601 -0.8873492 0.2276894
vn -0.5195774 -0.8430048 0.1392203
vn -0.4610863 -0.8873492 0.003295226
vn -0.3976648 -0.8873492 -0.2333969
vn -0.3803571 -0.8430048 -0.3803571
vn 0.5195774 -0.8430048 -0.1392203
vn 0.1392203 -0.8430048 -0.5195774
vn 0.2585997 0.04116221 -0.9651073
vn 0.9651073 0.04116221 -0.2585997
vn 0.2254774 -0.5147047 -0.8271874
vn 0.8285484 -0.5127801 -0.2248646
vn 0.02030195 -0.9996479 -0.01709143
vn 0.3803571 -0.8430048 0.3803571
vn 0.5195774 -0.8430048 -0.1392203
vn 0.9651073 0.04116221 -0.2585997
vn 0.7065076 0.04116223 0.7065075
vn 0.8285484 -0.5127801 -0.2248646
vn 0.6036597 -0.530672 0.594964
vn 0.02030195 -0.9996479 -0.01709143
vn -0.1392203 -0.8430048 0.5195774
vn 0.3803571 -0.8430048 0.3803571
vn 0.7065076 0.04116223 0.7065075
vn -0.2585997 0.04116221 0.9651073
vn 0.6036597 -0.530672 0.594964
vn -0.2131246 -0.5489818 0.8082059
vn 0.02030195 -0.9996479 -0.01709143
g Mushroom18_VGradient_0
f 3/3/3 2/2/2 1/1/1
f 4/4/4 3/3/3 1/1/1
f 4/4/4 1/1/1 5/5/5
f 6/6/6 4/4/4 5/5/5
f 6/6/6 5/5/5 7/7/7
f 8/8/8 6/6/6 7/7/7
f 8/8/8 7/7/7 9/9/9
f 10/10/10 8/8/8 9/9/9
f 10/10/10 9/9/9 11/11/11
f 12/12/12 10/10/10 11/11/11
f 12/12/12 11/11/11 13/13/13
f 14/14/14 12/12/12 13/13/13
f 14/14/14 13/13/13 15/15/15
f 16/16/16 14/14/14 15/15/15
f 16/16/16 15/15/15 17/17/17
f 18/18/18 16/16/16 17/17/17
f 18/18/18 17/17/17 19/19/19
f 20/20/20 18/18/18 19/19/19
f 20/20/20 19/19/19 21/21/21
f 22/22/22 20/20/20 21/21/21
f 22/22/22 21/21/21 23/23/23
f 24/24/24 22/22/22 23/23/23
f 24/24/24 23/23/23 2/2/2
f 3/3/3 24/24/24 2/2/2
f 12/12/12 14/14/14 25/25/25
f 14/14/14 16/16/16 25/25/25
f 16/16/16 18/18/18 25/25/25
f 18/18/18 20/20/20 25/25/25
f 20/20/20 22/22/22 25/25/25
f 22/22/22 24/24/24 25/25/25
f 24/24/24 3/3/3 25/25/25
f 3/3/3 4/4/4 25/25/25
f 4/4/4 6/6/6 25/25/25
f 6/6/6 8/8/8 25/25/25
f 8/8/8 10/10/10 25/25/25
f 10/10/10 12/12/12 25/25/25
f 19/19/19 17/17/17 26/26/26
f 17/17/17 27/27/27 26/26/26
f 17/17/17 15/15/15 27/27/27
f 15/15/15 28/28/28 27/27/27
f 15/15/15 13/13/13 28/28/28
f 13/13/13 29/29/29 28/28/28
f 13/13/13 11/11/11 29/29/29
f 11/11/11 30/30/30 29/29/29
f 11/11/11 9/9/9 30/30/30
f 9/9/9 31/31/31 30/30/30
f 9/9/9 7/7/7 31/31/31
f 7/7/7 32/32/32 31/31/31
f 7/7/7 5/5/5 32/32/32
f 5/5/5 33/33/33 32/32/32
f 5/5/5 1/1/1 33/33/33
f 1/1/1 34/34/34 33/33/33
f 1/1/1 2/2/2 34/34/34
f 2/2/2 35/35/35 34/34/34
f 2/2/2 23/23/23 35/35/35
f 23/23/23 36/36/36 35/35/35
f 23/23/23 21/21/21 36/36/36
f 21/21/21 37/37/37 36/36/36
f 21/21/21 19/19/19 37/37/37
f 19/19/19 26/26/26 37/37/37
f 34/34/34 35/35/35 38/38/38
f 35/35/35 39/39/39 38/38/38
f 33/33/33 34/34/34 40/40/40
f 34/34/34 41/41/41 40/40/40
f 37/37/37 26/26/26 42/42/42
f 26/26/26 43/43/43 42/42/42
f 36/36/36 37/37/37 44/44/44
f 37/37/37 45/45/45 44/44/44
f 35/35/35 36/36/36 46/46/46
f 36/36/36 47/47/47 46/46/46
f 26/26/26 27/27/27 48/48/48
f 27/27/27 49/49/49 48/48/48
f 27/27/27 28/28/28 50/50/50
f 28/28/28 51/51/51 50/50/50
f 28/28/28 29/29/29 52/52/52
f 29/29/29 53/53/53 52/52/52
f 29/29/29 30/30/30 54/54/54
f 30/30/30 55/55/55 54/54/54
f 30/30/30 31/31/31 56/56/56
f 31/31/31 57/57/57 56/56/56
f 31/31/31 32/32/32 58/58/58
f 32/32/32 59/59/59 58/58/58
f 32/32/32 33/33/33 60/60/60
f 33/33/33 61/61/61 60/60/60
f 64/64/64 63/63/63 62/62/62
f 62/62/62 63/63/63 65/65/65
f 63/63/63 66/66/66 65/65/65
f 65/65/65 66/66/66 67/67/67
f 66/66/66 68/68/68 67/67/67
f 71/71/71 70/70/70 69/69/69
f 71/71/71 72/72/72 70/70/70
f 72/72/72 73/73/73 70/70/70
f 72/72/72 74/74/74 73/73/73
f 71/71/71 69/69/69 75/75/75
f 76/76/76 71/71/71 75/75/75
f 76/76/76 75/75/75 77/77/77
f 76/76/76 77/77/77 78/78/78
f 79/79/79 76/76/76 78/78/78
f 82/82/82 81/81/81 80/80/80
f 80/80/80 81/81/81 83/83/83
f 81/81/81 84/84/84 83/83/83
f 83/83/83 84/84/84 85/85/85
f 84/84/84 86/86/86 85/85/85
f 89/89/89 88/88/88 87/87/87
f 87/87/87 88/88/88 90/90/90
f 88/88/88 91/91/91 90/90/90
f 90/90/90 91/91/91 92/92/92
f 91/91/91 93/93/93 92/92/92
f 96/96/96 95/95/95 94/94/94
f 96/96/96 94/94/94 97/97/97
f 98/98/98 96/96/96 97/97/97
f 98/98/98 97/97/97 99/99/99
f 98/98/98 99/99/99 100/100/100
f 101/101/101 98/98/98 100/100/100
f 101/101/101 100/100/100 102/102/102
f 101/101/101 102/102/102 103/103/103
f 104/104/104 101/101/101 103/103/103
f 107/107/107 106/106/106 105/105/105
f 108/108/108 107/107/107 105/105/105
f 109/109/109 107/107/107 108/108/108
f 110/110/110 109/109/109 108/108/108
f 111/111/111 109/109/109 110/110/110
f 114/114/114 113/113/113 112/112/112
f 115/115/115 114/114/114 112/112/112
f 116/116/116 114/114/114 115/115/115
f 117/117/117 116/116/116 115/115/115
f 118/118/118 116/116/116 117/117/117
f 121/121/121 120/120/120 119/119/119
f 122/122/122 121/121/121 119/119/119
f 123/123/123 121/121/121 122/122/122
f 124/124/124 123/123/123 122/122/122
f 125/125/125 123/123/123 124/124/124
