g Plant23_VGradient
v -0.09103435 1.639075 -0.4179384
v -0.0983397 1.701256 -0.2454002
v -0.0197145 1.227529 -0.1608621
v -0.2608748 1.653455 -0.174758
v -0.2490545 1.552844 -0.4539306
v -0.09103435 1.639075 -0.4179384
v -0.3540216 1.561731 -0.3036368
v -0.2608748 1.653455 -0.174758
v -0.04500439 0.6064383 -0.02549971
v -0.03751602 -0.01750615 -1.854454E-05
v -0.009346884 -0.01773554 -0.0354214
v -0.02303577 0.6067523 -0.05618804
v 0.03387146 -0.01856517 -0.02024139
v 0.01350509 0.6064854 -0.04508347
v 0.03169359 -0.01886413 0.0269072
v 0.0129064 0.6074592 -0.006462839
v -0.0133714 -0.01818642 0.03832993
v -0.02369352 0.6072945 0.005111697
v -0.03751602 -0.01750615 -1.854454E-05
v -0.04500439 0.6064383 -0.02549971
v -0.008889451 0.7961032 -0.06896627
v -0.02612885 0.7963889 -0.03729526
v 0.02585351 0.8032065 -0.06442401
v 0.02993386 0.8088706 -0.029035
v 0.02993386 0.8088706 -0.029035
v -0.002372973 0.8039732 -0.01149442
v 0.02993386 0.8088706 -0.029035
v -0.02612885 0.7963889 -0.03729526
v -0.005773732 1.051271 -0.07654165
v 0.0130652 1.066553 -0.06372794
v 0.03445265 1.071724 -0.08322736
v -0.005773732 1.051271 -0.07654165
v -0.02766165 1.174661 -0.1280495
v 0.0002607917 1.195378 -0.1158153
v -0.07380406 1.236769 -0.1482965
v -0.02993297 1.264634 -0.1303617
v 0.02607934 1.19981 -0.1437355
v 0.00889118 1.269138 -0.1732803
v 0.01388536 1.181596 -0.1732115
v -0.01184457 1.24404 -0.217999
v -0.01935856 1.166143 -0.1632677
v -0.06303627 1.224039 -0.2017511
v -0.02766165 1.174661 -0.1280495
v -0.07380406 1.236769 -0.1482965
v 0.004157821 1.047098 -0.1036053
v 0.02919849 1.059715 -0.1077837
v 0.02585351 0.8032065 -0.06442401
v -0.1326577 1.268931 -0.1935554
v 0.0008411544 1.34232 -0.1419168
v -0.06214023 1.271778 -0.2695744
v 0.01944022 1.317831 -0.2393939
v -0.008889451 0.7961032 -0.06896627
v 0.02993386 0.8088706 -0.029035
v 0.02585351 0.8032065 -0.06442401
v 0.004157821 1.047098 -0.1036053
v -0.008889451 0.7961032 -0.06896627
v 0.02993386 0.8088706 -0.029035
v 0.02919849 1.059715 -0.1077837
v 0.02585351 0.8032065 -0.06442401
v -0.002372973 0.8039732 -0.01149442
v 0.03445265 1.071724 -0.08322736
v 0.02993386 0.8088706 -0.029035
v -0.09232427 1.310012 -0.1140085
v -0.009042568 1.197873 -0.1515663
v -0.09141245 1.349508 -0.1170759
v -0.1153744 1.315503 -0.1736321
v -0.2290715 1.420519 -0.1886026
v -0.1848169 1.483322 -0.08415084
v -0.3594837 1.459496 -0.1567841
v -0.2990508 1.545258 -0.01414702
v -0.4775747 1.438195 -0.09394354
v -0.4135344 1.506674 0.003767614
v -0.4173732 1.377343 -0.2934179
v -0.2733259 1.357717 -0.2930545
v -0.4952269 1.379056 -0.2169246
v -0.1393363 1.281498 -0.2301882
v -0.009042568 1.197873 -0.1515663
v -0.009042568 1.197873 -0.1515663
v -0.08774644 1.278318 -0.2646342
v -0.03847522 1.311949 -0.2401865
v -0.06180551 1.415532 -0.3356588
v -0.152803 1.353421 -0.3808104
v -0.03723324 1.464052 -0.4519251
v -0.1614973 1.379234 -0.5135831
v 0.02067269 1.459162 -0.5619007
v -0.08244628 1.396194 -0.5913066
v 0.08180084 1.5453 -0.3928622
v 0.02919193 1.477644 -0.2905073
v 0.1004321 1.52489 -0.4892138
v 0.01079602 1.345579 -0.2157389
v -0.009042568 1.197873 -0.1515663
v -0.009042568 1.197873 -0.1515663
v -0.1529141 1.297027 -0.1860624
v -0.1090916 1.29973 -0.2331744
v -0.2030386 1.404564 -0.3125786
v -0.2836266 1.399047 -0.225279
v -0.3134372 1.421959 -0.4109521
v -0.4222475 1.413655 -0.2906493
v -0.4113953 1.371223 -0.5011894
v -0.4781974 1.372965 -0.3961547
v -0.2091911 1.429917 -0.5261776
v -0.1224419 1.410074 -0.3998708
v -0.306129 1.389656 -0.570783
v -0.06526921 1.302434 -0.2802865
v -0.009042568 1.197873 -0.1515663
v -0.009042568 1.197873 -0.1515663
v 0.0009701448 1.32902 -0.2455499
v -0.02068568 1.34193 -0.1862143
v -0.02279496 1.481278 -0.2173035
v 0.01720049 1.457434 -0.3268885
v 0.03955425 1.593464 -0.2189571
v 0.09417115 1.560903 -0.3686039
v 0.1410006 1.661953 -0.196834
v 0.1661424 1.626917 -0.3134681
v -0.01276395 1.624653 -0.0756086
v -0.06279042 1.505121 -0.1077185
v 0.0752354 1.670654 -0.08929643
v -0.04234152 1.35484 -0.1268787
v -0.009042568 1.197873 -0.1515663
v -0.009042568 1.197873 -0.1515663
v -0.009400981 1.377465 -0.1860673
v -0.06747813 1.356391 -0.1678967
v -0.1234314 1.507787 -0.1762415
v -0.01590389 1.546086 -0.2096651
v -0.1446197 1.636098 -0.1037495
v 0.002706041 1.686685 -0.1497658
v -0.1353912 1.718866 0.01190957
v -0.02558672 1.7441 -0.0410438
v -0.2857442 1.587625 -0.05968436
v -0.2309547 1.469476 -0.142819
v -0.2489288 1.661252 0.01925333
v -0.1255553 1.335316 -0.1497262
v -0.009042568 1.197873 -0.1515663
vt 0.6005127 0.07831419
vt 0.6347833 0.04436982
vt 0.5942879 0.03775728
vt 0.6130906 0.00128758
vt 0.5576398 0.05621028
vt 0.6005127 0.07831419
vt 0.5654132 0.008605123
vt 0.6130906 0.00128758
vt 0.8512245 0.07280159
vt 0.8512245 0.02645946
vt 0.8543342 0.02645946
vt 0.8543342 0.07280159
vt 0.8574439 0.02645946
vt 0.8574439 0.07280159
vt 0.8605536 0.02645946
vt 0.8605536 0.07280159
vt 0.8636633 0.02645946
vt 0.8636633 0.07280159
vt 0.8667729 0.02645946
vt 0.8667729 0.07280159
vt 0.8543342 0.08634067
vt 0.8512245 0.08634067
vt 0.8574439 0.07957113
vt 0.8605536 0.07957113
vt 0.8605536 0.07957113
vt 0.8636633 0.08634067
vt 0.8605536 0.07957113
vt 0.8667729 0.08634067
vt 0.8512245 0.09937906
vt 0.8636633 0.09937906
vt 0.8605536 0.09937906
vt 0.8667729 0.09937906
vt 0.8667729 0.1119168
vt 0.8636633 0.1119168
vt 0.8667729 0.1161264
vt 0.8636633 0.1161264
vt 0.8605536 0.1119168
vt 0.8605536 0.1161264
vt 0.8574439 0.1119168
vt 0.8574439 0.1161264
vt 0.8543342 0.1119168
vt 0.8543342 0.1161264
vt 0.8512245 0.1119168
vt 0.8512245 0.1161264
vt 0.8543342 0.09937906
vt 0.8574439 0.09937906
vt 0.8543342 0.09311008
vt 0.8527794 0.1203361
vt 0.8621084 0.1203361
vt 0.8558891 0.1203361
vt 0.8589988 0.1203361
vt 0.8543342 0.08634067
vt 0.8574439 0.09311008
vt 0.8543342 0.09311008
vt 0.8543342 0.09937906
vt 0.8543342 0.08634067
vt 0.8574439 0.09311008
vt 0.8574439 0.09937906
vt 0.8574439 0.09937906
vt 0.8636633 0.08634067
vt 0.8605536 0.09937906
vt 0.8605536 0.09937906
vt 0.865218 0.1203361
vt 0.460041 0.2297747
vt 0.448241 0.2592374
vt 0.4635137 0.2592374
vt 0.4635137 0.2887003
vt 0.435307 0.2887003
vt 0.4635137 0.318163
vt 0.4249953 0.318163
vt 0.4635137 0.3476257
vt 0.4344212 0.3429999
vt 0.5004109 0.318163
vt 0.4917204 0.2887003
vt 0.4926063 0.3405868
vt 0.4787864 0.2592374
vt 0.4669864 0.2297747
vt 0.460041 0.2297747
vt 0.448241 0.2592374
vt 0.4635137 0.2592374
vt 0.4635137 0.2887003
vt 0.435307 0.2887003
vt 0.4635137 0.318163
vt 0.4249953 0.318163
vt 0.4635137 0.3476257
vt 0.4344212 0.3429999
vt 0.5004109 0.318163
vt 0.4917204 0.2887003
vt 0.4926063 0.3405868
vt 0.4787864 0.2592374
vt 0.4669864 0.2297747
vt 0.460041 0.2297747
vt 0.448241 0.2592374
vt 0.4635137 0.2592374
vt 0.4635137 0.2887003
vt 0.435307 0.2887003
vt 0.4635137 0.318163
vt 0.4249953 0.318163
vt 0.4635137 0.3476257
vt 0.4344212 0.3429999
vt 0.5004109 0.318163
vt 0.4917204 0.2887003
vt 0.4926063 0.3405868
vt 0.4787864 0.2592374
vt 0.4669864 0.2297747
vt 0.460041 0.2297747
vt 0.448241 0.2592374
vt 0.4635137 0.2592374
vt 0.4635137 0.2887003
vt 0.435307 0.2887003
vt 0.4635137 0.318163
vt 0.4249953 0.318163
vt 0.4635137 0.3476257
vt 0.4344212 0.3429999
vt 0.5004109 0.318163
vt 0.4917204 0.2887003
vt 0.4926063 0.3405868
vt 0.4787864 0.2592374
vt 0.4669864 0.2297747
vt 0.460041 0.2297747
vt 0.448241 0.2592374
vt 0.4635137 0.2592374
vt 0.4635137 0.2887003
vt 0.435307 0.2887003
vt 0.4635137 0.318163
vt 0.4249953 0.318163
vt 0.4635137 0.3476257
vt 0.4344212 0.3429999
vt 0.5004109 0.318163
vt 0.4917204 0.2887003
vt 0.4926063 0.3405868
vt 0.4787864 0.2592374
vt 0.4669864 0.2297747
vn -0.8524587 0.1626356 0.4968539
vn -0.8038482 -0.2312182 -0.5480568
vn -0.4017433 0.8532031 -0.3326362
vn 0.1820106 0.07105853 -0.9807257
vn 0.09784168 0.7033036 0.7041242
vn -0.8524587 0.1626356 0.4968539
vn 0.7343327 0.6474051 -0.2040155
vn 0.1820106 0.07105853 -0.9807257
vn -0.9989972 0.043872 0.008945719
vn -0.9994417 -0.01316581 -0.0307089
vn -0.299017 -0.03793926 -0.9534933
vn -0.3422961 -0.03657699 -0.9388798
vn 0.8183905 0.004187922 -0.5746472
vn 0.7932965 -0.05263397 -0.6065562
vn 0.7878511 0.055969 0.6133174
vn 0.8177996 0.01988151 0.5751597
vn -0.3469995 0.04448792 0.9368096
vn -0.2981693 0.07808908 0.9513134
vn -0.9994417 -0.01316581 -0.0307089
vn -0.9989972 0.043872 0.008945719
vn -0.4593775 -0.06308744 -0.885998
vn -0.9887095 0.1029328 0.1088961
vn 0.7161287 -0.1173504 -0.6880324
vn 0.8836576 0.02376983 0.4675302
vn 0.8836576 0.02376983 0.4675302
vn -0.172694 0.1588197 0.972087
vn 0.8836576 0.02376983 0.4675302
vn -0.9887095 0.1029328 0.1088961
vn -0.9672879 0.03987618 0.2505275
vn -0.04178128 0.292807 0.9552583
vn 0.9359743 0.1259983 0.3287497
vn -0.9672879 0.03987618 0.2505275
vn -0.8678036 -0.2022872 0.4538688
vn 0.08073897 0.3218103 0.9433553
vn -0.5636139 -0.5838594 0.5843353
vn 0.2764832 -0.06128752 0.9590625
vn 0.9505587 0.2420306 0.1945749
vn 0.9763258 -0.04421866 0.2117371
vn 0.5809516 -0.3160563 -0.750069
vn 0.5855561 -0.5357145 -0.6083865
vn -0.5325417 -0.5899944 -0.6068822
vn -0.3585183 -0.8453906 -0.3959539
vn -0.8678036 -0.2022872 0.4538688
vn -0.5636139 -0.5838594 0.5843353
vn -0.559033 -0.2744279 -0.7824138
vn 0.6392339 -0.2218304 -0.7363228
vn 0.7161287 -0.1173504 -0.6880324
vn -0.531765 -0.8417334 0.09333209
vn 0.7373629 -0.1959415 0.6464539
vn 0.1362428 -0.8109636 -0.5690131
vn 0.8879372 -0.4264367 -0.1723924
vn -0.4593775 -0.06308744 -0.885998
vn 0.8836576 0.02376983 0.4675302
vn 0.7161287 -0.1173504 -0.6880324
vn -0.559033 -0.2744279 -0.7824138
vn -0.4593775 -0.06308744 -0.885998
vn 0.8836576 0.02376983 0.4675302
vn 0.6392339 -0.2218304 -0.7363228
vn 0.7161287 -0.1173504 -0.6880324
vn -0.172694 0.1588197 0.972087
vn 0.9359743 0.1259983 0.3287497
vn 0.8836576 0.02376983 0.4675302
vn -0.08583916 -0.4401387 0.8938174
vn 0.6587522 0.4880748 -0.5725631
vn 0.6254463 0.5227273 -0.5792868
vn 0.6254464 0.5227272 -0.5792868
vn 0.3666717 0.7205128 -0.5885687
vn 0.3666717 0.7205129 -0.5885686
vn -0.120803 0.8727534 -0.4729779
vn -0.1218098 0.8721709 -0.4737936
vn -0.3484015 0.8615487 -0.3692563
vn -0.3503141 0.860155 -0.3706932
vn -0.1197964 0.8733341 -0.4721615
vn 0.3666717 0.7205127 -0.5885689
vn -0.3464863 0.8629358 -0.3678167
vn 0.6254464 0.5227271 -0.5792869
vn 0.6587522 0.4880748 -0.5725631
vn -0.6071795 0.3838125 0.6957162
vn -0.6161197 0.4168251 0.6683213
vn -0.6161197 0.4168251 0.6683212
vn -0.6447524 0.6313152 0.4309704
vn -0.6447523 0.6313152 0.4309704
vn -0.5493599 0.8345257 -0.04207881
vn -0.5481726 0.8353022 -0.04215643
vn -0.4484335 0.8518876 -0.2705455
vn -0.4459672 0.853138 -0.2706821
vn -0.5505458 0.8337477 -0.04200112
vn -0.6447525 0.6313151 0.4309704
vn -0.4508964 0.8506307 -0.2704068
vn -0.6161197 0.4168251 0.6683212
vn -0.6071795 0.3838125 0.6957162
vn 0.4324091 0.7829925 0.4471522
vn 0.4429913 0.7715172 0.4566397
vn 0.443064 0.7714368 0.4567051
vn 0.2650834 0.9152236 0.3034743
vn 0.2644157 0.9156111 0.3028868
vn -0.12464 0.9911706 -0.04522989
vn -0.125228 0.9910508 -0.04622036
vn -0.2958762 0.933504 -0.2025525
vn -0.2958087 0.9333481 -0.2033679
vn -0.1240516 0.991289 -0.04423906
vn 0.2657506 0.9148352 0.3040612
vn -0.2959436 0.9336593 -0.201737
vn 0.4431368 0.7713563 0.4567705
vn 0.4324091 0.7829925 0.4471522
vn -0.9387937 -0.1504138 -0.3099064
vn -0.9407911 -0.1186363 -0.3175495
vn -0.9407911 -0.1186363 -0.3175495
vn -0.9094891 0.1851482 -0.3722226
vn -0.9094891 0.1851482 -0.3722227
vn -0.6608706 0.6458634 -0.3822442
vn -0.6608916 0.6465696 -0.3810119
vn -0.4733327 0.8085082 -0.349672
vn -0.4731735 0.8096793 -0.3471688
vn -0.6608481 0.6451561 -0.3834755
vn -0.9094891 0.1851483 -0.3722226
vn -0.4734883 0.807331 -0.3521726
vn -0.9407911 -0.1186363 -0.3175495
vn -0.9387937 -0.1504138 -0.3099064
vn -0.2320834 -0.1839534 -0.9551432
vn -0.2396637 -0.1639165 -0.9569183
vn -0.2396168 -0.1640339 -0.9569099
vn -0.3367543 0.1342572 -0.9319718
vn -0.3370058 0.1351674 -0.9317494
vn -0.4192106 0.5946535 -0.6860391
vn -0.4195629 0.5953711 -0.685201
vn -0.4169156 0.7541922 -0.5073218
vn -0.4174675 0.7542999 -0.5067075
vn -0.4188578 0.5939351 -0.6868764
vn -0.3365026 0.1333473 -0.9321934
vn -0.4163635 0.7540839 -0.5079359
vn -0.2395698 -0.1641513 -0.9569016
vn -0.2320834 -0.1839534 -0.9551432
g Plant23_VGradient_0
f 3/3/3 2/2/2 1/1/1
f 3/3/3 4/4/4 2/2/2
f 3/3/3 6/6/6 5/5/5
f 3/3/3 5/5/5 7/7/7
f 3/3/3 7/7/7 8/8/8
f 11/11/11 10/10/10 9/9/9
f 12/12/12 11/11/11 9/9/9
f 13/13/13 11/11/11 12/12/12
f 14/14/14 13/13/13 12/12/12
f 15/15/15 13/13/13 14/14/14
f 16/16/16 15/15/15 14/14/14
f 17/17/17 15/15/15 16/16/16
f 18/18/18 17/17/17 16/16/16
f 19/19/19 17/17/17 18/18/18
f 20/20/20 19/19/19 18/18/18
f 21/21/21 12/12/12 9/9/9
f 22/22/22 21/21/21 9/9/9
f 23/23/23 14/14/14 12/12/12
f 21/21/21 23/23/23 12/12/12
f 24/24/24 16/16/16 14/14/14
f 23/23/23 25/25/25 14/14/14
f 26/26/26 18/18/18 16/16/16
f 27/27/27 26/26/26 16/16/16
f 28/28/28 20/20/20 18/18/18
f 26/26/26 28/28/28 18/18/18
f 22/22/22 29/29/29 21/21/21
f 26/26/26 30/30/30 28/28/28
f 31/31/31 30/30/30 26/26/26
f 30/30/30 32/32/32 28/28/28
f 33/33/33 32/32/32 30/30/30
f 34/34/34 33/33/33 30/30/30
f 34/34/34 30/30/30 31/31/31
f 35/35/35 33/33/33 34/34/34
f 36/36/36 35/35/35 34/34/34
f 36/36/36 34/34/34 37/37/37
f 37/37/37 34/34/34 31/31/31
f 38/38/38 36/36/36 37/37/37
f 38/38/38 37/37/37 39/39/39
f 40/40/40 38/38/38 39/39/39
f 40/40/40 39/39/39 41/41/41
f 42/42/42 40/40/40 41/41/41
f 42/42/42 41/41/41 43/43/43
f 43/43/43 41/41/41 29/29/29
f 44/44/44 42/42/42 43/43/43
f 41/41/41 45/45/45 29/29/29
f 41/41/41 39/39/39 45/45/45
f 39/39/39 46/46/46 45/45/45
f 37/37/37 31/31/31 46/46/46
f 39/39/39 37/37/37 46/46/46
f 45/45/45 46/46/46 47/47/47
f 42/42/42 44/44/44 48/48/48
f 49/49/49 36/36/36 38/38/38
f 40/40/40 42/42/42 50/50/50
f 38/38/38 40/40/40 51/51/51
f 29/29/29 45/45/45 52/52/52
f 46/46/46 31/31/31 53/53/53
f 56/56/56 55/55/55 54/54/54
f 59/59/59 58/58/58 57/57/57
f 62/62/62 61/61/61 60/60/60
f 63/63/63 35/35/35 36/36/36
f 66/66/66 65/65/65 64/64/64
f 66/66/66 67/67/67 65/65/65
f 67/67/67 68/68/68 65/65/65
f 67/67/67 69/69/69 68/68/68
f 69/69/69 70/70/70 68/68/68
f 69/69/69 71/71/71 70/70/70
f 71/71/71 72/72/72 70/70/70
f 73/73/73 69/69/69 67/67/67
f 74/74/74 73/73/73 67/67/67
f 74/74/74 67/67/67 66/66/66
f 75/75/75 71/71/71 69/69/69
f 73/73/73 75/75/75 69/69/69
f 76/76/76 74/74/74 66/66/66
f 76/76/76 66/66/66 77/77/77
f 80/80/80 79/79/79 78/78/78
f 80/80/80 81/81/81 79/79/79
f 81/81/81 82/82/82 79/79/79
f 81/81/81 83/83/83 82/82/82
f 83/83/83 84/84/84 82/82/82
f 83/83/83 85/85/85 84/84/84
f 85/85/85 86/86/86 84/84/84
f 87/87/87 83/83/83 81/81/81
f 88/88/88 87/87/87 81/81/81
f 88/88/88 81/81/81 80/80/80
f 89/89/89 85/85/85 83/83/83
f 87/87/87 89/89/89 83/83/83
f 90/90/90 88/88/88 80/80/80
f 90/90/90 80/80/80 91/91/91
f 94/94/94 93/93/93 92/92/92
f 94/94/94 95/95/95 93/93/93
f 95/95/95 96/96/96 93/93/93
f 95/95/95 97/97/97 96/96/96
f 97/97/97 98/98/98 96/96/96
f 97/97/97 99/99/99 98/98/98
f 99/99/99 100/100/100 98/98/98
f 101/101/101 97/97/97 95/95/95
f 102/102/102 101/101/101 95/95/95
f 102/102/102 95/95/95 94/94/94
f 103/103/103 99/99/99 97/97/97
f 101/101/101 103/103/103 97/97/97
f 104/104/104 102/102/102 94/94/94
f 104/104/104 94/94/94 105/105/105
f 108/108/108 107/107/107 106/106/106
f 108/108/108 109/109/109 107/107/107
f 109/109/109 110/110/110 107/107/107
f 109/109/109 111/111/111 110/110/110
f 111/111/111 112/112/112 110/110/110
f 111/111/111 113/113/113 112/112/112
f 113/113/113 114/114/114 112/112/112
f 115/115/115 111/111/111 109/109/109
f 116/116/116 115/115/115 109/109/109
f 116/116/116 109/109/109 108/108/108
f 117/117/117 113/113/113 111/111/111
f 115/115/115 117/117/117 111/111/111
f 118/118/118 116/116/116 108/108/108
f 118/118/118 108/108/108 119/119/119
f 122/122/122 121/121/121 120/120/120
f 122/122/122 123/123/123 121/121/121
f 123/123/123 124/124/124 121/121/121
f 123/123/123 125/125/125 124/124/124
f 125/125/125 126/126/126 124/124/124
f 125/125/125 127/127/127 126/126/126
f 127/127/127 128/128/128 126/126/126
f 129/129/129 125/125/125 123/123/123
f 130/130/130 129/129/129 123/123/123
f 130/130/130 123/123/123 122/122/122
f 131/131/131 127/127/127 125/125/125
f 129/129/129 131/131/131 125/125/125
f 132/132/132 130/130/130 122/122/122
f 132/132/132 122/122/122 133/133/133
