g Hook
v -0.003144605 -0.1618943 0.06404151
v -0.003144605 -0.1597981 0.06404151
v 0.003144605 -0.1597981 0.06404151
v 0.003144605 -0.1618943 0.06404151
v -0.003144605 -0.1597981 -0.06404151
v -0.003144605 -0.1618943 -0.06404151
v 0.003144605 -0.1618943 -0.06404151
v 0.003144605 -0.1597981 -0.06404151
v -0.007805835 -0.1998775 -0.00780584
v 0.007805835 -0.1998775 0.007805837
v 0.007805835 -0.1998775 -0.00780584
v -0.007805835 -0.1998775 0.007805837
v 0.003144605 -0.1618943 0.06404151
v -0.003144605 -0.1618943 0.06404151
v -0.07492566 -0.1667423 0.003151359
v -0.07492566 -0.1667423 -0.003151364
v 0.07492566 -0.1668499 0.003474289
v 0.07492566 -0.164534 0.003474289
v 0.07492566 -0.164534 -0.003474294
v 0.07492566 -0.1668499 -0.003474294
v -0.07492566 -0.1667423 -0.003151364
v -0.07492566 -0.1646416 -0.003151364
v -0.07492566 -0.1646416 0.003151359
v -0.07492566 -0.1667423 0.003151359
v 0.007805835 -0.1998775 0.007805837
v 0.07492566 -0.1668499 0.003474289
v 0.07492566 -0.1668499 -0.003474294
v 0.007805835 -0.1998775 -0.00780584
v 0.007805835 -0.1998775 -0.00780584
v 0.07492566 -0.1668499 -0.003474294
v 0.07492566 -0.164534 -0.003474294
v 0.007805835 -0.1842658 -0.00780584
v 0.007805835 -0.1842658 -0.00780584
v 0.07492566 -0.164534 -0.003474294
v 0.07492566 -0.164534 0.003474289
v 0.007805835 -0.1842658 0.007805837
v 0.007805835 -0.1842658 0.007805837
v 0.07492566 -0.164534 0.003474289
v 0.07492566 -0.1668499 0.003474289
v 0.007805835 -0.1998775 0.007805837
v -0.007805835 -0.1998775 0.007805837
v -0.07492566 -0.1667423 0.003151359
v -0.07492566 -0.1646416 0.003151359
v -0.007805835 -0.1842658 0.007805837
v -0.007805835 -0.1842658 0.007805837
v -0.07492566 -0.1646416 0.003151359
v -0.07492566 -0.1646416 -0.003151364
v -0.007805835 -0.1842658 -0.00780584
v -0.007805835 -0.1842658 -0.00780584
v -0.07492566 -0.1646416 -0.003151364
v -0.07492566 -0.1667423 -0.003151364
v -0.007805835 -0.1998775 -0.00780584
v 0.007805835 -0.1998775 0.007805837
v 0.003144605 -0.1618943 0.06404151
v 0.003144605 -0.1597981 0.06404151
v 0.007805835 -0.1842658 0.007805837
v 0.007805835 -0.1842658 0.007805837
v 0.003144605 -0.1597981 0.06404151
v -0.003144605 -0.1597981 0.06404151
v -0.007805835 -0.1842658 0.007805837
v -0.007805835 -0.1842658 0.007805837
v -0.003144605 -0.1597981 0.06404151
v -0.003144605 -0.1618943 0.06404151
v -0.007805835 -0.1998775 0.007805837
v -0.007805835 -0.1842658 -0.00780584
v -0.003144605 -0.1597981 -0.06404151
v 0.003144605 -0.1597981 -0.06404151
v 0.007805835 -0.1842658 -0.00780584
v 0.007805835 -0.1842658 -0.00780584
v 0.003144605 -0.1597981 -0.06404151
v 0.003144605 -0.1618943 -0.06404151
v 0.007805835 -0.1998775 -0.00780584
v 0.007805835 -0.1998775 -0.00780584
v 0.003144605 -0.1618943 -0.06404151
v -0.003144605 -0.1618943 -0.06404151
v -0.007805835 -0.1998775 -0.00780584
v -0.007805835 -0.1998775 -0.00780584
v -0.003144605 -0.1618943 -0.06404151
v -0.003144605 -0.1597981 -0.06404151
v -0.007805835 -0.1842658 -0.00780584
v -0.007805835 -0.1842658 0.007805837
v -0.005249907 -0.1253615 0.005249904
v 0.005249907 -0.1253615 0.005249904
v 0.007805835 -0.1842658 0.007805837
v 0.007805835 -0.1842658 0.007805837
v 0.005249907 -0.1253615 0.005249904
v 0.005249907 -0.1253615 -0.00524991
v 0.007805835 -0.1842658 -0.00780584
v 0.007805835 -0.1842658 -0.00780584
v 0.005249907 -0.1253615 -0.00524991
v -0.005249907 -0.1253615 -0.00524991
v -0.007805835 -0.1842658 -0.00780584
v -0.007805835 -0.1842658 -0.00780584
v -0.005249907 -0.1253615 -0.00524991
v -0.005249907 -0.1253615 0.005249904
v -0.007805835 -0.1842658 0.007805837
v 0 -0.1399159 -0.02025418
v 0 -0.14568 -7.026797E-09
v 0.01432186 -0.1399159 -0.01432187
v 0 -0.1235015 -0.03742484
v 0.02646335 -0.1235015 -0.02646336
v 0 -0.09893551 -0.0488979
v 0.03457603 -0.09893551 -0.03457604
v 0 -0.06995797 -0.05292671
v 0.03742483 -0.06995797 -0.03742484
v 0 -0.04098044 -0.0488979
v 0.03457603 -0.04098044 -0.03457604
v 0 -0.01641446 -0.03742484
v 0.02646335 -0.01641446 -0.02646336
v 0 -8.462464E-09 -0.02025418
v 0.01432186 -8.462464E-09 -0.01432187
v 0 0.005763995 -7.026797E-09
v -0.01432186 -8.462464E-09 -0.01432187
v 0 0.005763995 -7.026797E-09
v -0.02646335 -0.01641446 -0.02646336
v -0.03457603 -0.04098044 -0.03457604
v -0.03742483 -0.06995797 -0.03742484
v -0.02025417 -8.462464E-09 -7.026797E-09
v 0 0.005763995 -7.026797E-09
v -0.03742483 -0.01641446 -7.026797E-09
v -0.03457603 -0.09893551 -0.03457604
v -0.0488979 -0.04098044 -7.026797E-09
v -0.01432186 -8.462464E-09 0.01432186
v 0 0.005763995 -7.026797E-09
v -0.02646335 -0.01641446 0.02646334
v -0.0529267 -0.06995797 -7.026797E-09
v -0.02646335 -0.1235015 -0.02646336
v 0 -8.462464E-09 0.02025417
v 0 0.005763995 -7.026797E-09
v -0.03457603 -0.04098044 0.03457603
v -0.0488979 -0.09893551 -7.026797E-09
v -0.01432186 -0.1399159 -0.01432187
v 0 -0.14568 -7.026797E-09
v 0 -0.01641446 0.03742483
v -0.03742483 -0.06995797 0.03742483
v -0.03742483 -0.1235015 -7.026797E-09
v 0.01432186 -8.462464E-09 0.01432186
v 0 0.005763995 -7.026797E-09
v 0 -0.04098044 0.04889789
v -0.03457603 -0.09893551 0.03457603
v -0.02025417 -0.1399159 -7.026797E-09
v 0 -0.14568 -7.026797E-09
v 0.02646335 -0.01641446 0.02646335
v 0 -0.06995797 0.0529267
v -0.02646335 -0.1235015 0.02646334
v 0.02025418 -8.462464E-09 -7.026797E-09
v 0 0.005763995 -7.026797E-09
v 0.03457604 -0.04098044 0.03457603
v 0 -0.09893551 0.04889789
v -0.01432186 -0.1399159 0.01432186
v 0 -0.14568 -7.026797E-09
v 0.03742483 -0.01641446 -7.026797E-09
v 0.03742483 -0.06995797 0.03742483
v 0 -0.1235015 0.03742483
v 0.01432186 -8.462464E-09 -0.01432187
v 0 0.005763995 -7.026797E-09
v 0.02646335 -0.01641446 -0.02646336
v 0.0488979 -0.04098044 -7.026797E-09
v 0.03457603 -0.04098044 -0.03457604
v 0.05292671 -0.06995797 -7.026797E-09
v 0.03742483 -0.06995797 -0.03742484
v 0.03457604 -0.09893551 0.03457603
v 0.0488979 -0.09893551 -7.026797E-09
v 0.03457603 -0.09893551 -0.03457604
v 0.02646335 -0.1235015 0.02646335
v 0.03742483 -0.1235015 -7.026797E-09
v 0.02646335 -0.1235015 -0.02646336
v 0 -0.1399159 0.02025417
v 0 -0.14568 -7.026797E-09
v 0.01432186 -0.1399159 0.01432186
v 0 -0.14568 -7.026797E-09
v 0.02025418 -0.1399159 -7.026797E-09
v 0 -0.14568 -7.026797E-09
v 0.01432186 -0.1399159 -0.01432187
v 0 -0.14568 -7.026797E-09
vt 0.8846277 0.5445423
vt 0.8846112 0.548798
vt 0.8808412 0.5494369
vt 0.8808587 0.5451241
vt 0.9695907 0.558348
vt 0.9695908 0.5532407
vt 0.9664218 0.5540803
vt 0.9664209 0.5592699
vt 0.9311382 0.4646901
vt 0.9120884 0.4641935
vt 0.9224463 0.4633532
vt 0.920953 0.4654723
vt 0.8808587 0.5451241
vt 0.8846277 0.5445423
vt 0.9556914 0.5324609
vt 0.9595154 0.5327034
vt 0.8679583 0.5451992
vt 0.8679295 0.5514011
vt 0.8728585 0.552009
vt 0.8728862 0.5457322
vt 0.9595154 0.5327034
vt 0.9595135 0.5367113
vt 0.9556888 0.5364382
vt 0.9556914 0.5324609
vt 0.9120884 0.4641935
vt 0.8679583 0.5451992
vt 0.8728862 0.5457322
vt 0.9224463 0.4633532
vt 0.9224463 0.4633532
vt 0.8728862 0.5457322
vt 0.8728585 0.552009
vt 0.9223688 0.4989969
vt 0.9223688 0.4989969
vt 0.8728585 0.552009
vt 0.8679295 0.5514011
vt 0.9119961 0.4990407
vt 0.9119961 0.4990407
vt 0.8679295 0.5514011
vt 0.8679583 0.5451992
vt 0.9120884 0.4641935
vt 0.920953 0.4654723
vt 0.9556914 0.5324609
vt 0.9556888 0.5364382
vt 0.9208776 0.4991075
vt 0.9208776 0.4991075
vt 0.9556888 0.5364382
vt 0.9595135 0.5367113
vt 0.9310769 0.4990667
vt 0.9310769 0.4990667
vt 0.9595135 0.5367113
vt 0.9595154 0.5327034
vt 0.9311382 0.4646901
vt 0.9120884 0.4641935
vt 0.8808587 0.5451241
vt 0.8808412 0.5494369
vt 0.9119961 0.4990407
vt 0.9119961 0.4990407
vt 0.8808412 0.5494369
vt 0.8846112 0.548798
vt 0.9208776 0.4991075
vt 0.9208776 0.4991075
vt 0.8846112 0.548798
vt 0.8846277 0.5445423
vt 0.920953 0.4654723
vt 0.9310769 0.4990667
vt 0.9695907 0.558348
vt 0.9664209 0.5592699
vt 0.9223688 0.4989969
vt 0.9223688 0.4989969
vt 0.9664209 0.5592699
vt 0.9664218 0.5540803
vt 0.9224463 0.4633532
vt 0.9224463 0.4633532
vt 0.9664218 0.5540803
vt 0.9695908 0.5532407
vt 0.9311382 0.4646901
vt 0.9311382 0.4646901
vt 0.9695908 0.5532407
vt 0.9695907 0.558348
vt 0.9310769 0.4990667
vt 0.9208776 0.4991075
vt 0.9208214 0.6281308
vt 0.9148244 0.6312298
vt 0.9119961 0.4990407
vt 0.9119961 0.4990407
vt 0.9148244 0.6312298
vt 0.9218185 0.6332282
vt 0.9223688 0.4989969
vt 0.9223688 0.4989969
vt 0.9218185 0.6332282
vt 0.9277364 0.6300346
vt 0.9310769 0.4990667
vt 0.9310769 0.4990667
vt 0.9277364 0.6300346
vt 0.9208214 0.6281308
vt 0.9208776 0.4991075
vt 0.403732 0.415518
vt 0.407675 0.4143822
vt 0.403732 0.4115808
vt 0.4007446 0.4154731
vt 0.4007446 0.4115359
vt 0.397699 0.4153614
vt 0.397699 0.4114244
vt 0.3946133 0.4152039
vt 0.3946133 0.4112668
vt 0.3915281 0.4150472
vt 0.3915281 0.41111
vt 0.3884841 0.4149375
vt 0.3884842 0.4110003
vt 0.3821374 0.4159605
vt 0.3821374 0.4127146
vt 0.3790716 0.4155608
vt 0.3821374 0.4192064
vt 0.3790715 0.4175834
vt 0.3884841 0.4188747
vt 0.3915281 0.4189844
vt 0.3946132 0.4191411
vt 0.3821373 0.4224523
vt 0.3790716 0.4208293
vt 0.3884842 0.4228118
vt 0.3976989 0.4192986
vt 0.3915281 0.4229214
vt 0.3821373 0.4256983
vt 0.3790716 0.4240753
vt 0.3884841 0.426749
vt 0.3946132 0.4230783
vt 0.4007445 0.4194102
vt 0.3821374 0.4289443
vt 0.3790715 0.4273213
vt 0.3915281 0.4268586
vt 0.397699 0.4232358
vt 0.4037319 0.4194551
vt 0.4076748 0.4183194
vt 0.3884841 0.4306861
vt 0.3946132 0.4270154
vt 0.4007446 0.4233473
vt 0.3821374 0.4321903
vt 0.3790716 0.4305673
vt 0.3915281 0.4307958
vt 0.3976989 0.4271729
vt 0.403732 0.4233923
vt 0.4076749 0.4222566
vt 0.3884842 0.4346233
vt 0.3946132 0.4309525
vt 0.4007445 0.4272846
vt 0.3821374 0.4354362
vt 0.3790716 0.4338132
vt 0.3915281 0.434733
vt 0.3976989 0.4311101
vt 0.403732 0.4273295
vt 0.4076749 0.4261937
vt 0.3884841 0.4385605
vt 0.3946133 0.4348898
vt 0.4007445 0.4312216
vt 0.3821373 0.438682
vt 0.3797586 0.4367533
vt 0.3884841 0.4424976
vt 0.3915281 0.4386701
vt 0.391528 0.4426073
vt 0.3946132 0.4388269
vt 0.3946131 0.4427641
vt 0.397699 0.4350473
vt 0.3976989 0.4389844
vt 0.3976989 0.4429215
vt 0.4007446 0.4351588
vt 0.4007446 0.439096
vt 0.4007445 0.4430332
vt 0.4037319 0.4312666
vt 0.4076748 0.4301309
vt 0.403732 0.4352038
vt 0.407675 0.4340681
vt 0.403732 0.4391409
vt 0.407675 0.4380052
vt 0.4037319 0.4430781
vt 0.4074458 0.4409229
vn 0 0 1
vn 0 0 1
vn 0 0 1
vn 0 0 1
vn 0 0 -1
vn 0 0 -1
vn 0 0 -1
vn 0 0 -1
vn -0.2142788 -0.9456962 -0.2444246
vn 0.2173183 -0.9459072 0.240899
vn 0.2173183 -0.9459072 -0.240899
vn -0.2142788 -0.9456962 0.2444246
vn 0 -0.8286838 0.5597171
vn 0 -0.8286838 0.5597171
vn -0.4426682 -0.8966855 0
vn -0.4426682 -0.8966855 0
vn 1 0 0
vn 1 0 0
vn 1 0 0
vn 1 0 0
vn -1 0 0
vn -1 0 0
vn -1 0 0
vn -1 0 0
vn 0.2173183 -0.9459072 0.240899
vn 0.4415111 -0.8972558 0
vn 0.4415111 -0.8972558 0
vn 0.2173183 -0.9459072 -0.240899
vn 0.06440053 0 -0.9979241
vn 0.06440052 0 -0.9979241
vn 0.06440052 0 -0.9979241
vn 0.06440052 0 -0.9979241
vn -0.2820436 0.9594015 0
vn -0.2820436 0.9594015 0
vn -0.2820436 0.9594015 0
vn -0.2820436 0.9594015 0
vn 0.06440052 0 0.9979241
vn 0.06440052 0 0.9979241
vn 0.06440052 0 0.9979241
vn 0.06440052 0 0.9979241
vn -0.06917957 0 0.9976043
vn -0.06917958 0 0.9976043
vn -0.06917957 0 0.9976043
vn -0.06917957 0 0.9976043
vn 0.2806268 0.9598169 0
vn 0.2806269 0.9598169 0
vn 0.2806269 0.9598169 0
vn 0.2806268 0.9598169 0
vn -0.06917953 0 -0.9976043
vn -0.06917954 0 -0.9976043
vn -0.06917955 0 -0.9976043
vn -0.06917953 0 -0.9976043
vn 0.9965824 0 0.08260392
vn 0.9965824 0 0.08260391
vn 0.9965824 0 0.0826039
vn 0.9965824 0 0.0826039
vn 0 0.9169663 -0.3989649
vn 0 0.9169663 -0.3989649
vn 0 0.9169663 -0.3989649
vn 0 0.9169663 -0.3989649
vn -0.9965824 0 0.0826039
vn -0.9965824 0 0.0826039
vn -0.9965824 0 0.08260391
vn -0.9965824 0 0.08260392
vn 0 0.9169663 0.3989649
vn 0 0.9169663 0.3989649
vn 0 0.9169663 0.3989649
vn 0 0.9169663 0.3989649
vn 0.9965824 0 -0.0826039
vn 0.9965824 0 -0.0826039
vn 0.9965824 0 -0.08260391
vn 0.9965824 0 -0.08260392
vn 0.2173183 -0.9459072 -0.240899
vn 0 -0.8286838 -0.5597171
vn 0 -0.8286838 -0.5597171
vn -0.2142788 -0.9456962 -0.2444246
vn -0.9965824 0 -0.08260392
vn -0.9965824 0 -0.08260391
vn -0.9965824 0 -0.0826039
vn -0.9965824 0 -0.0826039
vn 0 0.04335048 0.99906
vn 0 0.04335048 0.99906
vn 0 0.04335048 0.99906
vn 0 0.04335048 0.99906
vn 0.99906 0.04335041 0
vn 0.99906 0.04335042 0
vn 0.99906 0.04335042 0
vn 0.99906 0.04335041 0
vn 0 0.04335047 -0.99906
vn 0 0.04335047 -0.99906
vn 0 0.04335047 -0.99906
vn 0 0.04335047 -0.99906
vn -0.99906 0.04335041 0
vn -0.99906 0.04335042 0
vn -0.99906 0.04335042 0
vn -0.99906 0.04335041 0
vn 0 -0.7753876 -0.6314856
vn 0 -1 -3.071833E-07
vn 0.4465285 -0.7753872 -0.4465277
vn 0 -0.5216796 -0.8531415
vn 0.6032621 -0.5216796 -0.6032622
vn 0 -0.2561407 -0.9666395
vn 0.6835172 -0.2561408 -0.6835175
vn 0 0 -1
vn 0.7071066 0 -0.7071068
vn 0 0.2561409 -0.9666394
vn 0.6835174 0.2561409 -0.6835173
vn 0 0.5216793 -0.8531416
vn 0.603262 0.5216795 -0.6032624
vn 0 0.775387 -0.6314862
vn 0.4465283 0.7753869 -0.4465285
vn 0 1 0
vn -0.4465283 0.7753869 -0.4465285
vn 0 1 0
vn -0.6032621 0.5216795 -0.6032622
vn -0.6835174 0.2561409 -0.6835172
vn -0.7071068 0 -0.7071068
vn -0.6314865 0.7753869 0
vn 0 1 0
vn -0.8531415 0.5216795 0
vn -0.6835172 -0.2561409 -0.6835175
vn -0.9666395 0.2561409 0
vn -0.4465283 0.7753869 0.4465285
vn 0 1 0
vn -0.6032622 0.5216796 0.6032621
vn -1 0 0
vn -0.6032622 -0.5216796 -0.6032621
vn 0 0.775387 0.6314862
vn 0 1 0
vn -0.6835176 0.2561409 0.6835171
vn -0.9666395 -0.2561409 0
vn -0.4465283 -0.775387 -0.4465281
vn 0 -1 -3.071833E-07
vn 0 0.5216796 0.8531414
vn -0.7071069 0 0.7071066
vn -0.8531415 -0.5216796 0
vn 0.4465283 0.7753869 0.4465285
vn 0 1 0
vn 0 0.2561409 0.9666394
vn -0.6835172 -0.2561408 0.6835174
vn -0.6314865 -0.7753869 -2.047292E-07
vn 0 -1 -3.071833E-07
vn 0.6032621 0.5216796 0.6032622
vn 0 0 1
vn -0.6032622 -0.5216795 0.6032622
vn 0.6314864 0.775387 0
vn 0 1 0
vn 0.6835173 0.2561409 0.6835173
vn 0 -0.2561409 0.9666395
vn -0.4465285 -0.7753872 0.446528
vn 0 -1 -3.071833E-07
vn 0.8531414 0.5216796 1.46772E-07
vn 0.7071069 0 0.7071066
vn 0 -0.5216796 0.8531414
vn 0.4465283 0.7753869 -0.4465285
vn 0 1 0
vn 0.603262 0.5216795 -0.6032624
vn 0.9666394 0.2561409 0
vn 0.6835174 0.2561409 -0.6835173
vn 1 0 0
vn 0.7071066 0 -0.7071068
vn 0.6835175 -0.2561409 0.6835172
vn 0.9666394 -0.2561409 0
vn 0.6835172 -0.2561408 -0.6835175
vn 0.6032622 -0.5216796 0.6032621
vn 0.8531414 -0.5216796 0
vn 0.6032621 -0.5216796 -0.6032622
vn 0 -0.7753876 0.6314856
vn 0 -1 -3.071833E-07
vn 0.4465284 -0.7753872 0.446528
vn 0 -1 -3.071833E-07
vn 0.6314864 -0.775387 2.757295E-07
vn 0 -1 -3.071833E-07
vn 0.4465285 -0.7753872 -0.4465277
vn 0 -1 -3.071833E-07
g Hook_0
f 3/3/3 2/2/2 1/1/1
f 4/4/4 3/3/3 1/1/1
f 7/7/7 6/6/6 5/5/5
f 8/8/8 7/7/7 5/5/5
f 11/11/11 10/10/10 9/9/9
f 10/10/10 12/12/12 9/9/9
f 10/10/10 13/13/13 12/12/12
f 13/13/13 14/14/14 12/12/12
f 12/12/12 15/15/15 9/9/9
f 15/15/15 16/16/16 9/9/9
f 19/19/19 18/18/18 17/17/17
f 20/20/20 19/19/19 17/17/17
f 23/23/23 22/22/22 21/21/21
f 24/24/24 23/23/23 21/21/21
f 27/27/27 26/26/26 25/25/25
f 28/28/28 27/27/27 25/25/25
f 31/31/31 30/30/30 29/29/29
f 32/32/32 31/31/31 29/29/29
f 35/35/35 34/34/34 33/33/33
f 36/36/36 35/35/35 33/33/33
f 39/39/39 38/38/38 37/37/37
f 40/40/40 39/39/39 37/37/37
f 43/43/43 42/42/42 41/41/41
f 44/44/44 43/43/43 41/41/41
f 47/47/47 46/46/46 45/45/45
f 48/48/48 47/47/47 45/45/45
f 51/51/51 50/50/50 49/49/49
f 52/52/52 51/51/51 49/49/49
f 55/55/55 54/54/54 53/53/53
f 56/56/56 55/55/55 53/53/53
f 59/59/59 58/58/58 57/57/57
f 60/60/60 59/59/59 57/57/57
f 63/63/63 62/62/62 61/61/61
f 64/64/64 63/63/63 61/61/61
f 67/67/67 66/66/66 65/65/65
f 68/68/68 67/67/67 65/65/65
f 71/71/71 70/70/70 69/69/69
f 72/72/72 71/71/71 69/69/69
f 75/75/75 74/74/74 73/73/73
f 76/76/76 75/75/75 73/73/73
f 79/79/79 78/78/78 77/77/77
f 80/80/80 79/79/79 77/77/77
f 83/83/83 82/82/82 81/81/81
f 84/84/84 83/83/83 81/81/81
f 87/87/87 86/86/86 85/85/85
f 88/88/88 87/87/87 85/85/85
f 91/91/91 90/90/90 89/89/89
f 92/92/92 91/91/91 89/89/89
f 95/95/95 94/94/94 93/93/93
f 96/96/96 95/95/95 93/93/93
f 99/99/99 98/98/98 97/97/97
f 97/97/97 100/100/100 99/99/99
f 100/100/100 101/101/101 99/99/99
f 100/100/100 102/102/102 101/101/101
f 102/102/102 103/103/103 101/101/101
f 102/102/102 104/104/104 103/103/103
f 104/104/104 105/105/105 103/103/103
f 104/104/104 106/106/106 105/105/105
f 106/106/106 107/107/107 105/105/105
f 106/106/106 108/108/108 107/107/107
f 108/108/108 109/109/109 107/107/107
f 108/108/108 110/110/110 109/109/109
f 110/110/110 111/111/111 109/109/109
f 110/110/110 112/112/112 111/111/111
f 113/113/113 110/110/110 108/108/108
f 113/113/113 114/114/114 110/110/110
f 115/115/115 108/108/108 106/106/106
f 115/115/115 113/113/113 108/108/108
f 116/116/116 106/106/106 104/104/104
f 116/116/116 115/115/115 106/106/106
f 117/117/117 104/104/104 102/102/102
f 117/117/117 116/116/116 104/104/104
f 118/118/118 113/113/113 115/115/115
f 118/118/118 119/119/119 113/113/113
f 120/120/120 115/115/115 116/116/116
f 120/120/120 118/118/118 115/115/115
f 121/121/121 117/117/117 102/102/102
f 121/121/121 102/102/102 100/100/100
f 122/122/122 116/116/116 117/117/117
f 122/122/122 120/120/120 116/116/116
f 123/123/123 118/118/118 120/120/120
f 123/123/123 124/124/124 118/118/118
f 125/125/125 123/123/123 120/120/120
f 125/125/125 120/120/120 122/122/122
f 126/126/126 122/122/122 117/117/117
f 126/126/126 117/117/117 121/121/121
f 127/127/127 121/121/121 100/100/100
f 127/127/127 100/100/100 97/97/97
f 128/128/128 123/123/123 125/125/125
f 128/128/128 129/129/129 123/123/123
f 130/130/130 125/125/125 122/122/122
f 130/130/130 122/122/122 126/126/126
f 131/131/131 126/126/126 121/121/121
f 131/131/131 121/121/121 127/127/127
f 132/132/132 127/127/127 97/97/97
f 97/97/97 133/133/133 132/132/132
f 134/134/134 128/128/128 125/125/125
f 134/134/134 125/125/125 130/130/130
f 135/135/135 130/130/130 126/126/126
f 135/135/135 126/126/126 131/131/131
f 136/136/136 127/127/127 132/132/132
f 136/136/136 131/131/131 127/127/127
f 137/137/137 128/128/128 134/134/134
f 137/137/137 138/138/138 128/128/128
f 139/139/139 134/134/134 130/130/130
f 139/139/139 130/130/130 135/135/135
f 140/140/140 135/135/135 131/131/131
f 140/140/140 131/131/131 136/136/136
f 141/141/141 136/136/136 132/132/132
f 132/132/132 142/142/142 141/141/141
f 143/143/143 137/137/137 134/134/134
f 143/143/143 134/134/134 139/139/139
f 144/144/144 139/139/139 135/135/135
f 144/144/144 135/135/135 140/140/140
f 145/145/145 136/136/136 141/141/141
f 145/145/145 140/140/140 136/136/136
f 146/146/146 137/137/137 143/143/143
f 146/146/146 147/147/147 137/137/137
f 148/148/148 143/143/143 139/139/139
f 148/148/148 139/139/139 144/144/144
f 149/149/149 144/144/144 140/140/140
f 149/149/149 140/140/140 145/145/145
f 150/150/150 145/145/145 141/141/141
f 141/141/141 151/151/151 150/150/150
f 152/152/152 146/146/146 143/143/143
f 152/152/152 143/143/143 148/148/148
f 153/153/153 148/148/148 144/144/144
f 153/153/153 144/144/144 149/149/149
f 154/154/154 145/145/145 150/150/150
f 154/154/154 149/149/149 145/145/145
f 155/155/155 146/146/146 152/152/152
f 155/155/155 156/156/156 146/146/146
f 157/157/157 155/155/155 152/152/152
f 158/158/158 152/152/152 148/148/148
f 157/157/157 152/152/152 158/158/158
f 158/158/158 148/148/148 153/153/153
f 159/159/159 157/157/157 158/158/158
f 159/159/159 158/158/158 160/160/160
f 160/160/160 158/158/158 153/153/153
f 161/161/161 159/159/159 160/160/160
f 162/162/162 153/153/153 149/149/149
f 160/160/160 153/153/153 162/162/162
f 162/162/162 149/149/149 154/154/154
f 161/161/161 160/160/160 163/163/163
f 163/163/163 160/160/160 162/162/162
f 164/164/164 161/161/161 163/163/163
f 165/165/165 162/162/162 154/154/154
f 163/163/163 162/162/162 165/165/165
f 164/164/164 163/163/163 166/166/166
f 166/166/166 163/163/163 165/165/165
f 167/167/167 164/164/164 166/166/166
f 165/165/165 154/154/154 168/168/168
f 168/168/168 154/154/154 150/150/150
f 150/150/150 169/169/169 168/168/168
f 170/170/170 165/165/165 168/168/168
f 166/166/166 165/165/165 170/170/170
f 168/168/168 171/171/171 170/170/170
f 167/167/167 166/166/166 172/172/172
f 172/172/172 166/166/166 170/170/170
f 170/170/170 173/173/173 172/172/172
f 174/174/174 167/167/167 172/172/172
f 172/172/172 175/175/175 174/174/174
