g StandingTorch
v 0.01456293 1.048416 -0.02478378
v 0.0268674 1.056605 -0.03808236
v -0.01978015 1.059909 -0.02496972
v -0.02181856 1.073835 -0.03828981
v 0.02051785 1.092861 -0.03860211
v -0.03709472 1.065698 0.006917953
v -0.02706054 1.114445 -0.03873835
v -0.04631933 1.082511 0.006917953
v -0.04795504 1.114075 0.003512194
v -0.03709472 1.065698 0.006917953
v -0.04631933 1.082511 0.006917953
v -0.01978015 1.059909 0.03880563
v -0.02181856 1.073835 0.05212571
v 0.0145594 1.048491 0.03861199
v -0.02706054 1.114445 0.05257425
v -0.04795504 1.114075 0.003512194
v 0.02051785 1.092861 0.05243802
v 0.02686217 1.056668 0.05190951
v 0.04408146 1.082979 0.006917953
v 0.04107829 1.052862 0.005009147
v 0.03156581 1.042831 0.006917953
v 0.01456293 1.048416 -0.02478378
v 0.0268674 1.056605 -0.03808236
v 0.02051785 1.092861 -0.03860211
v -0.01372724 -0.012537 -0.01685824
v 0 -0.01253688 0.006917953
v 0.01372724 -0.01253694 -0.01685824
v 0.02745448 -0.01253706 0.006917953
v 0.01372724 -0.01253694 0.03069415
v -0.01372724 -0.012537 0.03069415
v -0.02745448 -0.01253694 0.006917953
v -0.01372724 -0.012537 -0.01685824
v -0.03651499 1.231313 0.006917953
v 0 1.238736 0.006917953
v -0.0182575 1.231313 0.03854084
v -0.05479145 1.21539 0.006917953
v -0.0271151 1.21365 0.0553894
v -0.04651356 1.195508 0.006917953
v 0.0182575 1.231313 0.03854084
v 0 1.238736 0.006917953
v -0.0217123 1.186452 0.05264902
v 0.02823782 1.210164 0.0553894
v -0.02287936 1.177808 0.04534387
v -0.04371929 1.185422 0.006917953
v -0.04946423 1.170659 0.004398197
v -0.02789092 1.16953 0.05264902
v 0.01880002 1.162595 0.04534387
v 0.0217123 1.151417 0.05264902
v 0.03963971 1.154988 0.006917953
v 0.04651356 1.142361 0.006917953
v 0.0217123 1.151417 -0.03881311
v 0.01880002 1.162595 -0.03150797
v 0.01880002 1.162595 0.04534387
v 0.02789092 1.168339 0.05264902
v 0.04948139 1.163235 0.007422924
v 0.03963971 1.154988 0.006917953
v 0.0559144 1.208417 0.006917953
v 0.02789092 1.168339 -0.03881311
v 0.01880002 1.162595 -0.03150797
v 0.02823782 1.210164 -0.0415535
v 0.03651499 1.231313 0.006917953
v 0 1.238736 0.006917953
v 0.0182575 1.231313 -0.02470493
v 0 1.238736 0.006917953
v 0.01456293 1.048416 -0.02478378
v -0.01978015 1.059909 -0.02496972
v -0.02394624 0.9962695 -0.02045659
v 0.01173397 0.9962707 -0.02750714
v 0.03156581 1.042831 0.006917953
v 0.03568004 0.9962707 -0.0001326962
v 0.02394614 0.9962707 0.03429234
v 0.0145594 1.048491 0.03861199
v -0.01173397 0.9962707 0.04134316
v -0.01978015 1.059909 0.03880563
v -0.03568004 0.9962707 0.01396862
v -0.03709472 1.065698 0.006917953
v -0.01978015 1.059909 -0.02496972
v -0.02394624 0.9962695 -0.02045659
v -0.04795504 1.114075 0.003512194
v -0.03971476 1.126062 0.006917953
v -0.02706054 1.114445 0.05257425
v -0.02030976 1.116964 0.04408951
v 0.02051785 1.092861 0.05243802
v 0.01843366 1.099381 0.04400346
v 0.04408146 1.082979 0.006917953
v 0.03767741 1.091134 0.006917953
v 0.02051785 1.092861 -0.03860211
v 0.01843366 1.099381 -0.03016731
v 0.04827522 1.10474 0.008067443
v 0.02707155 1.105381 -0.03875693
v 0.01843366 1.099381 0.04400346
v 0.04651356 1.142361 0.006917953
v 0.0217123 1.151417 -0.03881311
v 0.02707155 1.105381 0.05259284
v 0.0217123 1.151417 0.05264902
v -0.02061296 1.12756 0.05264902
v -0.02030976 1.116964 0.04408951
v -0.02789092 1.16953 0.05264902
v -0.04447174 1.138867 0.006917953
v -0.03971476 1.126062 0.006917953
v -0.04946423 1.170659 0.004398197
v 0.02051785 1.092861 -0.03860211
v 0.01843366 1.099381 -0.03016731
v -0.02706054 1.114445 -0.03873835
v -0.02030976 1.116964 -0.03025337
v -0.04795504 1.114075 0.003512194
v 0.02707155 1.105381 -0.03875693
v -0.03971476 1.126062 0.006917953
v -0.02061296 1.12756 -0.03881311
v 0.0217123 1.151417 -0.03881311
v -0.04447174 1.138867 0.006917953
v -0.02789092 1.16953 -0.03881311
v -0.04946423 1.170659 0.004398197
v 0.0217123 1.151417 -0.03881311
v 0.01880002 1.162595 -0.03150797
v -0.02789092 1.16953 -0.03881311
v -0.02287936 1.177808 -0.03150797
v -0.04946423 1.170659 0.004398197
v -0.04371929 1.185422 0.006917953
v -0.04651356 1.195508 0.006917953
v -0.02171206 1.186452 -0.03881311
v 0.01880002 1.162595 -0.03150797
v 0.02789092 1.168339 -0.03881311
v 0.02823782 1.210164 -0.0415535
v -0.0271151 1.21365 -0.0415535
v -0.05479145 1.21539 0.006917953
v 0.0182575 1.231313 -0.02470493
v -0.0182575 1.231313 -0.02470493
v -0.03651499 1.231313 0.006917953
v 0 1.238736 0.006917953
v -0.01309062 0.3135076 -0.01575558
v -0.0002227313 0.759895 -0.01991458
v -0.02334898 0.7598948 -0.006305435
v 0.01309062 0.3135074 -0.01575558
v 0.02312564 0.7598994 -0.006690779
v 0.009599276 0.05625933 -0.02532127
v -0.02312676 0.05689597 -0.01750959
v -0.01372724 -0.012537 -0.01685824
v 0.01372724 -0.01253694 -0.01685824
v 0.03268993 0.05514169 -0.0009003449
v 0.02745448 -0.01253706 0.006917953
v 0.02618123 0.3135076 0.006917953
v 0.02334826 0.7598994 0.02014098
v 0.02309334 0.05411434 0.0313102
v 0.01372724 -0.01253694 0.03069415
v 0.01309062 0.3135076 0.02959148
v 0.0002227287 0.7598994 0.03374971
v -0.009592155 0.0552119 0.03913327
v -0.01372724 -0.012537 0.03069415
v -0.01309062 0.3135076 0.02959148
v -0.02312636 0.7598948 0.02052716
v -0.03271345 0.05632138 0.01474188
v -0.02745448 -0.01253694 0.006917953
v -0.02618123 0.3135075 0.006917953
v -0.02334898 0.7598948 -0.006305435
v -0.01309062 0.3135076 -0.01575558
v -0.02312676 0.05689597 -0.01750959
v -0.01372724 -0.012537 -0.01685824
v -0.0002227313 0.759895 -0.01991458
v -0.02394624 0.9962695 -0.02045659
v -0.02334898 0.7598948 -0.006305435
v -0.03568004 0.9962707 0.01396862
v -0.02312636 0.7598948 0.02052716
v -0.01173397 0.9962707 0.04134316
v 0.0002227287 0.7598994 0.03374971
v 0.02394614 0.9962707 0.03429234
v 0.02334826 0.7598994 0.02014098
v 0.03568004 0.9962707 -0.0001326962
v 0.02312564 0.7598994 -0.006690779
v 0.01173397 0.9962707 -0.02750714
v -0.0002227313 0.759895 -0.01991458
v -0.02394624 0.9962695 -0.02045659
vt 0.9342988 0.1769666
vt 0.9333799 0.1833573
vt 0.9150275 0.1804199
vt 0.9149636 0.1877669
vt 0.9346486 0.194553
vt 0.8936993 0.1768361
vt 0.9150871 0.1982821
vt 0.8936244 0.1888868
vt 0.8921035 0.1947846
vt 0.8936993 0.1768361
vt 0.8936244 0.1888868
vt 0.9028059 0.1758396
vt 0.9038508 0.1858509
vt 0.9114286 0.1748838
vt 0.9007089 0.1927903
vt 0.8921035 0.1947846
vt 0.911572 0.1916527
vt 0.9126365 0.1810017
vt 0.9223719 0.1915429
vt 0.922479 0.179642
vt 0.9215369 0.1722804
vt 0.9342988 0.1769666
vt 0.9333799 0.1833573
vt 0.9346486 0.194553
vt 0.6294913 0.4072496
vt 0.5027124 0.4072496
vt 0.5880361 0.4072496
vt 0.5507721 0.4072496
vt 0.5195407 0.4072496
vt 0.49043 0.4072496
vt 0.4597842 0.4072496
vt 0.4236298 0.4072496
vt 0.8940185 0.199743
vt 0.8984526 0.2056499
vt 0.9033672 0.1991438
vt 0.8934155 0.1925875
vt 0.9032751 0.1908589
vt 0.893632 0.1842598
vt 0.9122397 0.1981144
vt 0.9076351 0.2049499
vt 0.9039086 0.1817874
vt 0.91257 0.1898705
vt 0.9031375 0.1766232
vt 0.8937231 0.1806646
vt 0.893048 0.1744862
vt 0.9029535 0.1745197
vt 0.9117581 0.1758404
vt 0.9117538 0.1731269
vt 0.9219196 0.1792624
vt 0.9221783 0.1732798
vt 0.9344267 0.1774988
vt 0.9341684 0.1831662
vt 0.9117581 0.1758404
vt 0.912725 0.1794592
vt 0.9221664 0.1819526
vt 0.9219196 0.1792624
vt 0.9224297 0.1910045
vt 0.933278 0.1848846
vt 0.9341684 0.1831662
vt 0.933538 0.1932747
vt 0.9217703 0.1987457
vt 0.9176049 0.2042699
vt 0.9331971 0.1997271
vt 0.928624 0.2052329
vt 0.5915312 0.9081122
vt 0.6306001 0.9139318
vt 0.6389936 0.8167263
vt 0.5959716 0.8167263
vt 0.5498399 0.9052038
vt 0.5562268 0.8167263
vt 0.5248052 0.8167263
vt 0.5168188 0.9081122
vt 0.496648 0.8167263
vt 0.4895077 0.9139318
vt 0.4676464 0.8167263
vt 0.4597574 0.9168401
vt 0.4247387 0.9139318
vt 0.4331322 0.8167263
vt 0.8918412 0.1779733
vt 0.8928243 0.1834048
vt 0.9004466 0.1755998
vt 0.9027012 0.1806503
vt 0.9113098 0.1735286
vt 0.9115316 0.1793529
vt 0.9221095 0.1733133
vt 0.9218396 0.1789724
vt 0.9343864 0.1769832
vt 0.9338073 0.1815895
vt 0.9220008 0.1840945
vt 0.9331526 0.184166
vt 0.9115316 0.1793529
vt 0.921916 0.2003291
vt 0.9341644 0.2033173
vt 0.912344 0.1822545
vt 0.9114915 0.2004653
vt 0.9038252 0.1894352
vt 0.9027012 0.1806503
vt 0.9026912 0.2015738
vt 0.8934351 0.1935784
vt 0.8928243 0.1834048
vt 0.8927855 0.2015959
vt 0.9343864 0.1769832
vt 0.9338073 0.1815895
vt 0.9150646 0.1825822
vt 0.9150512 0.1854607
vt 0.8918412 0.1779733
vt 0.9331526 0.184166
vt 0.8928243 0.1834048
vt 0.9149616 0.189188
vt 0.9341644 0.2033173
vt 0.8934351 0.1935784
vt 0.9150311 0.2044035
vt 0.8927855 0.2015959
vt 0.9344267 0.1774988
vt 0.9341684 0.1831662
vt 0.9150535 0.1784122
vt 0.9150596 0.1834578
vt 0.893048 0.1744862
vt 0.8937231 0.1806646
vt 0.893632 0.1842598
vt 0.9149576 0.1867565
vt 0.9341684 0.1831662
vt 0.933278 0.1848846
vt 0.933538 0.1932747
vt 0.9150149 0.1931283
vt 0.8934155 0.1925875
vt 0.9331971 0.1997271
vt 0.9150693 0.2000438
vt 0.8940185 0.199743
vt 0.9178039 0.2056683
vt 0.6294913 0.5069449
vt 0.607923 0.640595
vt 0.6510178 0.640595
vt 0.5880361 0.5069449
vt 0.5637594 0.640595
vt 0.5975856 0.4464683
vt 0.6372995 0.4468369
vt 0.6294913 0.4072496
vt 0.5880361 0.4072496
vt 0.5595222 0.445767
vt 0.5507721 0.4072496
vt 0.5507721 0.5069449
vt 0.53132 0.640595
vt 0.526808 0.4454342
vt 0.5195407 0.4072496
vt 0.5195407 0.5069449
vt 0.5039697 0.640595
vt 0.4967915 0.4458027
vt 0.49043 0.4072496
vt 0.49043 0.5069449
vt 0.4768076 0.640595
vt 0.4661418 0.446504
vt 0.4597842 0.4072496
vt 0.4597842 0.5069449
vt 0.4451565 0.640595
vt 0.4236298 0.5069449
vt 0.4314377 0.4468369
vt 0.4236298 0.4072496
vt 0.4057468 0.6609576
vt 0.4318429 0.8011179
vt 0.4479557 0.6609576
vt 0.4666471 0.8011179
vt 0.4789956 0.6609576
vt 0.4956157 0.8011179
vt 0.5059958 0.6609576
vt 0.5235811 0.8011179
vt 0.5334898 0.6609576
vt 0.5546643 0.8011179
vt 0.5665995 0.6609576
vt 0.5941846 0.8011179
vt 0.6116084 0.6609576
vt 0.6377044 0.8011179
vn 0.3412256 -0.3279622 -0.880912
vn 0.589391 -0.2379003 -0.7720245
vn -0.6159821 -0.2513667 -0.7465795
vn -0.4893305 -0.2199846 -0.8438972
vn 0.4517155 0.1744504 -0.8749401
vn -0.9847456 -0.1691652 -0.04073438
vn -0.5948965 0.1228489 -0.794359
vn -0.9821346 -0.1880632 0.006614318
vn -0.9906079 0.1281806 -0.04760121
vn -0.9847456 -0.1691652 -0.04073438
vn -0.9821346 -0.1880632 0.006614318
vn -0.6460263 -0.1853321 0.7404742
vn -0.5071269 -0.2125341 0.8352553
vn 0.3397434 -0.2974709 0.8922362
vn -0.5977311 0.1352377 0.7902078
vn -0.9906079 0.1281806 -0.04760121
vn 0.4575135 0.1711534 0.8725753
vn 0.5751938 -0.2737319 0.7708585
vn 0.9927899 0.1197642 0.004973055
vn 0.9488167 -0.3152547 -0.01901002
vn 0.9953928 -0.09192738 -0.02724741
vn 0.3412256 -0.3279622 -0.880912
vn 0.589391 -0.2379003 -0.7720245
vn 0.4517155 0.1744504 -0.8749401
vn 0 -1 0
vn 0 -1 0
vn 0 -1 0
vn 0 -1 0
vn 0 -1 0
vn 0 -1 0
vn 0 -1 0
vn 0 -1 0
vn -0.4643492 0.8856522 0
vn 0 1 0
vn -0.284321 0.8613172 0.4210635
vn -0.9888484 0.1489256 0
vn -0.5151553 0.2226738 0.8276663
vn -0.9455527 -0.3254691 0
vn 0.2542428 0.8328869 0.4915893
vn 0 1 0
vn -0.4147987 -0.2218769 0.8824469
vn 0.5085393 0.2084218 0.8354328
vn -0.6145455 0.1663961 0.771133
vn -0.9957857 0.08686125 0.02942798
vn -0.999486 0.009031684 -0.03076052
vn -0.6046807 0.0823728 0.792197
vn 0.5247235 0.5573125 0.6434812
vn 0.4888886 0.1449082 0.8602264
vn 0.8782799 0.4781468 0
vn 0.9873603 0.1584 -0.005391865
vn 0.4888887 0.1449081 -0.8602264
vn 0.5247234 0.5573123 -0.6434813
vn 0.07261656 -0.8078128 0.5849491
vn 0.5570658 -0.2459996 0.7931973
vn 0.9622965 -0.271942 0.005751513
vn 0.6210818 -0.7836586 0.01168779
vn 0.9833474 0.1817226 -0.002197561
vn 0.5573325 -0.2334389 -0.7967979
vn 0.01227799 -0.79334 -0.608655
vn 0.5085402 0.2084221 -0.8354324
vn 0.598605 0.8010443 0
vn 0 1 0
vn 0.2542428 0.8328869 -0.4915892
vn 0 1 0
vn 0.3412256 -0.3279622 -0.880912
vn -0.6159821 -0.2513667 -0.7465795
vn -0.6651122 -0.01475531 -0.7465978
vn 0.3221341 -0.006704151 -0.9466704
vn 0.9953928 -0.09192738 -0.02724741
vn 0.9793102 -0.002027283 -0.2023551
vn 0.6601564 -0.01800753 0.7509124
vn 0.3397434 -0.2974709 0.8922362
vn -0.3280281 -0.03023242 0.9441841
vn -0.6460263 -0.1853321 0.7404742
vn -0.9819046 -0.02480253 0.1877448
vn -0.9847456 -0.1691652 -0.04073438
vn -0.6159821 -0.2513667 -0.7465795
vn -0.6651122 -0.01475531 -0.7465978
vn -0.9906079 0.1281806 -0.04760121
vn -0.9922051 0.1230887 -0.01944653
vn -0.5977311 0.1352377 0.7902078
vn 0.1818702 0.8937132 0.4101219
vn 0.4575135 0.1711534 0.8725753
vn 0.5971853 0.6994455 0.392614
vn 0.9927899 0.1197642 0.004973055
vn 0.9956209 -0.08912726 -0.02820148
vn 0.4517155 0.1744504 -0.8749401
vn 0.5747882 -0.1986884 -0.7938145
vn 0.9901851 -0.1392525 0.01191878
vn 0.6049265 -0.1553213 -0.7809861
vn 0.1059839 -0.820393 0.5618921
vn 0.9873603 0.1584 -0.005391865
vn 0.4888887 0.1449081 -0.8602264
vn 0.5857024 -0.1596658 0.7946444
vn 0.4888886 0.1449082 0.8602264
vn -0.4599125 -0.1530643 0.8746724
vn -0.6483985 -0.4893422 0.5832012
vn -0.6046807 0.0823728 0.792197
vn -0.9804946 -0.1964273 0.006826226
vn -0.9922051 0.1230887 -0.01944653
vn -0.999486 0.009031684 -0.03076052
vn 0.4517155 0.1744504 -0.8749401
vn 0.5747882 -0.1986884 -0.7938145
vn -0.5948965 0.1228489 -0.794359
vn -0.5410667 0.2098469 -0.8143777
vn -0.9906079 0.1281806 -0.04760121
vn 0.6049265 -0.1553213 -0.7809861
vn -0.9922051 0.1230887 -0.01944653
vn -0.4497976 -0.1573414 -0.879162
vn 0.4888887 0.1449081 -0.8602264
vn -0.9804946 -0.1964273 0.006826226
vn -0.5900733 0.07018843 -0.8042929
vn -0.999486 0.009031684 -0.03076052
vn 0.4888887 0.1449081 -0.8602264
vn 0.5247234 0.5573123 -0.6434813
vn -0.5900733 0.07018843 -0.8042929
vn -0.596328 0.1624816 -0.786125
vn -0.999486 0.009031684 -0.03076052
vn -0.9957857 0.08686125 0.02942798
vn -0.9455527 -0.3254691 0
vn -0.414796 -0.2218778 -0.882448
vn 0.01227799 -0.79334 -0.608655
vn 0.5573325 -0.2334389 -0.7967979
vn 0.5085402 0.2084221 -0.8354324
vn -0.5151566 0.2226714 -0.827666
vn -0.9888484 0.1489256 0
vn 0.2542428 0.8328869 -0.4915892
vn -0.284321 0.8613172 -0.4210635
vn -0.4643492 0.8856522 0
vn 0 1 0
vn -0.4985307 0.008838527 -0.8668271
vn -0.009559249 -0.01596002 -0.999827
vn -0.8706651 -0.01596153 -0.4916172
vn 0.5015958 0.00881185 -0.8650572
vn 0.8610952 -0.01596281 -0.508193
vn 0.2939415 0.00325669 -0.9558178
vn -0.6850514 0.003425827 -0.7284865
vn -0.4886793 -0.1217517 -0.8639266
vn 0.5023429 -0.1228788 -0.8558927
vn 0.9751318 0.003105682 -0.221604
vn 0.9922311 -0.1241785 0.007573652
vn 0.9999599 0.008762558 0.001826967
vn 0.870665 -0.01596144 0.4916174
vn 0.6852728 0.002640664 0.7282816
vn 0.4827193 -0.1244969 0.8668809
vn 0.4991597 0.00875671 0.8664658
vn 0.009599693 -0.01596325 0.9998265
vn -0.2805809 0.003117966 0.9598253
vn -0.5092617 -0.1231602 0.8517535
vn -0.5007904 0.008808187 0.8655238
vn -0.8610765 -0.01596016 0.508225
vn -0.9720474 0.00326413 0.234762
vn -0.9924483 -0.121951 -0.01319699
vn -0.9999603 0.008840231 -0.001179347
vn -0.8706651 -0.01596153 -0.4916172
vn -0.4985307 0.008838527 -0.8668271
vn -0.6850514 0.003425827 -0.7284865
vn -0.4886793 -0.1217517 -0.8639266
vn -0.009559249 -0.01596002 -0.999827
vn -0.6651122 -0.01475531 -0.7465978
vn -0.8706651 -0.01596153 -0.4916172
vn -0.9819046 -0.02480253 0.1877448
vn -0.8610765 -0.01596016 0.508225
vn -0.3280281 -0.03023242 0.9441841
vn 0.009599693 -0.01596325 0.9998265
vn 0.6601564 -0.01800753 0.7509124
vn 0.870665 -0.01596144 0.4916174
vn 0.9793102 -0.002027283 -0.2023551
vn 0.8610952 -0.01596281 -0.508193
vn 0.3221341 -0.006704151 -0.9466704
vn -0.009559249 -0.01596002 -0.999827
vn -0.6651122 -0.01475531 -0.7465978
g StandingTorch_0
f 3/3/3 2/2/2 1/1/1
f 3/3/3 4/4/4 2/2/2
f 4/4/4 5/5/5 2/2/2
f 6/6/6 4/4/4 3/3/3
f 4/4/4 7/7/7 5/5/5
f 6/6/6 8/8/8 4/4/4
f 8/8/8 7/7/7 4/4/4
f 8/8/8 9/9/9 7/7/7
f 12/12/12 11/11/11 10/10/10
f 12/12/12 13/13/13 11/11/11
f 14/14/14 13/13/13 12/12/12
f 15/15/15 11/11/11 13/13/13
f 15/15/15 16/16/16 11/11/11
f 17/17/17 15/15/15 13/13/13
f 17/17/17 13/13/13 18/18/18
f 14/14/14 18/18/18 13/13/13
f 19/19/19 17/17/17 18/18/18
f 20/20/20 18/18/18 14/14/14
f 19/19/19 18/18/18 20/20/20
f 20/20/20 14/14/14 21/21/21
f 22/22/22 20/20/20 21/21/21
f 22/22/22 23/23/23 20/20/20
f 23/23/23 19/19/19 20/20/20
f 23/23/23 24/24/24 19/19/19
f 27/27/27 26/26/26 25/25/25
f 28/28/28 26/26/26 27/27/27
f 29/29/29 26/26/26 28/28/28
f 30/30/30 26/26/26 29/29/29
f 31/31/31 26/26/26 30/30/30
f 32/32/32 26/26/26 31/31/31
f 35/35/35 34/34/34 33/33/33
f 35/35/35 33/33/33 36/36/36
f 35/35/35 36/36/36 37/37/37
f 37/37/37 36/36/36 38/38/38
f 39/39/39 35/35/35 37/37/37
f 39/39/39 40/40/40 35/35/35
f 37/37/37 38/38/38 41/41/41
f 39/39/39 37/37/37 42/42/42
f 42/42/42 37/37/37 41/41/41
f 43/43/43 41/41/41 38/38/38
f 43/43/43 38/38/38 44/44/44
f 43/43/43 44/44/44 45/45/45
f 43/43/43 45/45/45 46/46/46
f 47/47/47 43/43/43 46/46/46
f 47/47/47 46/46/46 48/48/48
f 49/49/49 47/47/47 48/48/48
f 49/49/49 48/48/48 50/50/50
f 51/51/51 49/49/49 50/50/50
f 51/51/51 52/52/52 49/49/49
f 53/53/53 41/41/41 43/43/43
f 53/53/53 54/54/54 41/41/41
f 42/42/42 41/41/41 54/54/54
f 55/55/55 54/54/54 53/53/53
f 55/55/55 53/53/53 56/56/56
f 57/57/57 42/42/42 54/54/54
f 57/57/57 54/54/54 55/55/55
f 58/58/58 55/55/55 56/56/56
f 58/58/58 57/57/57 55/55/55
f 58/58/58 56/56/56 59/59/59
f 58/58/58 60/60/60 57/57/57
f 61/61/61 42/42/42 57/57/57
f 60/60/60 61/61/61 57/57/57
f 61/61/61 39/39/39 42/42/42
f 61/61/61 62/62/62 39/39/39
f 60/60/60 63/63/63 61/61/61
f 63/63/63 64/64/64 61/61/61
f 67/67/67 66/66/66 65/65/65
f 67/67/67 65/65/65 68/68/68
f 68/68/68 65/65/65 69/69/69
f 68/68/68 69/69/69 70/70/70
f 69/69/69 71/71/71 70/70/70
f 69/69/69 72/72/72 71/71/71
f 72/72/72 73/73/73 71/71/71
f 72/72/72 74/74/74 73/73/73
f 74/74/74 75/75/75 73/73/73
f 74/74/74 76/76/76 75/75/75
f 75/75/75 76/76/76 77/77/77
f 75/75/75 77/77/77 78/78/78
f 81/81/81 80/80/80 79/79/79
f 81/81/81 82/82/82 80/80/80
f 83/83/83 82/82/82 81/81/81
f 83/83/83 84/84/84 82/82/82
f 85/85/85 84/84/84 83/83/83
f 85/85/85 86/86/86 84/84/84
f 87/87/87 86/86/86 85/85/85
f 87/87/87 88/88/88 86/86/86
f 88/88/88 89/89/89 86/86/86
f 88/88/88 90/90/90 89/89/89
f 89/89/89 91/91/91 86/86/86
f 90/90/90 92/92/92 89/89/89
f 90/90/90 93/93/93 92/92/92
f 92/92/92 94/94/94 89/89/89
f 89/89/89 94/94/94 91/91/91
f 92/92/92 95/95/95 94/94/94
f 91/91/91 94/94/94 96/96/96
f 95/95/95 96/96/96 94/94/94
f 91/91/91 96/96/96 97/97/97
f 95/95/95 98/98/98 96/96/96
f 97/97/97 96/96/96 99/99/99
f 98/98/98 99/99/99 96/96/96
f 97/97/97 99/99/99 100/100/100
f 98/98/98 101/101/101 99/99/99
f 104/104/104 103/103/103 102/102/102
f 104/104/104 105/105/105 103/103/103
f 106/106/106 105/105/105 104/104/104
f 105/105/105 107/107/107 103/103/103
f 106/106/106 108/108/108 105/105/105
f 105/105/105 109/109/109 107/107/107
f 108/108/108 109/109/109 105/105/105
f 109/109/109 110/110/110 107/107/107
f 108/108/108 111/111/111 109/109/109
f 109/109/109 112/112/112 110/110/110
f 111/111/111 112/112/112 109/109/109
f 111/111/111 113/113/113 112/112/112
f 116/116/116 115/115/115 114/114/114
f 116/116/116 117/117/117 115/115/115
f 118/118/118 117/117/117 116/116/116
f 118/118/118 119/119/119 117/117/117
f 120/120/120 117/117/117 119/119/119
f 120/120/120 121/121/121 117/117/117
f 121/121/121 122/122/122 117/117/117
f 121/121/121 123/123/123 122/122/122
f 121/121/121 124/124/124 123/123/123
f 120/120/120 125/125/125 121/121/121
f 121/121/121 125/125/125 124/124/124
f 120/120/120 126/126/126 125/125/125
f 125/125/125 127/127/127 124/124/124
f 126/126/126 128/128/128 125/125/125
f 125/125/125 128/128/128 127/127/127
f 126/126/126 129/129/129 128/128/128
f 128/128/128 130/130/130 127/127/127
f 129/129/129 130/130/130 128/128/128
f 133/133/133 132/132/132 131/131/131
f 132/132/132 134/134/134 131/131/131
f 132/132/132 135/135/135 134/134/134
f 131/131/131 134/134/134 136/136/136
f 131/131/131 136/136/136 137/137/137
f 138/138/138 137/137/137 136/136/136
f 138/138/138 136/136/136 139/139/139
f 139/139/139 136/136/136 140/140/140
f 134/134/134 140/140/140 136/136/136
f 139/139/139 140/140/140 141/141/141
f 135/135/135 142/142/142 134/134/134
f 134/134/134 142/142/142 140/140/140
f 135/135/135 143/143/143 142/142/142
f 141/141/141 140/140/140 144/144/144
f 142/142/142 144/144/144 140/140/140
f 141/141/141 144/144/144 145/145/145
f 143/143/143 146/146/146 142/142/142
f 142/142/142 146/146/146 144/144/144
f 143/143/143 147/147/147 146/146/146
f 145/145/145 144/144/144 148/148/148
f 146/146/146 148/148/148 144/144/144
f 145/145/145 148/148/148 149/149/149
f 147/147/147 150/150/150 146/146/146
f 146/146/146 150/150/150 148/148/148
f 147/147/147 151/151/151 150/150/150
f 149/149/149 148/148/148 152/152/152
f 150/150/150 152/152/152 148/148/148
f 149/149/149 152/152/152 153/153/153
f 151/151/151 154/154/154 150/150/150
f 150/150/150 154/154/154 152/152/152
f 151/151/151 155/155/155 154/154/154
f 155/155/155 156/156/156 154/154/154
f 154/154/154 156/156/156 157/157/157
f 154/154/154 157/157/157 152/152/152
f 153/153/153 152/152/152 157/157/157
f 153/153/153 157/157/157 158/158/158
f 161/161/161 160/160/160 159/159/159
f 161/161/161 162/162/162 160/160/160
f 163/163/163 162/162/162 161/161/161
f 163/163/163 164/164/164 162/162/162
f 165/165/165 164/164/164 163/163/163
f 165/165/165 166/166/166 164/164/164
f 167/167/167 166/166/166 165/165/165
f 167/167/167 168/168/168 166/166/166
f 169/169/169 168/168/168 167/167/167
f 169/169/169 170/170/170 168/168/168
f 171/171/171 170/170/170 169/169/169
f 171/171/171 172/172/172 170/170/170
