g Log01
v -4.885461E-08 1.659038 0.1928141
v -7.44996E-08 2.45198 0.2160992
v 0.1258782 2.45198 0.1766671
v 0.1109702 1.659038 0.1591417
v 6.287684E-09 6.887832E-09 0.1887069
v 0.1083406 9.305773E-09 0.1560504
v 8.971931E-08 -2.45198 0.2406764
v 0.1416135 -2.45198 0.195165
v 0.1126344 1.659038 -0.153839
v 0.1277659 2.45198 -0.1771242
v -8.872208E-08 2.45198 -0.2107464
v -6.13564E-08 1.659038 -0.1823896
v -0.1277661 2.45198 -0.1771242
v 0.1099654 -1.801212E-09 -0.1497317
v -0.1126345 1.659038 -0.153839
v -5.910587E-09 -6.47471E-09 -0.1773877
v 0.1437372 -2.45198 -0.201701
v -0.1099654 -9.129306E-09 -0.1497317
v 7.368065E-08 -2.45198 -0.2406762
v -0.143737 -2.45198 -0.201701
v -0.1126345 1.659038 -0.153839
v -0.1277661 2.45198 -0.1771242
v -0.2036754 2.45198 -0.0627676
v -0.1795537 1.659038 -0.05193627
v -0.1099654 -9.129306E-09 -0.1497317
v -0.2067298 2.45198 0.06590123
v -0.1752988 -7.666923E-09 -0.05002567
v -0.143737 -2.45198 -0.201701
v -0.2291352 -2.45198 -0.07419965
v -0.1822464 1.659038 0.06040439
v -0.1258783 2.45198 0.1766671
v -0.1109703 1.659038 0.1591417
v -0.1779277 -3.759182E-09 0.05943486
v -0.2325715 -2.45198 0.07170326
v -0.1083406 2.085952E-09 0.1560504
v -0.1416133 -2.45198 0.195165
v 0.2325716 -2.45198 0.07170324
v 8.971931E-08 -2.45198 0.2406764
v 0.1416135 -2.45198 0.195165
v 8.160522E-08 -2.45198 -0.002843509
v 0.1437372 -2.45198 -0.201701
v 0.2291353 -2.45198 -0.07419967
v -0.2325715 -2.45198 0.07170326
v -0.1416133 -2.45198 0.195165
v -0.143737 -2.45198 -0.201701
v 7.368065E-08 -2.45198 -0.2406762
v -0.2291352 -2.45198 -0.07419965
v 0.1109702 1.659038 0.1591417
v 0.1258782 2.45198 0.1766671
v 0.2067297 2.45198 0.06590122
v 0.1822463 1.659038 0.06040438
v 0.1083406 9.305773E-09 0.1560504
v 0.2036752 2.45198 -0.06276761
v 0.1779277 8.097923E-09 0.05943485
v 0.1416135 -2.45198 0.195165
v 0.2325716 -2.45198 0.07170324
v 0.1795536 1.659038 -0.05193628
v 0.1277659 2.45198 -0.1771242
v 0.1126344 1.659038 -0.153839
v 0.1752988 4.014993E-09 -0.05002568
v 0.2291353 -2.45198 -0.07419967
v 0.1099654 -1.801212E-09 -0.1497317
v 0.1437372 -2.45198 -0.201701
v -0.1109703 1.659038 0.1591417
v -0.1258783 2.45198 0.1766671
v -7.44996E-08 2.45198 0.2160992
v -4.885461E-08 1.659038 0.1928141
v -0.1083406 2.085952E-09 0.1560504
v 6.287684E-09 6.887832E-09 0.1887069
v -0.1416133 -2.45198 0.195165
v 8.971931E-08 -2.45198 0.2406764
v 0.1708899 2.489442 0.05425617
v 0.168365 2.489442 -0.05210594
v 0.2036752 2.45198 -0.06276761
v 0.2067297 2.45198 0.06590122
v 0.1056157 2.489442 -0.146637
v -8.872208E-08 2.45198 -0.2107464
v 0.1277659 2.45198 -0.1771242
v -8.876027E-08 2.489442 -0.1744303
v -0.1277661 2.45198 -0.1771242
v -0.1056159 2.489442 -0.146637
v -0.1056159 2.489442 -0.146637
v -0.2036754 2.45198 -0.0627676
v -0.1277661 2.45198 -0.1771242
v -0.1683652 2.489442 -0.05210593
v -8.299055E-08 2.489442 -0.00126934
v -8.876027E-08 2.489442 -0.1744303
v 0.1056157 2.489442 -0.146637
v -0.1708901 2.489442 0.05425619
v 0.168365 2.489442 -0.05210594
v 0.1277659 2.45198 -0.1771242
v 0.2036752 2.45198 -0.06276761
v 0.1708899 2.489442 0.05425617
v 0.1040552 2.489442 0.1458191
v 0.2067297 2.45198 0.06590122
v 0.1258782 2.45198 0.1766671
v -7.700346E-08 2.489442 0.178415
v -7.44996E-08 2.45198 0.2160992
v -0.1040554 2.489442 0.1458191
v -0.1258783 2.45198 0.1766671
v -0.2067298 2.45198 0.06590123
v -0.1683652 2.489442 -0.05210593
v -0.1708901 2.489442 0.05425619
v -0.2067298 2.45198 0.06590123
v -0.2036754 2.45198 -0.0627676
vt 0.5294321 0.9041261
vt 0.5296292 0.9999954
vt 0.545507 0.9997569
vt 0.5452483 0.9048471
vt 0.5301617 0.701225
vt 0.5460576 0.700841
vt 0.5311226 0.4005277
vt 0.5462004 0.4005655
vt 0.5943139 0.9061944
vt 0.5946028 1.000543
vt 0.6105447 1.000699
vt 0.6104012 0.9063283
vt 0.6264874 1.000659
vt 0.595113 0.7002364
vt 0.6264892 0.9063108
vt 0.6111452 0.7002521
vt 0.5951427 0.4009246
vt 0.6271772 0.700352
vt 0.6112436 0.4008803
vt 0.6273438 0.4010408
vt 0.6264892 0.9063108
vt 0.6264874 1.000659
vt 0.643535 1.000751
vt 0.643351 0.9061174
vt 0.6271772 0.700352
vt 0.6590711 1.000648
vt 0.6440241 0.7005848
vt 0.6273438 0.4010408
vt 0.6439261 0.4011601
vt 0.6588461 0.9058102
vt 0.6746072 1.000225
vt 0.6755637 0.9053184
vt 0.6594687 0.7008829
vt 0.6600377 0.4011289
vt 0.6762269 0.7013106
vt 0.6762732 0.4010345
vt 0.6472878 0.3512808
vt 0.6156873 0.393872
vt 0.6380988 0.3780377
vt 0.6022329 0.3510088
vt 0.6165462 0.3080654
vt 0.6386221 0.3257893
vt 0.5654152 0.3769797
vt 0.5882463 0.3936853
vt 0.5659463 0.3239481
vt 0.589093 0.3091464
vt 0.5579591 0.3511086
vt 0.5452483 0.9048471
vt 0.545507 0.9997569
vt 0.5630186 1.0003
vt 0.5619617 0.9054598
vt 0.5460576 0.700841
vt 0.5785499 1.000516
vt 0.5628187 0.7005341
vt 0.5462004 0.4005655
vt 0.5631028 0.4007794
vt 0.577454 0.9058794
vt 0.5946028 1.000543
vt 0.5943139 0.9061944
vt 0.578265 0.7003475
vt 0.5785576 0.4009244
vt 0.595113 0.7002364
vt 0.5951427 0.4009246
vt 0.6755637 0.9053184
vt 0.6746072 1.000225
vt 0.6904937 1.000578
vt 0.6913847 0.9047117
vt 0.6762269 0.7013106
vt 0.6921198 0.7018093
vt 0.6762732 0.4010345
vt 0.6933265 0.4011129
vt 0.639466 0.3511897
vt 0.6319458 0.3719493
vt 0.6381889 0.3763787
vt 0.6472863 0.3512653
vt 0.6133578 0.3864044
vt 0.5883451 0.3920432
vt 0.6157026 0.3938653
vt 0.5907432 0.3848982
vt 0.5654278 0.3769914
vt 0.5717989 0.3724558
vt 0.5717989 0.3724558
vt 0.5580443 0.34948
vt 0.5654278 0.3769914
vt 0.5656955 0.349714
vt 0.6021776 0.3508294
vt 0.5907432 0.3848982
vt 0.6133578 0.3864044
vt 0.5722223 0.3286204
vt 0.6319458 0.3719493
vt 0.6157026 0.3938653
vt 0.6381889 0.3763787
vt 0.639466 0.3511897
vt 0.6323628 0.3287617
vt 0.6472863 0.3512653
vt 0.6386933 0.3241335
vt 0.6140428 0.3154775
vt 0.6165313 0.3080633
vt 0.5914179 0.3150194
vt 0.5891613 0.3075091
vt 0.56594 0.3239627
vt 0.5656955 0.349714
vt 0.5722223 0.3286204
vt 0.56594 0.3239627
vt 0.5580443 0.34948
vn 0 -0.01550549 0.9998798
vn 0 0.3751254 0.9269741
vn 0.5394606 0.376339 0.7532272
vn 0.5813147 -0.01601147 0.8135213
vn 0 0.009122548 0.9999584
vn 0.581587 0.009399892 0.81343
vn 0 0.02068176 0.9997861
vn 0.5821548 0.02126402 0.8127999
vn 0.5804406 -0.01929358 -0.814074
vn 0.5389438 0.3744932 -0.7545162
vn 0 0.3621369 -0.9321249
vn 0 -0.01896908 -0.9998201
vn -0.5389468 0.3744824 -0.7545193
vn 0.5807612 0.0113543 -0.8139948
vn -0.5804409 -0.01930539 -0.8140735
vn 0 0.01115924 -0.9999378
vn 0.5813659 0.02567403 -0.8132371
vn -0.580761 0.01133722 -0.8139951
vn 0 0.0252944 -0.99968
vn -0.5813657 0.02564038 -0.8132383
vn -0.5804409 -0.01930539 -0.8140735
vn -0.5389468 0.3744824 -0.7545193
vn -0.8872393 0.3675905 -0.2787178
vn -0.9542996 -0.0178168 -0.2983201
vn -0.580761 0.01133722 -0.8139951
vn -0.8850476 0.3748036 0.2760671
vn -0.954286 0.01049113 -0.2987106
vn -0.5813657 0.02564038 -0.8132383
vn -0.9537454 0.02376039 -0.2996751
vn -0.9548436 -0.01697934 0.2966233
vn -0.5394581 0.3763483 0.7532243
vn -0.5813144 -0.01600103 0.8135216
vn -0.9548052 0.009968719 0.2970653
vn -0.9542317 0.02258543 0.2982142
vn -0.5815872 0.009414984 0.8134296
vn -0.582155 0.02129384 0.812799
vn 0 -1 0
vn 0 -1 0
vn 0 -1 0
vn 0 -1 0
vn 0 -1 0
vn 0 -1 0
vn 0 -1 0
vn 0 -1 0
vn 0 -1 0
vn 0 -1 0
vn 0 -1 0
vn 0.5813147 -0.01601147 0.8135213
vn 0.5394606 0.376339 0.7532272
vn 0.8850425 0.3748167 0.2760655
vn 0.9548439 -0.01696495 0.2966234
vn 0.581587 0.009399892 0.81343
vn 0.8872433 0.36758 -0.278719
vn 0.954805 0.009989791 0.2970651
vn 0.5821548 0.02126402 0.8127999
vn 0.954231 0.02262704 0.2982137
vn 0.9542994 -0.01782875 -0.29832
vn 0.5389438 0.3744932 -0.7545162
vn 0.5804406 -0.01929358 -0.814074
vn 0.9542862 0.01047357 -0.2987109
vn 0.9537461 0.0237256 -0.2996756
vn 0.5807612 0.0113543 -0.8139948
vn 0.5813659 0.02567403 -0.8132371
vn -0.5813144 -0.01600103 0.8135216
vn -0.5394581 0.3763483 0.7532243
vn 0 0.3751254 0.9269741
vn 0 -0.01550549 0.9998798
vn -0.5815872 0.009414984 0.8134296
vn 0 0.009122548 0.9999584
vn -0.582155 0.02129384 0.812799
vn 0 0.02068176 0.9997861
vn 0.3589119 0.9266115 0.1121304
vn 0.3645934 0.9240488 -0.1149152
vn 0.8872433 0.36758 -0.278719
vn 0.8850425 0.3748167 0.2760655
vn 0.217875 0.9271524 -0.3048259
vn 0 0.3621369 -0.9321249
vn 0.5389438 0.3744932 -0.7545162
vn 0 0.9223209 -0.3864249
vn -0.5389468 0.3744824 -0.7545193
vn -0.2178753 0.9271523 -0.3048261
vn -0.2178753 0.9271523 -0.3048261
vn -0.8872393 0.3675905 -0.2787178
vn -0.5389468 0.3744824 -0.7545193
vn -0.3645937 0.9240487 -0.1149153
vn 0 1 0
vn 0 0.9223209 -0.3864249
vn 0.217875 0.9271524 -0.3048259
vn -0.3589122 0.9266115 0.1121306
vn 0.3645934 0.9240488 -0.1149152
vn 0.5389438 0.3744932 -0.7545162
vn 0.8872433 0.36758 -0.278719
vn 0.3589119 0.9266115 0.1121304
vn 0.2189784 0.9267422 0.3052823
vn 0.8850425 0.3748167 0.2760655
vn 0.5394606 0.376339 0.7532272
vn 0 0.9263057 0.3767729
vn 0 0.3751254 0.9269741
vn -0.2189785 0.9267422 0.3052822
vn -0.5394581 0.3763483 0.7532243
vn -0.8850476 0.3748036 0.2760671
vn -0.3645937 0.9240487 -0.1149153
vn -0.3589122 0.9266115 0.1121306
vn -0.8850476 0.3748036 0.2760671
vn -0.8872393 0.3675905 -0.2787178
g Log01_0
f 3/3/3 2/2/2 1/1/1
f 4/4/4 3/3/3 1/1/1
f 4/4/4 1/1/1 5/5/5
f 6/6/6 4/4/4 5/5/5
f 6/6/6 5/5/5 7/7/7
f 8/8/8 6/6/6 7/7/7
f 11/11/11 10/10/10 9/9/9
f 12/12/12 11/11/11 9/9/9
f 13/13/13 11/11/11 12/12/12
f 12/12/12 9/9/9 14/14/14
f 15/15/15 13/13/13 12/12/12
f 16/16/16 12/12/12 14/14/14
f 15/15/15 12/12/12 16/16/16
f 16/16/16 14/14/14 17/17/17
f 18/18/18 15/15/15 16/16/16
f 19/19/19 16/16/16 17/17/17
f 18/18/18 16/16/16 19/19/19
f 20/20/20 18/18/18 19/19/19
f 23/23/23 22/22/22 21/21/21
f 24/24/24 23/23/23 21/21/21
f 24/24/24 21/21/21 25/25/25
f 26/26/26 23/23/23 24/24/24
f 27/27/27 24/24/24 25/25/25
f 27/27/27 25/25/25 28/28/28
f 29/29/29 27/27/27 28/28/28
f 30/30/30 26/26/26 24/24/24
f 30/30/30 24/24/24 27/27/27
f 31/31/31 26/26/26 30/30/30
f 32/32/32 31/31/31 30/30/30
f 33/33/33 27/27/27 29/29/29
f 33/33/33 30/30/30 27/27/27
f 32/32/32 30/30/30 33/33/33
f 34/34/34 33/33/33 29/29/29
f 35/35/35 32/32/32 33/33/33
f 35/35/35 33/33/33 34/34/34
f 36/36/36 35/35/35 34/34/34
f 39/39/39 38/38/38 37/37/37
f 38/38/38 40/40/40 37/37/37
f 37/37/37 40/40/40 41/41/41
f 42/42/42 37/37/37 41/41/41
f 43/43/43 40/40/40 38/38/38
f 44/44/44 43/43/43 38/38/38
f 41/41/41 40/40/40 45/45/45
f 45/45/45 40/40/40 43/43/43
f 46/46/46 41/41/41 45/45/45
f 47/47/47 45/45/45 43/43/43
f 50/50/50 49/49/49 48/48/48
f 51/51/51 50/50/50 48/48/48
f 51/51/51 48/48/48 52/52/52
f 53/53/53 50/50/50 51/51/51
f 54/54/54 51/51/51 52/52/52
f 54/54/54 52/52/52 55/55/55
f 56/56/56 54/54/54 55/55/55
f 57/57/57 53/53/53 51/51/51
f 57/57/57 51/51/51 54/54/54
f 58/58/58 53/53/53 57/57/57
f 59/59/59 58/58/58 57/57/57
f 60/60/60 54/54/54 56/56/56
f 60/60/60 57/57/57 54/54/54
f 59/59/59 57/57/57 60/60/60
f 61/61/61 60/60/60 56/56/56
f 62/62/62 59/59/59 60/60/60
f 62/62/62 60/60/60 61/61/61
f 63/63/63 62/62/62 61/61/61
f 66/66/66 65/65/65 64/64/64
f 67/67/67 66/66/66 64/64/64
f 67/67/67 64/64/64 68/68/68
f 69/69/69 67/67/67 68/68/68
f 69/69/69 68/68/68 70/70/70
f 71/71/71 69/69/69 70/70/70
f 74/74/74 73/73/73 72/72/72
f 75/75/75 74/74/74 72/72/72
f 78/78/78 77/77/77 76/76/76
f 77/77/77 79/79/79 76/76/76
f 77/77/77 80/80/80 79/79/79
f 80/80/80 81/81/81 79/79/79
f 84/84/84 83/83/83 82/82/82
f 83/83/83 85/85/85 82/82/82
f 86/86/86 82/82/82 85/85/85
f 82/82/82 86/86/86 87/87/87
f 86/86/86 88/88/88 87/87/87
f 89/89/89 86/86/86 85/85/85
f 88/88/88 86/86/86 90/90/90
f 91/91/91 88/88/88 90/90/90
f 92/92/92 91/91/91 90/90/90
f 86/86/86 93/93/93 90/90/90
f 93/93/93 86/86/86 94/94/94
f 95/95/95 93/93/93 94/94/94
f 96/96/96 95/95/95 94/94/94
f 96/96/96 94/94/94 97/97/97
f 86/86/86 97/97/97 94/94/94
f 98/98/98 96/96/96 97/97/97
f 97/97/97 86/86/86 99/99/99
f 98/98/98 97/97/97 99/99/99
f 86/86/86 89/89/89 99/99/99
f 100/100/100 98/98/98 99/99/99
f 100/100/100 99/99/99 89/89/89
f 101/101/101 100/100/100 89/89/89
f 104/104/104 103/103/103 102/102/102
f 105/105/105 104/104/104 102/102/102
