g Magic_Gem_20
v 0 0.1151788 0
v 0 0.08638415 0.00757915
v -0.0276976 0 0.008005
v -0.0276976 0 0.008005
v 0 -0.08638425 0.00757915
v 0 -0.115179 0
v 0 -0.115179 0
v 0 -0.08638425 0.00757915
v 0.0276976 0 0.008005
v 0.0276976 0 0.008005
v 0 0.08638415 0.00757915
v 0 0.1151788 0
v 0 0.08638415 0.00757915
v -0.01940015 0 0.01376185
v -0.0276976 0 0.008005
v -0.01940015 0 0.01376185
v 0 -0.05276755 0.01296465
v 0 -0.08638425 0.00757915
v 0 -0.08638425 0.00757915
v 0 -0.05276755 0.01296465
v 0.01940025 0 0.01376185
v 0.01940025 0 0.01376185
v 0 0.05276745 0.01296465
v 0 0.08638415 0.00757915
v 0 0.05276745 0.01296465
v 0 0.01024265 0.01845055
v -0.01024265 0 0.01693865
v -0.01024265 0 0.01693865
v 0 -0.01024275 0.01845055
v 0 -0.05276755 0.01296465
v 0 -0.05276755 0.01296465
v 0 -0.01024275 0.01845055
v 0.01024275 0 0.01693865
v 0.01024275 0 0.01693865
v 0 0.01024265 0.01845055
v 0 0.05276745 0.01296465
v 0 0.01024265 0.01845055
v 0 -0.01024275 0.01845055
v -0.01024265 0 0.01693865
v 0 0.01024265 0.01845055
v 0.01024275 0 0.01693865
v 0 -0.01024275 0.01845055
v 0.01940025 0 0.01376185
v 0.01024275 0 0.01693865
v 0 0.05276745 0.01296465
v 0 0.05276745 0.01296465
v -0.01024265 0 0.01693865
v -0.01940015 0 0.01376185
v -0.01940015 0 0.01376185
v -0.01024265 0 0.01693865
v 0 -0.05276755 0.01296465
v 0 -0.05276755 0.01296465
v 0.01024275 0 0.01693865
v 0.01940025 0 0.01376185
v 0 0.08638415 0.00757915
v 0 0.05276745 0.01296465
v -0.01940015 0 0.01376185
v -0.0276976 0 0.008005
v -0.01940015 0 0.01376185
v 0 -0.08638425 0.00757915
v 0 -0.08638425 0.00757915
v 0.01940025 0 0.01376185
v 0.0276976 0 0.008005
v 0.0276976 0 0.008005
v 0.01940025 0 0.01376185
v 0 0.08638415 0.00757915
v 0 0.1151788 0
v -0.0276976 0 0.008005
v -0.0362327 0 0
v -0.0362327 0 0
v -0.0276976 0 0.008005
v 0 -0.115179 0
v 0 -0.115179 0
v 0.0276976 0 0.008005
v 0.0362327 0 0
v 0.0362327 0 0
v 0.0276976 0 0.008005
v 0 0.1151788 0
v 0 0.1151788 0
v -0.0276976 0 -0.008005
v 0 0.08638415 -0.00757915
v -0.0276976 0 -0.008005
v 0 -0.115179 0
v 0 -0.08638425 -0.00757915
v 0 -0.115179 0
v 0.0276976 0 -0.008005
v 0 -0.08638425 -0.00757915
v 0.0276976 0 -0.008005
v 0 0.1151788 0
v 0 0.08638415 -0.00757915
v 0 0.08638415 -0.00757915
v -0.0276976 0 -0.008005
v -0.01940015 0 -0.01376185
v -0.01940015 0 -0.01376185
v 0 -0.08638425 -0.00757915
v 0 -0.05276755 -0.01296465
v 0 -0.08638425 -0.00757915
v 0.01940025 0 -0.01376185
v 0 -0.05276755 -0.01296465
v 0.01940025 0 -0.01376185
v 0 0.08638415 -0.00757915
v 0 0.05276745 -0.01296465
v 0 0.05276745 -0.01296465
v -0.01024265 0 -0.01693865
v 0 0.01024265 -0.01845055
v -0.01024265 0 -0.01693865
v 0 -0.05276755 -0.01296465
v 0 -0.01024275 -0.01845055
v 0 -0.05276755 -0.01296465
v 0.01024275 0 -0.01693865
v 0 -0.01024275 -0.01845055
v 0.01024275 0 -0.01693865
v 0 0.05276745 -0.01296465
v 0 0.01024265 -0.01845055
v 0 -0.01024275 -0.01845055
v 0 0.01024265 -0.01845055
v -0.01024265 0 -0.01693865
v 0 -0.01024275 -0.01845055
v 0.01024275 0 -0.01693865
v 0 0.01024265 -0.01845055
v 0.01940025 0 -0.01376185
v 0 0.05276745 -0.01296465
v 0.01024275 0 -0.01693865
v 0 0.05276745 -0.01296465
v -0.01940015 0 -0.01376185
v -0.01024265 0 -0.01693865
v -0.01940015 0 -0.01376185
v 0 -0.05276755 -0.01296465
v -0.01024265 0 -0.01693865
v 0 -0.05276755 -0.01296465
v 0.01940025 0 -0.01376185
v 0.01024275 0 -0.01693865
v 0 0.08638415 -0.00757915
v -0.01940015 0 -0.01376185
v 0 0.05276745 -0.01296465
v -0.0276976 0 -0.008005
v 0 -0.08638425 -0.00757915
v -0.01940015 0 -0.01376185
v 0 -0.08638425 -0.00757915
v 0.0276976 0 -0.008005
v 0.01940025 0 -0.01376185
v 0.0276976 0 -0.008005
v 0 0.08638415 -0.00757915
v 0.01940025 0 -0.01376185
v 0 0.1151788 0
v -0.0362327 0 0
v -0.0276976 0 -0.008005
v -0.0362327 0 0
v 0 -0.115179 0
v -0.0276976 0 -0.008005
v 0 -0.115179 0
v 0.0362327 0 0
v 0.0276976 0 -0.008005
v 0.0362327 0 0
v 0 0.1151788 0
v 0.0276976 0 -0.008005
vt 0.320784 0.017801
vt 0.320993 0.155425
vt 0.205575 0.502925
vt 0.205575 0.502925
vt 0.320993 0.850425
vt 0.320785 0.98805
vt 0.320785 0.98805
vt 0.320993 0.850425
vt 0.437444 0.502925
vt 0.437444 0.502925
vt 0.320993 0.155425
vt 0.320784 0.017801
vt 0.320993 0.155425
vt 0.244044 0.502925
vt 0.205575 0.502925
vt 0.244044 0.502925
vt 0.321188 0.711965
vt 0.320993 0.850425
vt 0.320993 0.850425
vt 0.321188 0.711965
vt 0.398899 0.502925
vt 0.398899 0.502925
vt 0.321187 0.293885
vt 0.320993 0.155425
vt 0.321187 0.293885
vt 0.321397 0.463504
vt 0.281147 0.502925
vt 0.281147 0.502925
vt 0.321397 0.542346
vt 0.321188 0.711965
vt 0.321188 0.711965
vt 0.321397 0.542346
vt 0.361732 0.502925
vt 0.361732 0.502925
vt 0.321397 0.463504
vt 0.321187 0.293885
vt 0.321397 0.463504
vt 0.321397 0.542346
vt 0.281147 0.502925
vt 0.321397 0.463504
vt 0.361732 0.502925
vt 0.321397 0.542346
vt 0.398899 0.502925
vt 0.361732 0.502925
vt 0.321187 0.293885
vt 0.321187 0.293885
vt 0.281147 0.502925
vt 0.244044 0.502925
vt 0.244044 0.502925
vt 0.281147 0.502925
vt 0.321188 0.711965
vt 0.321188 0.711965
vt 0.361732 0.502925
vt 0.398899 0.502925
vt 0.320993 0.155425
vt 0.321187 0.293885
vt 0.244044 0.502925
vt 0.205575 0.502925
vt 0.244044 0.502925
vt 0.320993 0.850425
vt 0.320993 0.850425
vt 0.398899 0.502925
vt 0.437444 0.502925
vt 0.437444 0.502925
vt 0.398899 0.502925
vt 0.320993 0.155425
vt 0.320784 0.017801
vt 0.205575 0.502925
vt 0.168175 0.502925
vt 0.168175 0.502925
vt 0.205575 0.502925
vt 0.320785 0.98805
vt 0.320785 0.98805
vt 0.437444 0.502925
vt 0.473394 0.502925
vt 0.473394 0.502925
vt 0.437444 0.502925
vt 0.320784 0.017801
vt 0.673683 0.017803
vt 0.561763 0.502926
vt 0.673804 0.156422
vt 0.561763 0.502926
vt 0.673682 0.98805
vt 0.673803 0.849431
vt 0.673682 0.98805
vt 0.785613 0.502926
vt 0.673803 0.849431
vt 0.785613 0.502926
vt 0.673683 0.017803
vt 0.673804 0.156422
vt 0.673804 0.156422
vt 0.561763 0.502926
vt 0.598659 0.502926
vt 0.598659 0.502926
vt 0.673803 0.849431
vt 0.672894 0.710722
vt 0.673803 0.849431
vt 0.748676 0.502926
vt 0.672894 0.710722
vt 0.748676 0.502926
vt 0.673804 0.156422
vt 0.672894 0.295131
vt 0.672894 0.295131
vt 0.634558 0.502926
vt 0.673747 0.463896
vt 0.634558 0.502926
vt 0.672894 0.710722
vt 0.673747 0.541957
vt 0.672894 0.710722
vt 0.712771 0.502926
vt 0.673747 0.541957
vt 0.712771 0.502926
vt 0.672894 0.295131
vt 0.673747 0.463896
vt 0.673747 0.541957
vt 0.673747 0.463896
vt 0.634558 0.502926
vt 0.673747 0.541957
vt 0.712771 0.502926
vt 0.673747 0.463896
vt 0.748676 0.502926
vt 0.672894 0.295131
vt 0.712771 0.502926
vt 0.672894 0.295131
vt 0.598659 0.502926
vt 0.634558 0.502926
vt 0.598659 0.502926
vt 0.672894 0.710722
vt 0.634558 0.502926
vt 0.672894 0.710722
vt 0.748676 0.502926
vt 0.712771 0.502926
vt 0.673804 0.156422
vt 0.598659 0.502926
vt 0.672894 0.295131
vt 0.561763 0.502926
vt 0.673803 0.849431
vt 0.598659 0.502926
vt 0.673803 0.849431
vt 0.785613 0.502926
vt 0.748676 0.502926
vt 0.785613 0.502926
vt 0.673804 0.156422
vt 0.748676 0.502926
vt 0.673683 0.017803
vt 0.521074 0.502926
vt 0.561763 0.502926
vt 0.521074 0.502926
vt 0.673682 0.98805
vt 0.561763 0.502926
vt 0.673682 0.98805
vt 0.826291 0.502926
vt 0.785613 0.502926
vt 0.826291 0.502926
vt 0.673683 0.017803
vt 0.785613 0.502926
vn -0.614545 0.200804 0.7628971
vn -0.614545 0.200804 0.7628971
vn -0.614545 0.200804 0.7628971
vn -0.614545 -0.200804 0.7628971
vn -0.614545 -0.200804 0.7628971
vn -0.614545 -0.200804 0.7628971
vn 0.614545 -0.200804 0.7628971
vn 0.614545 -0.200804 0.7628971
vn 0.614545 -0.200804 0.7628971
vn 0.614545 0.200804 0.7628971
vn 0.614545 0.200804 0.7628971
vn 0.614545 0.200804 0.7628971
vn -0.5603508 0.1836479 0.8076388
vn -0.5603508 0.1836479 0.8076388
vn -0.5603508 0.1836479 0.8076388
vn -0.3630911 -0.147391 0.9200221
vn -0.3630911 -0.147391 0.9200221
vn -0.3630911 -0.147391 0.9200221
vn 0.3630898 -0.1473909 0.9200226
vn 0.3630898 -0.1473909 0.9200226
vn 0.3630898 -0.1473909 0.9200226
vn 0.3630898 0.1473909 0.9200226
vn 0.3630898 0.1473909 0.9200226
vn 0.3630898 0.1473909 0.9200226
vn -0.264559 0.123385 0.9564438
vn -0.264559 0.123385 0.9564438
vn -0.264559 0.123385 0.9564438
vn -0.264559 -0.123385 0.9564438
vn -0.264559 -0.123385 0.9564438
vn -0.264559 -0.123385 0.9564438
vn 0.264559 -0.123385 0.9564438
vn 0.264559 -0.123385 0.9564438
vn 0.264559 -0.123385 0.9564438
vn 0.264558 0.123385 0.956444
vn 0.264558 0.123385 0.956444
vn 0.264558 0.123385 0.956444
vn -0.1460209 0 0.9892814
vn -0.1460209 0 0.9892814
vn -0.1460209 0 0.9892814
vn 0.1460199 0 0.9892817
vn 0.1460199 0 0.9892817
vn 0.1460199 0 0.9892817
vn 0.3248129 0.133564 0.9362997
vn 0.3248129 0.133564 0.9362997
vn 0.3248129 0.133564 0.9362997
vn -0.3248129 0.133564 0.9362997
vn -0.3248129 0.133564 0.9362997
vn -0.3248129 0.133564 0.9362997
vn -0.3248129 -0.133564 0.9362997
vn -0.3248129 -0.133564 0.9362997
vn -0.3248129 -0.133564 0.9362997
vn 0.3248129 -0.133564 0.9362997
vn 0.3248129 -0.133564 0.9362997
vn 0.3248129 -0.133564 0.9362997
vn -0.3630911 0.147391 0.9200221
vn -0.3630911 0.147391 0.9200221
vn -0.3630911 0.147391 0.9200221
vn -0.5603508 -0.1836479 0.8076388
vn -0.5603508 -0.1836479 0.8076388
vn -0.5603508 -0.1836479 0.8076388
vn 0.5603541 -0.183649 0.8076362
vn 0.5603541 -0.183649 0.8076362
vn 0.5603541 -0.183649 0.8076362
vn 0.5603537 0.1836489 0.8076366
vn 0.5603537 0.1836489 0.8076366
vn 0.5603537 0.1836489 0.8076366
vn -0.6687798 0.2103829 0.7130727
vn -0.6687798 0.2103829 0.7130727
vn -0.6687798 0.2103829 0.7130727
vn -0.6687798 -0.2103829 0.7130727
vn -0.6687798 -0.2103829 0.7130727
vn -0.6687798 -0.2103829 0.7130727
vn 0.6687798 -0.2103829 0.7130727
vn 0.6687798 -0.2103829 0.7130727
vn 0.6687798 -0.2103829 0.7130727
vn 0.6687798 0.2103829 0.7130727
vn 0.6687798 0.2103829 0.7130727
vn 0.6687798 0.2103829 0.7130727
vn -0.6145462 0.2008041 -0.7628962
vn -0.6145457 0.2008039 -0.7628967
vn -0.6145462 0.2008041 -0.7628962
vn -0.6145462 -0.2008041 -0.7628962
vn -0.6145462 -0.2008041 -0.7628962
vn -0.6145462 -0.2008041 -0.7628962
vn 0.6145468 -0.200804 -0.7628958
vn 0.6145468 -0.200804 -0.7628958
vn 0.6145468 -0.200804 -0.7628958
vn 0.6145462 0.2008041 -0.7628962
vn 0.6145462 0.2008041 -0.7628962
vn 0.6145462 0.2008041 -0.7628962
vn -0.5603508 0.1836479 -0.8076388
vn -0.5603501 0.183648 -0.8076392
vn -0.5603508 0.1836479 -0.8076388
vn -0.3630911 -0.147391 -0.9200221
vn -0.3630911 -0.147391 -0.9200221
vn -0.3630911 -0.147391 -0.9200221
vn 0.3630898 -0.1473909 -0.9200226
vn 0.3630898 -0.1473909 -0.9200226
vn 0.3630898 -0.1473909 -0.9200226
vn 0.3630898 0.1473909 -0.9200226
vn 0.3630898 0.1473909 -0.9200226
vn 0.3630898 0.1473909 -0.9200226
vn -0.264559 0.123385 -0.9564438
vn -0.264559 0.123385 -0.9564438
vn -0.264559 0.123385 -0.9564438
vn -0.264559 -0.123385 -0.9564438
vn -0.264559 -0.123385 -0.9564438
vn -0.264559 -0.123385 -0.9564438
vn 0.264559 -0.123385 -0.9564438
vn 0.264559 -0.123385 -0.9564438
vn 0.264559 -0.123385 -0.9564438
vn 0.264558 0.123385 -0.956444
vn 0.264558 0.123385 -0.956444
vn 0.264558 0.123385 -0.956444
vn -0.1460209 0 -0.9892814
vn -0.1460209 0 -0.9892814
vn -0.1460209 0 -0.9892814
vn 0.1460199 0 -0.9892817
vn 0.1460199 0 -0.9892817
vn 0.1460199 0 -0.9892817
vn 0.3248141 0.133564 -0.9362993
vn 0.3248141 0.133564 -0.9362993
vn 0.3248141 0.133564 -0.9362993
vn -0.3248141 0.133564 -0.9362993
vn -0.3248141 0.133564 -0.9362993
vn -0.3248141 0.133564 -0.9362993
vn -0.3248141 -0.133564 -0.9362993
vn -0.3248141 -0.133564 -0.9362993
vn -0.3248141 -0.133564 -0.9362993
vn 0.3248141 -0.133564 -0.9362993
vn 0.3248141 -0.133564 -0.9362993
vn 0.3248141 -0.133564 -0.9362993
vn -0.3630898 0.1473909 -0.9200226
vn -0.3630898 0.1473909 -0.9200226
vn -0.3630898 0.1473909 -0.9200226
vn -0.5603508 -0.1836479 -0.8076388
vn -0.5603508 -0.1836479 -0.8076388
vn -0.5603508 -0.1836479 -0.8076388
vn 0.5603541 -0.183649 -0.8076362
vn 0.5603541 -0.183649 -0.8076362
vn 0.5603541 -0.183649 -0.8076362
vn 0.5603537 0.1836489 -0.8076366
vn 0.5603541 0.183649 -0.8076362
vn 0.5603537 0.1836489 -0.8076366
vn -0.6687798 0.2103829 -0.7130727
vn -0.6687798 0.2103829 -0.7130727
vn -0.6687798 0.2103829 -0.7130727
vn -0.6687798 -0.2103829 -0.7130727
vn -0.6687798 -0.2103829 -0.7130727
vn -0.6687798 -0.2103829 -0.7130727
vn 0.6687798 -0.2103829 -0.7130727
vn 0.6687798 -0.2103829 -0.7130727
vn 0.6687798 -0.2103829 -0.7130727
vn 0.6687798 0.2103829 -0.7130727
vn 0.6687798 0.2103829 -0.7130727
vn 0.6687798 0.2103829 -0.7130727
g Magic_Gem_20_0
f 3/3/3 2/2/2 1/1/1
f 6/6/6 5/5/5 4/4/4
f 9/9/9 8/8/8 7/7/7
f 12/12/12 11/11/11 10/10/10
f 15/15/15 14/14/14 13/13/13
f 18/18/18 17/17/17 16/16/16
f 21/21/21 20/20/20 19/19/19
f 24/24/24 23/23/23 22/22/22
f 27/27/27 26/26/26 25/25/25
f 30/30/30 29/29/29 28/28/28
f 33/33/33 32/32/32 31/31/31
f 36/36/36 35/35/35 34/34/34
f 39/39/39 38/38/38 37/37/37
f 42/42/42 41/41/41 40/40/40
f 45/45/45 44/44/44 43/43/43
f 48/48/48 47/47/47 46/46/46
f 51/51/51 50/50/50 49/49/49
f 54/54/54 53/53/53 52/52/52
f 57/57/57 56/56/56 55/55/55
f 60/60/60 59/59/59 58/58/58
f 63/63/63 62/62/62 61/61/61
f 66/66/66 65/65/65 64/64/64
f 69/69/69 68/68/68 67/67/67
f 72/72/72 71/71/71 70/70/70
f 75/75/75 74/74/74 73/73/73
f 78/78/78 77/77/77 76/76/76
f 81/81/81 80/80/80 79/79/79
f 84/84/84 83/83/83 82/82/82
f 87/87/87 86/86/86 85/85/85
f 90/90/90 89/89/89 88/88/88
f 93/93/93 92/92/92 91/91/91
f 96/96/96 95/95/95 94/94/94
f 99/99/99 98/98/98 97/97/97
f 102/102/102 101/101/101 100/100/100
f 105/105/105 104/104/104 103/103/103
f 108/108/108 107/107/107 106/106/106
f 111/111/111 110/110/110 109/109/109
f 114/114/114 113/113/113 112/112/112
f 117/117/117 116/116/116 115/115/115
f 120/120/120 119/119/119 118/118/118
f 123/123/123 122/122/122 121/121/121
f 126/126/126 125/125/125 124/124/124
f 129/129/129 128/128/128 127/127/127
f 132/132/132 131/131/131 130/130/130
f 135/135/135 134/134/134 133/133/133
f 138/138/138 137/137/137 136/136/136
f 141/141/141 140/140/140 139/139/139
f 144/144/144 143/143/143 142/142/142
f 147/147/147 146/146/146 145/145/145
f 150/150/150 149/149/149 148/148/148
f 153/153/153 152/152/152 151/151/151
f 156/156/156 155/155/155 154/154/154
