g Rock11
v -0.1533043 0.03898029 0.1998991
v -0.07532517 0.0686008 0.2188089
v 0.07346482 0.04192344 0.1003715
v -0.1951958 0.02850433 0.1918693
v -0.1057201 0 0.00299927
v -0.2749937 0.04670509 0.1104337
v -0.2874321 0.07434158 -0.1277713
v -0.1550706 0.04015793 -0.1947211
v 0.052574 0.05684379 -0.128905
v 0.2129518 0.08061462 -0.06720291
v -0.1248106 0.07355983 -0.2620691
v 0.2492625 0.1619966 -0.2373141
v 0.06709366 0.1415581 -0.3414215
v 0.09752762 0.6273987 -0.02260987
v 0.06467056 0.6744488 -0.0918747
v 0.1634795 0.5962989 -0.1801807
v 0.1525053 0.5512462 -0.0151503
v 0.2258885 0.5366509 -0.1951331
v 0.160584 0.3917161 0.05392898
v 0.03275406 0.4298322 0.1014993
v 0.2517159 0.2332539 0.02191635
v -0.01044967 0.6479424 0.05519668
v 0.2408736 0.4917464 -0.09728546
v 0.231079 0.4151802 -0.2872211
v 0.2492625 0.1619966 -0.2373141
v 0.2566445 0.1947679 0.00440445
v 0.2129518 0.08061462 -0.06720291
v -0.1413933 0.4291713 0.2383965
v -0.06824996 0.2979269 0.2289383
v -0.2254866 0.5761128 0.1310324
v -0.2093529 0.4237781 0.2312881
v -0.3049306 0.4382617 0.05782562
v -0.3127947 0.2826016 0.111474
v -0.1942995 0.6320202 0.07389343
v -0.1104942 0.7022199 0.01100891
v -0.1913731 0.2977675 0.2668684
v -0.05403823 0.1953992 0.2423276
v -0.2113591 0.2143014 0.2445708
v -0.1533043 0.03898029 0.1998991
v -0.07532517 0.0686008 0.2188089
v -0.1951958 0.02850433 0.1918693
v -0.2947755 0.1880414 0.1447255
v -0.2749937 0.04670509 0.1104337
v -0.3037025 0.1172565 -0.00825897
v -0.2909911 0.1347285 -0.1741559
v -0.2874321 0.07434158 -0.1277713
v -0.3076372 0.3272948 -0.1626044
v -0.3176967 0.2652728 -0.06683945
v -0.2951225 0.4226835 -0.1169962
v -0.321956 0.3489094 0.05930618
v -0.1960643 0.6270962 -0.06511566
v -0.2593834 0.4947963 -0.1180206
v -0.1024205 0.6634751 -0.1320602
v -0.1217726 0.5797964 -0.2087225
v -0.02922774 0.6651563 -0.1680472
v 0.03224992 0.5369339 -0.2649124
v -0.216494 0.4768303 -0.1980234
v -0.2951225 0.4226835 -0.1169962
v -0.3076372 0.3272948 -0.1626044
v -0.02174393 0.7057916 -0.07603089
v -0.01044967 0.6479424 0.05519668
v 0.06467056 0.6744488 -0.0918747
v 0.09752762 0.6273987 -0.02260987
v 0.1634795 0.5962989 -0.1801807
v 0.06467056 0.6744488 -0.0918747
v 0.2258885 0.5366509 -0.1951331
v 0.231079 0.4151802 -0.2872211
v -0.1721709 0.3636459 -0.2595145
v 0.002223055 0.4215396 -0.3158753
v 0.1207747 0.3153132 -0.3605914
v 0.06709366 0.1415581 -0.3414215
v 0.2492625 0.1619966 -0.2373141
v -0.1248106 0.07355983 -0.2620691
v -0.1961836 0.134496 -0.2567258
v -0.2909911 0.1347285 -0.1741559
v -0.1550706 0.04015793 -0.1947211
v -0.2874321 0.07434158 -0.1277713
v 0.160584 0.3917161 0.05392898
v 0.2517159 0.2332539 0.02191635
v 0.2900551 0.3231316 0.08475082
v 0.1681157 0.419282 0.1549341
v 0.2554637 0.3756298 0.136087
v 0.03275406 0.4298322 0.1014993
v 0.2890538 0.3468513 0.187066
v 0.2900551 0.3231316 0.08475082
v 0.3200108 0.2599404 0.1605839
v 0.2517159 0.2332539 0.02191635
v 0.321956 0.1449091 0.2398572
v 0.2566445 0.1947679 0.00440445
v 0.2451747 0.2938457 0.3590317
v 0.1561031 0.3732123 0.2809772
v 0.03492875 0.4357401 0.1655061
v 0.02339371 0.4132074 0.2041951
v -0.06824996 0.2979269 0.2289383
v 0.09799393 0.3128743 0.3605914
v -0.06824996 0.2979269 0.2289383
v 0.2986589 0.06239219 0.2197627
v 0.2129518 0.08061462 -0.06720291
v 0.2722066 0.1969981 0.3509061
v 0.2447881 0.05567787 0.2911908
v 0.008044585 0.2023591 0.2917303
v -0.06824996 0.2979269 0.2289383
v 0.2447881 0.05567787 0.2911908
v -0.05403823 0.1953992 0.2423276
v -0.07532517 0.0686008 0.2188089
v 0.07346482 0.04192344 0.1003715
v 0.2986589 0.06239219 0.2197627
v 0.2129518 0.08061462 -0.06720291
v 0.2447881 0.05567787 0.2911908
v -0.07532517 0.0686008 0.2188089
vt 0.119851 0.522235
vt 0.122373 0.526287
vt 0.132977 0.526286
vt 0.118425 0.520204
vt 0.128894 0.515817
vt 0.118 0.513819
vt 0.126085 0.503348
vt 0.134128 0.505874
vt 0.140486 0.516053
vt 0.144999 0.524376
vt 0.138239 0.504066
vt 0.153795 0.518506
vt 0.14973 0.507626
vt 0.697649 0.07130599
vt 0.69568 0.076285
vt 0.704377 0.07914901
vt 0.70267 0.06911707
vt 0.709606 0.07814503
vt 0.708354 0.06045008
vt 0.700382 0.05700207
vt 0.719708 0.05813301
vt 0.690897 0.06683207
vt 0.709769 0.07189202
vt 0.718659 0.080091
vt 0.730962 0.07013202
vt 0.722308 0.05796301
vt 0.730965 0.05838203
vt 0.692006 0.05034506
vt 0.697623 0.04594207
vt 0.685155 0.05533898
vt 0.689262 0.04882002
vt 0.679966 0.04863703
vt 0.682866 0.04143298
vt 0.684121 0.058483
vt 0.682762 0.06496906
vt 0.692076 0.04361904
vt 0.699826 0.04013801
vt 0.691619 0.03956902
vt 0.694959 0.03057206
vt 0.699256 0.03277898
vt 0.692087 0.02968502
vt 0.685497 0.03727198
vt 0.685367 0.03006208
vt 0.67821 0.03267705
vt 0.669344 0.03259003
vt 0.672504 0.02949798
vt 0.669349 0.04316008
vt 0.6742 0.04008305
vt 0.671651 0.04858899
vt 0.680172 0.04441404
vt 0.67702 0.06017399
vt 0.67226 0.05358005
vt 0.674871 0.06543207
vt 0.669389 0.06286907
vt 0.672652 0.06882298
vt 0.663535 0.06981206
vt 0.66756 0.05570304
vt 0.669899 0.04933906
vt 0.664004 0.04637802
vt 0.677673 0.07000601
vt 0.685858 0.07128108
vt 0.677125 0.07534897
vt 0.68168 0.07781303
vt 0.666904 0.07813299
vt 0.674936 0.07450902
vt 0.662246 0.08092809
vt 0.653493 0.07782805
vt 0.660216 0.05532908
vt 0.657798 0.06549799
vt 0.64999 0.068928
vt 0.642275 0.06223905
vt 0.637777 0.07472098
vt 0.644444 0.049173
vt 0.649719 0.04751909
vt 0.653243 0.04143405
vt 0.64361 0.04426205
vt 0.650253 0.03795707
vt 0.469938 0.962625
vt 0.480598 0.960296
vt 0.475473 0.95578
vt 0.466159 0.958456
vt 0.470733 0.955228
vt 0.461591 0.965501
vt 0.470303 0.952027
vt 0.4755 0.954125
vt 0.474344 0.948665
vt 0.482333 0.951792
vt 0.472815 0.941519
vt 0.484722 0.949533
vt 0.463557 0.946175
vt 0.461386 0.952951
vt 0.459748 0.96228
vt 0.457584 0.96068
vt 0.449152 0.963717
vt 0.456437 0.94867
vt 0.448759 0.958923
vt 0.475116 0.937853
vt 0.491481 0.944614
vt 0.465176 0.941787
vt 0.470873 0.934855
vt 0.450757 0.9424
vt 0.445258 0.947146
vt 0.462848 0.933839
vt 0.446649 0.941784
vt 0.445443 0.934952
vt 0.061196 0.885038
vt 0.047856 0.889216
vt 0.062241 0.897099
vt 0.047172 0.884359
vt 0.06224 0.874591
vn 0.06692618 -0.6777962 0.7321976
vn -0.1512181 -0.7053935 0.6924977
vn 0.1103211 -0.9931913 0.03741907
vn -0.2685228 -0.7567869 0.5959606
vn 0.06104745 -0.9964432 0.05808704
vn -0.7693183 -0.6182277 0.1610711
vn -0.681162 -0.6700647 -0.295011
vn -0.2313975 -0.8794733 -0.415911
vn 0.2210461 -0.9391316 -0.2630029
vn 0.5674946 -0.8017796 -0.1873486
vn -0.1962273 -0.6027491 -0.7734264
vn 0.7493037 -0.5493981 -0.3697372
vn 0.2055647 -0.6205061 -0.7567796
vn 0.5913399 0.5784133 0.5619211
vn 0.5200669 0.8538419 0.02200987
vn 0.5098775 0.7724361 -0.3786389
vn 0.7028458 0.5330443 0.4710324
vn 0.6942835 0.5697576 -0.439712
vn 0.6066992 0.7947484 0.01706449
vn 0.2847952 0.7202706 0.6325361
vn 0.9612641 0.1631135 -0.2221829
vn 0.268645 0.720042 0.6398199
vn 0.8841622 0.3828349 0.2677586
vn 0.7322149 0.249616 -0.6336823
vn 0.7493037 -0.5493981 -0.3697372
vn 0.9787273 -0.1015922 -0.1782465
vn 0.5674946 -0.8017796 -0.1873486
vn 0.3361242 0.3607224 0.8699999
vn -0.2917681 0.3336285 0.896417
vn -0.5294247 0.613291 0.5861601
vn -0.5599846 0.3010849 0.7718582
vn -0.9333798 0.3195379 0.1633944
vn -0.9203248 0.01494732 0.3908693
vn -0.5848007 0.7810353 0.2190711
vn -0.1659494 0.9702119 0.1764928
vn -0.2805305 0.04334579 0.9588658
vn -0.220448 -0.08814386 0.9714079
vn -0.435254 -0.1895185 0.8801345
vn 0.06692618 -0.6777962 0.7321976
vn -0.1512181 -0.7053935 0.6924977
vn -0.2685228 -0.7567869 0.5959606
vn -0.9046028 -0.1381413 0.4032503
vn -0.7693183 -0.6182277 0.1610711
vn -0.9880087 -0.1519943 0.0271366
vn -0.8654072 -0.2589939 -0.4289436
vn -0.681162 -0.6700647 -0.295011
vn -0.8513967 0.0697165 -0.5198685
vn -0.9986293 0.02322831 -0.04690383
vn -0.9127409 0.2862629 -0.2914748
vn -0.9849806 0.09142311 0.1464756
vn -0.7548137 0.6024693 -0.2593977
vn -0.8011169 0.4673069 -0.3739465
vn -0.4615703 0.7796943 -0.4231189
vn -0.428882 0.5688618 -0.7017524
vn -0.0618965 0.7748113 -0.6291553
vn 0.0735442 0.5318677 -0.8436279
vn -0.585534 0.3822397 -0.7148725
vn -0.9127409 0.2862629 -0.2914748
vn -0.8513967 0.0697165 -0.5198685
vn 0.200379 0.9796927 -0.007111153
vn 0.268645 0.720042 0.6398199
vn 0.5200669 0.8538419 0.02200987
vn 0.5913399 0.5784133 0.5619211
vn 0.5098775 0.7724361 -0.3786389
vn 0.5200669 0.8538419 0.02200987
vn 0.6942835 0.5697576 -0.439712
vn 0.7322149 0.249616 -0.6336823
vn -0.488533 0.1493077 -0.8596759
vn -0.2441008 0.225029 -0.9432798
vn 0.1168959 0.09810751 -0.9882866
vn 0.2055647 -0.6205061 -0.7567796
vn 0.7493037 -0.5493981 -0.3697372
vn -0.1962273 -0.6027491 -0.7734264
vn -0.549057 -0.2527792 -0.7966424
vn -0.8654072 -0.2589939 -0.4289436
vn -0.2313975 -0.8794733 -0.415911
vn -0.681162 -0.6700647 -0.295011
vn 0.6066992 0.7947484 0.01706449
vn 0.9612641 0.1631135 -0.2221829
vn 0.7445241 0.4526888 -0.4906698
vn 0.3103183 0.9489782 0.05606115
vn 0.6307873 0.7731761 -0.06561957
vn 0.2847952 0.7202706 0.6325361
vn 0.7230352 0.6512334 0.2304677
vn 0.7445241 0.4526888 -0.4906698
vn 0.9779478 0.1953441 -0.07388474
vn 0.9612641 0.1631135 -0.2221829
vn 0.9967668 -0.06913775 0.04093792
vn 0.9787273 -0.1015922 -0.1782465
vn 0.5856955 0.4524675 0.6724835
vn 0.2022565 0.8546494 0.4781913
vn -0.195874 0.9727218 0.1242801
vn -0.3608304 0.8056382 0.4698387
vn -0.2917681 0.3336285 0.896417
vn -0.3047791 0.4368359 0.8463357
vn -0.2917681 0.3336285 0.896417
vn 0.760624 -0.6457512 0.06675758
vn 0.5674946 -0.8017796 -0.1873486
vn 0.4301584 -0.2600955 0.8644732
vn 0.1858287 -0.8586267 0.4777321
vn -0.4630023 -0.1431652 0.8747185
vn -0.2917681 0.3336285 0.896417
vn 0.1858287 -0.8586267 0.4777321
vn -0.220448 -0.08814386 0.9714079
vn -0.1512181 -0.7053935 0.6924977
vn 0.1103211 -0.9931913 0.03741907
vn 0.760624 -0.6457512 0.06675758
vn 0.5674946 -0.8017796 -0.1873486
vn 0.1858287 -0.8586267 0.4777321
vn -0.1512181 -0.7053935 0.6924977
g Rock11_0
f 3/3/3 2/2/2 1/1/1
f 3/3/3 1/1/1 4/4/4
f 4/4/4 5/5/5 3/3/3
f 6/6/6 5/5/5 4/4/4
f 6/6/6 7/7/7 5/5/5
f 7/7/7 8/8/8 5/5/5
f 5/5/5 9/9/9 3/3/3
f 8/8/8 9/9/9 5/5/5
f 3/3/3 9/9/9 10/10/10
f 11/11/11 9/9/9 8/8/8
f 10/10/10 9/9/9 12/12/12
f 13/13/13 9/9/9 11/11/11
f 12/12/12 9/9/9 13/13/13
f 16/16/16 15/15/15 14/14/14
f 17/17/17 16/16/16 14/14/14
f 18/18/18 16/16/16 17/17/17
f 19/19/19 17/17/17 14/14/14
f 20/20/20 19/19/19 14/14/14
f 19/19/19 21/21/21 17/17/17
f 14/14/14 22/22/22 20/20/20
f 23/23/23 18/18/18 17/17/17
f 21/21/21 23/23/23 17/17/17
f 18/18/18 23/23/23 21/21/21
f 24/24/24 18/18/18 21/21/21
f 25/25/25 24/24/24 21/21/21
f 26/26/26 25/25/25 21/21/21
f 27/27/27 25/25/25 26/26/26
f 22/22/22 28/28/28 20/20/20
f 29/29/29 20/20/20 28/28/28
f 22/22/22 30/30/30 28/28/28
f 29/29/29 28/28/28 31/31/31
f 30/30/30 31/31/31 28/28/28
f 31/31/31 30/30/30 32/32/32
f 31/31/31 32/32/32 33/33/33
f 30/30/30 22/22/22 34/34/34
f 30/30/30 34/34/34 32/32/32
f 22/22/22 35/35/35 34/34/34
f 36/36/36 29/29/29 31/31/31
f 33/33/33 36/36/36 31/31/31
f 37/37/37 29/29/29 36/36/36
f 38/38/38 37/37/37 36/36/36
f 38/38/38 36/36/36 33/33/33
f 39/39/39 37/37/37 38/38/38
f 39/39/39 40/40/40 37/37/37
f 41/41/41 39/39/39 38/38/38
f 41/41/41 38/38/38 42/42/42
f 42/42/42 38/38/38 33/33/33
f 43/43/43 41/41/41 42/42/42
f 43/43/43 42/42/42 44/44/44
f 42/42/42 33/33/33 44/44/44
f 43/43/43 44/44/44 45/45/45
f 46/46/46 43/43/43 45/45/45
f 47/47/47 45/45/45 44/44/44
f 48/48/48 47/47/47 44/44/44
f 44/44/44 33/33/33 48/48/48
f 47/47/47 48/48/48 49/49/49
f 33/33/33 50/50/50 48/48/48
f 32/32/32 50/50/50 33/33/33
f 48/48/48 50/50/50 32/32/32
f 49/49/49 48/48/48 32/32/32
f 49/49/49 32/32/32 51/51/51
f 34/34/34 51/51/51 32/32/32
f 52/52/52 49/49/49 51/51/51
f 51/51/51 34/34/34 53/53/53
f 34/34/34 35/35/35 53/53/53
f 52/52/52 51/51/51 54/54/54
f 53/53/53 54/54/54 51/51/51
f 53/53/53 35/35/35 55/55/55
f 53/53/53 55/55/55 54/54/54
f 56/56/56 54/54/54 55/55/55
f 57/57/57 52/52/52 54/54/54
f 57/57/57 54/54/54 56/56/56
f 52/52/52 57/57/57 58/58/58
f 58/58/58 57/57/57 59/59/59
f 35/35/35 60/60/60 55/55/55
f 35/35/35 61/61/61 60/60/60
f 60/60/60 61/61/61 62/62/62
f 61/61/61 63/63/63 62/62/62
f 64/64/64 55/55/55 60/60/60
f 55/55/55 64/64/64 56/56/56
f 65/65/65 64/64/64 60/60/60
f 56/56/56 64/64/64 66/66/66
f 56/56/56 66/66/66 67/67/67
f 57/57/57 68/68/68 59/59/59
f 69/69/69 57/57/57 56/56/56
f 68/68/68 57/57/57 69/69/69
f 56/56/56 67/67/67 70/70/70
f 69/69/69 56/56/56 70/70/70
f 71/71/71 70/70/70 67/67/67
f 69/69/69 70/70/70 71/71/71
f 72/72/72 71/71/71 67/67/67
f 73/73/73 69/69/69 71/71/71
f 68/68/68 69/69/69 73/73/73
f 74/74/74 59/59/59 68/68/68
f 74/74/74 68/68/68 73/73/73
f 75/75/75 59/59/59 74/74/74
f 76/76/76 74/74/74 73/73/73
f 75/75/75 74/74/74 76/76/76
f 77/77/77 75/75/75 76/76/76
f 80/80/80 79/79/79 78/78/78
f 78/78/78 81/81/81 80/80/80
f 81/81/81 82/82/82 80/80/80
f 78/78/78 83/83/83 81/81/81
f 82/82/82 81/81/81 84/84/84
f 85/85/85 82/82/82 84/84/84
f 86/86/86 85/85/85 84/84/84
f 87/87/87 85/85/85 86/86/86
f 87/87/87 86/86/86 88/88/88
f 89/89/89 87/87/87 88/88/88
f 84/84/84 90/90/90 86/86/86
f 88/88/88 86/86/86 90/90/90
f 81/81/81 91/91/91 84/84/84
f 90/90/90 84/84/84 91/91/91
f 83/83/83 92/92/92 81/81/81
f 91/91/91 81/81/81 92/92/92
f 92/92/92 83/83/83 93/93/93
f 93/93/93 91/91/91 92/92/92
f 83/83/83 94/94/94 93/93/93
f 95/95/95 91/91/91 93/93/93
f 90/90/90 91/91/91 95/95/95
f 93/93/93 96/96/96 95/95/95
f 89/89/89 88/88/88 97/97/97
f 98/98/98 89/89/89 97/97/97
f 99/99/99 88/88/88 90/90/90
f 97/97/97 88/88/88 99/99/99
f 99/99/99 90/90/90 95/95/95
f 100/100/100 97/97/97 99/99/99
f 101/101/101 99/99/99 95/95/95
f 101/101/101 95/95/95 102/102/102
f 103/103/103 99/99/99 101/101/101
f 104/104/104 101/101/101 102/102/102
f 105/105/105 103/103/103 101/101/101
f 101/101/101 104/104/104 105/105/105
f 108/108/108 107/107/107 106/106/106
f 107/107/107 109/109/109 106/106/106
f 110/110/110 106/106/106 109/109/109
