g Rock13
v 0.1966841 0.07376689 -0.1550708
v -0.08564949 0.03709937 -0.2711049
v -0.1669368 0 0.05413529
v 0.3848774 0.1541469 -0.09984408
v 0.3903681 0.1450292 -0.02140446
v 0.4597732 0.2725961 0.04279028
v 0.4795991 0.2897444 -0.09831173
v 0.2675907 0.2162542 0.1638819
v 0.4134529 0.3914173 0.1993813
v -0.1536791 0.3069037 0.4285258
v -0.3401907 0.2014441 0.1739957
v 0.1310817 0.3187084 0.3489325
v -0.406917 0.3676788 0.218989
v -0.4795991 0.496158 0.02699425
v -0.4517421 0.5849152 0.06138942
v -0.3609756 0.5443088 0.2136569
v -0.1195132 0.5178587 0.3591029
v 0.09046093 0.7229802 0.1783139
v -0.4517421 0.5849152 0.06138942
v -0.3813071 0.7041259 -0.07678308
v 0.3922369 0.5854863 0.07925537
v 0.4597732 0.2725961 0.04279028
v -0.02411358 0.7826292 0.03887361
v -0.2516607 0.7662088 -0.08993935
v 0.3280732 0.6656305 -0.02522962
v 0.3280732 0.6656305 -0.02522962
v 0.4795991 0.2897444 -0.09831173
v 0.4017278 0.4433288 -0.1545229
v -0.3780535 0.553333 -0.2930233
v 0.4017278 0.4433288 -0.1545229
v -0.2329422 0.3541945 -0.4285258
v 0.1966841 0.07376689 -0.1550708
v -0.08564949 0.03709937 -0.2711049
v 0.3848774 0.1541469 -0.09984408
v 0.4795991 0.2897444 -0.09831173
v -0.3813071 0.7041259 -0.07678308
v -0.2516607 0.7662088 -0.08993935
v -0.4795991 0.496158 0.02699425
v -0.4517421 0.5849152 0.06138942
v -0.08564949 0.03709937 -0.2711049
v -0.2329422 0.3541945 -0.4285258
v -0.3401907 0.2014441 0.1739957
v -0.1669368 0 0.05413529
vt 0.276413 0.84384
vt 0.270325 0.851905
vt 0.279963 0.857382
vt 0.279959 0.838621
vt 0.281767 0.839369
vt 0.285751 0.836484
vt 0.281886 0.833636
vt 0.28669 0.842762
vt 0.292117 0.838506
vt 0.292019 0.853852
vt 0.289704 0.8608691
vt 0.291699 0.846659
vt 0.295566 0.861064
vt 0.299728 0.866066
vt 0.302337 0.864087
vt 0.299909 0.858594
vt 0.29684 0.852496
vt 0.302465 0.846443
vt 0.305606 0.861455
vt 0.311099 0.85758
vt 0.298789 0.837432
vt 0.291398 0.831571
vt 0.306292 0.847453
vt 0.311161 0.853362
vt 0.306849 0.83646
vt 0.303067 0.838187
vt 0.29494 0.827622
vt 0.300308 0.82998
vt 0.320489 0.854119
vt 0.313196 0.831895
vt 0.325831 0.847874
vt 0.325506 0.830886
vt 0.33105 0.837957
vt 0.32047 0.827279
vt 0.315636 0.827197
vt 0.316989 0.860984
vt 0.312972 0.859694
vt 0.323937 0.863457
vt 0.321324 0.864711
vt 0.337006 0.848704
vt 0.325831 0.847874
vt 0.334361 0.864216
vt 0.340213 0.858025
vn 0.4292384 -0.6094248 -0.6666002
vn -0.3648323 -0.7798626 -0.5086371
vn -0.1219688 -0.9261861 0.356795
vn 0.5750049 -0.5482118 -0.6073163
vn 0.5051165 -0.8374643 0.2085925
vn 0.9107487 -0.28601 0.2978845
vn 0.930838 -0.00929034 -0.365314
vn 0.3892212 -0.6948733 0.6046968
vn 0.7319337 -0.1465519 0.6654288
vn -0.1625573 -0.4538819 0.8761086
vn -0.769688 -0.5686452 0.2902124
vn 0.4475358 -0.1779242 0.8763874
vn -0.8145002 -0.1170392 0.568235
vn -0.9784743 -0.2004759 -0.04896251
vn -0.6976318 0.6221859 0.3552385
vn -0.535454 0.5587567 0.6333088
vn -0.151183 0.4987633 0.8534511
vn -0.005763862 0.7686306 0.639667
vn -0.6976318 0.6221859 0.3552385
vn -0.6063701 0.7878923 0.1074297
vn 0.7872863 0.5252764 0.322901
vn 0.9107487 -0.28601 0.2978845
vn 0.140479 0.9894155 0.03636627
vn -0.2205675 0.9292567 -0.2963642
vn 0.6557805 0.6688358 -0.3501582
vn 0.6557805 0.6688358 -0.3501582
vn 0.930838 -0.00929034 -0.365314
vn 0.5090701 0.08784267 -0.8562308
vn -0.4676675 0.5190951 -0.7154212
vn 0.5090701 0.08784267 -0.8562308
vn 0.376685 0.04154528 -0.9254093
vn 0.4292384 -0.6094248 -0.6666002
vn -0.3648323 -0.7798626 -0.5086371
vn 0.5750049 -0.5482118 -0.6073163
vn 0.930838 -0.00929034 -0.365314
vn -0.6063701 0.7878923 0.1074297
vn -0.2205675 0.9292567 -0.2963642
vn -0.9784743 -0.2004759 -0.04896251
vn -0.6976318 0.6221859 0.3552385
vn -0.3648323 -0.7798626 -0.5086371
vn -0.8350492 -0.45408 -0.3106511
vn -0.769688 -0.5686452 0.2902124
vn -0.1219688 -0.9261861 0.356795
g Rock13_0
f 3/3/3 2/2/2 1/1/1
f 1/1/1 4/4/4 3/3/3
f 4/4/4 5/5/5 3/3/3
f 5/5/5 4/4/4 6/6/6
f 4/4/4 7/7/7 6/6/6
f 6/6/6 8/8/8 5/5/5
f 5/5/5 8/8/8 3/3/3
f 9/9/9 8/8/8 6/6/6
f 3/3/3 8/8/8 10/10/10
f 11/11/11 3/3/3 10/10/10
f 12/12/12 8/8/8 9/9/9
f 10/10/10 8/8/8 12/12/12
f 10/10/10 13/13/13 11/11/11
f 11/11/11 13/13/13 14/14/14
f 15/15/15 14/14/14 13/13/13
f 16/16/16 15/15/15 13/13/13
f 13/13/13 10/10/10 16/16/16
f 10/10/10 17/17/17 16/16/16
f 10/10/10 12/12/12 17/17/17
f 17/17/17 18/18/18 16/16/16
f 12/12/12 18/18/18 17/17/17
f 16/16/16 18/18/18 19/19/19
f 19/19/19 18/18/18 20/20/20
f 9/9/9 21/21/21 12/12/12
f 21/21/21 18/18/18 12/12/12
f 9/9/9 22/22/22 21/21/21
f 20/20/20 18/18/18 23/23/23
f 18/18/18 21/21/21 23/23/23
f 24/24/24 20/20/20 23/23/23
f 24/24/24 23/23/23 25/25/25
f 21/21/21 26/26/26 23/23/23
f 21/21/21 22/22/22 26/26/26
f 22/22/22 27/27/27 26/26/26
f 28/28/28 26/26/26 27/27/27
f 29/29/29 24/24/24 25/25/25
f 25/25/25 30/30/30 29/29/29
f 30/30/30 31/31/31 29/29/29
f 31/31/31 30/30/30 32/32/32
f 33/33/33 31/31/31 32/32/32
f 34/34/34 32/32/32 30/30/30
f 34/34/34 30/30/30 35/35/35
f 37/37/37 29/29/29 36/36/36
f 36/36/36 29/29/29 38/38/38
f 39/39/39 36/36/36 38/38/38
f 38/38/38 29/29/29 40/40/40
f 29/29/29 41/41/41 40/40/40
f 42/42/42 38/38/38 40/40/40
f 43/43/43 42/42/42 40/40/40
